Aarav Light.ufo
<glyph name="exclam" format="1">
  <advance width="258"/>
  <unicode hex="0021"/>
  <outline>
    <contour>
      <point x="126" y="94" type="curve" smooth="yes"/>
      <point x="110" y="94"/>
      <point x="102" y="77"/>
      <point x="86" y="75" type="curve" smooth="yes"/>
      <point x="81" y="74"/>
      <point x="77" y="42"/>
      <point x="77" y="30" type="curve" smooth="yes"/>
      <point x="77" y="21"/>
      <point x="93" y="-9"/>
      <point x="109" y="-9" type="curve" smooth="yes"/>
      <point x="147" y="-9"/>
      <point x="179" y="19"/>
      <point x="179" y="37" type="curve" smooth="yes"/>
      <point x="179" y="50"/>
      <point x="138" y="94"/>
    </contour>
    <contour>
      <point x="127" y="741" type="curve" smooth="yes"/>
      <point x="113" y="741"/>
      <point x="93" y="713"/>
      <point x="93" y="698" type="curve" smooth="yes"/>
      <point x="93" y="626"/>
      <point x="105" y="550"/>
      <point x="105" y="483" type="curve" smooth="yes"/>
      <point x="105" y="460"/>
      <point x="97" y="275"/>
      <point x="97" y="234" type="curve" smooth="yes"/>
      <point x="97" y="220"/>
      <point x="114" y="214"/>
      <point x="119" y="214" type="curve" smooth="yes"/>
      <point x="146" y="214"/>
      <point x="159" y="257"/>
      <point x="159" y="299" type="curve" smooth="yes"/>
      <point x="159" y="370"/>
      <point x="155" y="430"/>
      <point x="155" y="490" type="curve" smooth="yes"/>
      <point x="155" y="563"/>
      <point x="170" y="631"/>
      <point x="170" y="699" type="curve" smooth="yes"/>
      <point x="170" y="712"/>
      <point x="150" y="741"/>
    </contour>
  </outline>
</glyph>
<glyph name="quotedbl" format="1">
  <advance width="357"/>
  <unicode hex="0022"/>
  <outline>
    <contour>
      <point x="76" y="720" type="curve" smooth="yes"/>
      <point x="64" y="720"/>
      <point x="50" y="699"/>
      <point x="53" y="689" type="curve" smooth="yes"/>
      <point x="61" y="639"/>
      <point x="57" y="575"/>
      <point x="57" y="529" type="curve" smooth="yes"/>
      <point x="57" y="514"/>
      <point x="74" y="500"/>
      <point x="92" y="500" type="curve" smooth="yes"/>
      <point x="108" y="500"/>
      <point x="123" y="518"/>
      <point x="123" y="533" type="curve" smooth="yes"/>
      <point x="123" y="558"/>
      <point x="118" y="587"/>
      <point x="118" y="608" type="curve" smooth="yes"/>
      <point x="118" y="635"/>
      <point x="129" y="666"/>
      <point x="129" y="689" type="curve" smooth="yes"/>
      <point x="129" y="702"/>
      <point x="106" y="720"/>
    </contour>
    <contour>
      <point x="265" y="730" type="curve" smooth="yes"/>
      <point x="246" y="730"/>
      <point x="229" y="714"/>
      <point x="229" y="698" type="curve"/>
      <point x="228" y="649"/>
      <point x="236" y="594"/>
      <point x="223" y="548" type="curve" smooth="yes"/>
      <point x="217" y="525"/>
      <point x="233" y="505"/>
      <point x="253" y="505" type="curve" smooth="yes"/>
      <point x="272" y="505"/>
      <point x="286" y="528"/>
      <point x="286" y="543" type="curve" smooth="yes"/>
      <point x="286" y="576"/>
      <point x="292" y="624"/>
      <point x="292" y="655" type="curve" smooth="yes"/>
      <point x="292" y="669"/>
      <point x="303" y="681"/>
      <point x="303" y="692" type="curve" smooth="yes"/>
      <point x="303" y="698"/>
      <point x="290" y="730"/>
    </contour>
  </outline>
</glyph>
<glyph name="numbersign" format="1">
  <advance width="735"/>
  <unicode hex="0023"/>
  <outline>
    <contour>
      <point x="592" y="654" type="curve" smooth="yes"/>
      <point x="571" y="654"/>
      <point x="564" y="662"/>
      <point x="544" y="594" type="curve" smooth="yes"/>
      <point x="533" y="557"/>
      <point x="520" y="529"/>
      <point x="507" y="495" type="curve"/>
      <point x="445" y="494"/>
      <point x="396" y="491"/>
      <point x="346" y="490" type="curve"/>
      <point x="365" y="533"/>
      <point x="391" y="594"/>
      <point x="404" y="607" type="curve" smooth="yes"/>
      <point x="407" y="610"/>
      <point x="415" y="632"/>
      <point x="415" y="650" type="curve" smooth="yes"/>
      <point x="415" y="656"/>
      <point x="405" y="669"/>
      <point x="401" y="669" type="curve" smooth="yes"/>
      <point x="369" y="669"/>
      <point x="344" y="645"/>
      <point x="325" y="594" type="curve" smooth="yes"/>
      <point x="313" y="562"/>
      <point x="303" y="531"/>
      <point x="289" y="490" type="curve"/>
      <point x="238" y="492"/>
      <point x="194" y="497"/>
      <point x="150" y="497" type="curve" smooth="yes"/>
      <point x="121" y="497"/>
      <point x="117" y="482"/>
      <point x="113" y="470" type="curve" smooth="yes"/>
      <point x="113" y="462"/>
      <point x="103" y="434"/>
      <point x="129" y="434" type="curve" smooth="yes"/>
      <point x="176" y="434"/>
      <point x="207" y="441"/>
      <point x="272" y="443" type="curve"/>
      <point x="252" y="391"/>
      <point x="243" y="358"/>
      <point x="207" y="276" type="curve" smooth="yes"/>
      <point x="205" y="272"/>
      <point x="203" y="265"/>
      <point x="195" y="251" type="curve"/>
      <point x="155" y="254"/>
      <point x="117" y="257"/>
      <point x="80" y="257" type="curve" smooth="yes"/>
      <point x="41" y="257"/>
      <point x="38" y="235"/>
      <point x="38" y="227" type="curve" smooth="yes"/>
      <point x="38" y="206"/>
      <point x="60" y="198"/>
      <point x="70" y="198" type="curve" smooth="yes"/>
      <point x="74" y="198"/>
      <point x="88" y="199"/>
      <point x="176" y="201" type="curve" smooth="yes"/>
      <point x="151" y="148"/>
      <point x="98" y="71"/>
      <point x="98" y="21" type="curve" smooth="yes"/>
      <point x="98" y="-4"/>
      <point x="113" y="-16"/>
      <point x="140" y="-16" type="curve" smooth="yes"/>
      <point x="150" y="-16"/>
      <point x="161" y="-7"/>
      <point x="161" y="-2" type="curve" smooth="yes"/>
      <point x="161" y="17"/>
      <point x="165" y="26"/>
      <point x="174" y="56" type="curve" smooth="yes"/>
      <point x="188" y="103"/>
      <point x="209" y="148"/>
      <point x="229" y="202" type="curve"/>
      <point x="282" y="203"/>
      <point x="323" y="205"/>
      <point x="354" y="205" type="curve" smooth="yes"/>
      <point x="395" y="205" type="line"/>
      <point x="350" y="86"/>
      <point x="348" y="77"/>
      <point x="323" y="31" type="curve" smooth="yes"/>
      <point x="309" y="5"/>
      <point x="332" y="-6"/>
      <point x="350" y="-6" type="curve" smooth="yes"/>
      <point x="393" y="-6"/>
      <point x="385" y="33"/>
      <point x="395" y="63" type="curve" smooth="yes"/>
      <point x="403" y="89"/>
      <point x="402" y="89"/>
      <point x="447" y="200" type="curve"/>
      <point x="496" y="198"/>
      <point x="569" y="193"/>
      <point x="581" y="193" type="curve" smooth="yes"/>
      <point x="596" y="193"/>
      <point x="621" y="207"/>
      <point x="621" y="227" type="curve" smooth="yes"/>
      <point x="621" y="247"/>
      <point x="615" y="252"/>
      <point x="588" y="252" type="curve" smooth="yes"/>
      <point x="547" y="252"/>
      <point x="517" y="251"/>
      <point x="469" y="250" type="curve"/>
      <point x="472" y="261"/>
      <point x="475" y="268"/>
      <point x="477" y="273" type="curve" smooth="yes"/>
      <point x="495" y="320"/>
      <point x="517" y="377"/>
      <point x="546" y="447" type="curve"/>
      <point x="652" y="447" type="line" smooth="yes"/>
      <point x="661" y="447"/>
      <point x="694" y="456"/>
      <point x="701" y="484" type="curve" smooth="yes"/>
      <point x="704" y="506"/>
      <point x="680" y="506"/>
      <point x="655" y="506" type="curve"/>
      <point x="645" y="506"/>
      <point x="625" y="504"/>
      <point x="568" y="499" type="curve"/>
      <point x="588" y="547"/>
      <point x="607" y="590"/>
      <point x="616" y="601" type="curve"/>
      <point x="639" y="619"/>
      <point x="606" y="654"/>
    </contour>
    <contour>
      <point x="491" y="447" type="curve"/>
      <point x="463" y="375"/>
      <point x="446" y="327"/>
      <point x="426" y="281" type="curve" smooth="yes"/>
      <point x="422" y="273"/>
      <point x="419" y="264"/>
      <point x="412" y="250" type="curve"/>
      <point x="369" y="249"/>
      <point x="319" y="249"/>
      <point x="281" y="249" type="curve" smooth="yes"/>
      <point x="251" y="249" type="line"/>
      <point x="253" y="254"/>
      <point x="255" y="261"/>
      <point x="258" y="268" type="curve" smooth="yes"/>
      <point x="283" y="330"/>
      <point x="302" y="387"/>
      <point x="326" y="445" type="curve"/>
      <point x="383" y="447"/>
      <point x="437" y="447"/>
    </contour>
  </outline>
</glyph>
<glyph name="dollar" format="1">
  <advance width="528"/>
  <unicode hex="0024"/>
  <outline>
    <contour>
      <point x="276" y="763" type="curve" smooth="yes"/>
      <point x="255" y="763"/>
      <point x="234" y="751"/>
      <point x="234" y="733" type="curve" smooth="yes"/>
      <point x="234" y="718"/>
      <point x="236" y="688"/>
      <point x="238" y="627" type="curve"/>
      <point x="128" y="595"/>
      <point x="71" y="529"/>
      <point x="71" y="483" type="curve" smooth="yes"/>
      <point x="71" y="400"/>
      <point x="133" y="374"/>
      <point x="239" y="355" type="curve"/>
      <point x="238" y="253"/>
      <point x="237" y="218"/>
      <point x="236" y="170" type="curve"/>
      <point x="159" y="171"/>
      <point x="134" y="183"/>
      <point x="112" y="200" type="curve" smooth="yes"/>
      <point x="93" y="214"/>
      <point x="88" y="242"/>
      <point x="63" y="242" type="curve" smooth="yes"/>
      <point x="42" y="242"/>
      <point x="38" y="225"/>
      <point x="38" y="210" type="curve" smooth="yes"/>
      <point x="38" y="184"/>
      <point x="101" y="128"/>
      <point x="234" y="127" type="curve"/>
      <point x="232" y="79"/>
      <point x="231" y="73"/>
      <point x="231" y="69" type="curve" smooth="yes"/>
      <point x="230" y="47"/>
      <point x="217" y="26"/>
      <point x="217" y="6" type="curve" smooth="yes"/>
      <point x="217" y="2"/>
      <point x="229" y="-14"/>
      <point x="247" y="-14" type="curve" smooth="yes"/>
      <point x="269" y="-14"/>
      <point x="282" y="6"/>
      <point x="282" y="24" type="curve" smooth="yes"/>
      <point x="282" y="131" type="line"/>
      <point x="413" y="150"/>
      <point x="472" y="208"/>
      <point x="472" y="269" type="curve" smooth="yes"/>
      <point x="472" y="363"/>
      <point x="391" y="380"/>
      <point x="283" y="400" type="curve"/>
      <point x="283" y="450" type="line" smooth="yes"/>
      <point x="283" y="482"/>
      <point x="283" y="531"/>
      <point x="285" y="595" type="curve"/>
      <point x="359" y="594"/>
      <point x="330" y="532"/>
      <point x="380" y="532" type="curve" smooth="yes"/>
      <point x="400" y="532"/>
      <point x="409" y="554"/>
      <point x="409" y="570" type="curve" smooth="yes"/>
      <point x="409" y="589"/>
      <point x="383" y="638"/>
      <point x="318" y="638" type="curve" smooth="yes"/>
      <point x="312" y="638"/>
      <point x="302" y="638"/>
      <point x="287" y="636" type="curve"/>
      <point x="287" y="684" type="line" smooth="yes"/>
      <point x="287" y="708"/>
      <point x="291" y="727"/>
      <point x="291" y="746" type="curve" smooth="yes"/>
      <point x="291" y="754"/>
      <point x="283" y="763"/>
    </contour>
    <contour>
      <point x="412" y="272" type="curve" smooth="yes"/>
      <point x="412" y="224"/>
      <point x="373" y="190"/>
      <point x="283" y="171" type="curve"/>
      <point x="283" y="349" type="line"/>
      <point x="344" y="339"/>
      <point x="412" y="326"/>
    </contour>
    <contour>
      <point x="129" y="485" type="curve" smooth="yes"/>
      <point x="129" y="523"/>
      <point x="172" y="561"/>
      <point x="239" y="586" type="curve"/>
      <point x="239" y="506" type="line" smooth="yes"/>
      <point x="239" y="463"/>
      <point x="238" y="445"/>
      <point x="238" y="407" type="curve" smooth="yes"/>
      <point x="173" y="421"/>
      <point x="129" y="439"/>
    </contour>
  </outline>
</glyph>
<glyph name="percent" format="1">
  <advance width="814"/>
  <unicode hex="0025"/>
  <outline>
    <contour>
      <point x="531" y="725" type="curve" smooth="yes"/>
      <point x="501" y="725"/>
      <point x="473" y="700"/>
      <point x="456" y="651" type="curve" smooth="yes"/>
      <point x="387" y="461"/>
      <point x="377" y="440"/>
      <point x="323" y="306" type="curve" smooth="yes"/>
      <point x="274" y="185"/>
      <point x="206" y="65"/>
      <point x="206" y="29" type="curve" smooth="yes"/>
      <point x="206" y="-8"/>
      <point x="249" y="-10"/>
      <point x="257" y="-10" type="curve" smooth="yes"/>
      <point x="271" y="-10"/>
      <point x="278" y="0"/>
      <point x="278" y="7" type="curve" smooth="yes"/>
      <point x="278" y="26"/>
      <point x="274" y="42"/>
      <point x="281" y="64" type="curve" smooth="yes"/>
      <point x="307" y="148"/>
      <point x="347" y="229"/>
      <point x="378" y="309" type="curve" smooth="yes"/>
      <point x="461" y="514"/>
      <point x="528" y="656"/>
      <point x="542" y="669" type="curve" smooth="yes"/>
      <point x="546" y="674"/>
      <point x="552" y="696"/>
      <point x="548" y="710" type="curve" smooth="yes"/>
      <point x="546" y="718"/>
      <point x="536" y="725"/>
    </contour>
    <contour>
      <point x="520" y="316" type="curve" smooth="yes"/>
      <point x="505" y="316"/>
      <point x="481" y="307"/>
      <point x="476" y="280" type="curve"/>
      <point x="463" y="274"/>
      <point x="455" y="266"/>
      <point x="455" y="255" type="curve" smooth="yes"/>
      <point x="455" y="244"/>
      <point x="459" y="232"/>
      <point x="476" y="232" type="curve"/>
      <point x="470" y="200"/>
      <point x="463" y="171"/>
      <point x="463" y="143" type="curve" smooth="yes"/>
      <point x="463" y="101"/>
      <point x="472" y="4"/>
      <point x="562" y="4" type="curve" smooth="yes"/>
      <point x="675" y="4"/>
      <point x="756" y="118"/>
      <point x="756" y="166" type="curve" smooth="yes"/>
      <point x="756" y="245"/>
      <point x="681" y="289"/>
      <point x="630" y="289" type="curve" smooth="yes"/>
      <point x="602" y="289"/>
      <point x="579" y="285"/>
      <point x="557" y="281" type="curve"/>
      <point x="551" y="312"/>
      <point x="534" y="316"/>
    </contour>
    <contour>
      <point x="702" y="166" type="curve" smooth="yes"/>
      <point x="702" y="111"/>
      <point x="631" y="60"/>
      <point x="577" y="60" type="curve" smooth="yes"/>
      <point x="549" y="60"/>
      <point x="517" y="81"/>
      <point x="517" y="139" type="curve" smooth="yes"/>
      <point x="517" y="165"/>
      <point x="522" y="193"/>
      <point x="537" y="230" type="curve"/>
      <point x="592" y="234"/>
      <point x="702" y="243"/>
    </contour>
    <contour>
      <point x="52" y="536" type="curve" smooth="yes"/>
      <point x="52" y="441"/>
      <point x="107" y="383"/>
      <point x="157" y="383" type="curve" smooth="yes"/>
      <point x="260" y="383"/>
      <point x="324" y="476"/>
      <point x="324" y="526" type="curve" smooth="yes"/>
      <point x="324" y="601"/>
      <point x="263" y="703"/>
      <point x="149" y="703" type="curve" smooth="yes"/>
      <point x="113" y="703"/>
      <point x="91" y="661"/>
      <point x="57" y="658" type="curve" smooth="yes"/>
      <point x="47" y="657"/>
      <point x="40" y="642"/>
      <point x="40" y="632" type="curve" smooth="yes"/>
      <point x="40" y="616"/>
      <point x="55" y="605"/>
      <point x="71" y="610" type="curve"/>
      <point x="57" y="585"/>
      <point x="52" y="559"/>
    </contour>
    <contour>
      <point x="180" y="641" type="curve" smooth="yes"/>
      <point x="226" y="641"/>
      <point x="273" y="610"/>
      <point x="273" y="550" type="curve" smooth="yes"/>
      <point x="273" y="475"/>
      <point x="201" y="433"/>
      <point x="172" y="433" type="curve" smooth="yes"/>
      <point x="143" y="433"/>
      <point x="101" y="462"/>
      <point x="101" y="523" type="curve" smooth="yes"/>
      <point x="101" y="589"/>
      <point x="158" y="606"/>
      <point x="158" y="630" type="curve" smooth="yes"/>
      <point x="158" y="637" type="line"/>
      <point x="164" y="640"/>
      <point x="177" y="641"/>
    </contour>
  </outline>
</glyph>
<glyph name="ampersand" format="1">
  <advance width="607"/>
  <unicode hex="0026"/>
  <outline>
    <contour>
      <point x="526" y="-49" type="curve" smooth="yes"/>
      <point x="541" y="-49"/>
      <point x="556" y="-35"/>
      <point x="556" y="-21" type="curve" smooth="yes"/>
      <point x="554" y="6"/>
      <point x="518" y="27"/>
      <point x="501" y="44" type="curve" smooth="yes"/>
      <point x="495" y="51"/>
      <point x="487" y="58"/>
      <point x="472" y="76" type="curve"/>
      <point x="526" y="141"/>
      <point x="556" y="213"/>
      <point x="556" y="285" type="curve" smooth="yes"/>
      <point x="556" y="289"/>
      <point x="547" y="308"/>
      <point x="537" y="308" type="curve" smooth="yes"/>
      <point x="528" y="308"/>
      <point x="505" y="298"/>
      <point x="505" y="287" type="curve" smooth="yes"/>
      <point x="502" y="232"/>
      <point x="485" y="176"/>
      <point x="435" y="118" type="curve"/>
      <point x="365" y="203"/>
      <point x="306" y="283"/>
      <point x="255" y="365" type="curve"/>
      <point x="342" y="417"/>
      <point x="413" y="467"/>
      <point x="413" y="543" type="curve" smooth="yes"/>
      <point x="413" y="612"/>
      <point x="340" y="701"/>
      <point x="257" y="701" type="curve" smooth="yes"/>
      <point x="190" y="701"/>
      <point x="120" y="595"/>
      <point x="120" y="558" type="curve" smooth="yes"/>
      <point x="120" y="519"/>
      <point x="136" y="463"/>
      <point x="180" y="383" type="curve"/>
      <point x="81" y="324"/>
      <point x="39" y="281"/>
      <point x="39" y="192" type="curve" smooth="yes"/>
      <point x="39" y="147"/>
      <point x="63" y="1"/>
      <point x="293" y="1" type="curve" smooth="yes"/>
      <point x="335" y="1"/>
      <point x="377" y="15"/>
      <point x="427" y="45" type="curve" smooth="yes"/>
      <point x="445" y="21"/>
      <point x="459" y="6"/>
      <point x="478" y="-21" type="curve" smooth="yes"/>
      <point x="494" y="-43"/>
      <point x="519" y="-49"/>
    </contour>
    <contour>
      <point x="290" y="54" type="curve" smooth="yes"/>
      <point x="177" y="54"/>
      <point x="92" y="125"/>
      <point x="92" y="187" type="curve" smooth="yes"/>
      <point x="92" y="271"/>
      <point x="141" y="293"/>
      <point x="208" y="337" type="curve"/>
      <point x="260" y="258"/>
      <point x="316" y="181"/>
      <point x="393" y="82" type="curve"/>
      <point x="347" y="57"/>
      <point x="322" y="54"/>
    </contour>
    <contour>
      <point x="176" y="554" type="curve" smooth="yes"/>
      <point x="176" y="593"/>
      <point x="224" y="641"/>
      <point x="259" y="641" type="curve" smooth="yes"/>
      <point x="309" y="641"/>
      <point x="355" y="580"/>
      <point x="355" y="549" type="curve" smooth="yes"/>
      <point x="355" y="500"/>
      <point x="300" y="455"/>
      <point x="230" y="409" type="curve"/>
      <point x="194" y="481"/>
      <point x="176" y="516"/>
    </contour>
  </outline>
</glyph>
<glyph name="quotesingle" format="1">
  <advance width="179"/>
  <unicode hex="0027"/>
  <outline>
    <contour>
      <point x="90" y="718" type="curve" smooth="yes"/>
      <point x="74" y="718"/>
      <point x="62" y="706"/>
      <point x="62" y="692" type="curve" smooth="yes"/>
      <point x="62" y="630"/>
      <point x="56" y="588"/>
      <point x="56" y="538" type="curve" smooth="yes"/>
      <point x="56" y="511"/>
      <point x="67" y="495"/>
      <point x="85" y="495" type="curve" smooth="yes"/>
      <point x="103" y="495"/>
      <point x="117" y="517"/>
      <point x="117" y="531" type="curve" smooth="yes"/>
      <point x="117" y="580"/>
      <point x="119" y="613"/>
      <point x="119" y="647" type="curve" smooth="yes"/>
      <point x="119" y="661"/>
      <point x="128" y="672"/>
      <point x="128" y="684" type="curve" smooth="yes"/>
      <point x="128" y="689"/>
      <point x="115" y="718"/>
    </contour>
  </outline>
</glyph>
<glyph name="parenleft" format="1">
  <advance width="440"/>
  <unicode hex="0028"/>
  <outline>
    <contour>
      <point x="309" y="736" type="curve" smooth="yes"/>
      <point x="300" y="736"/>
      <point x="276" y="729"/>
      <point x="257" y="701" type="curve" smooth="yes"/>
      <point x="156" y="549"/>
      <point x="64" y="384"/>
      <point x="64" y="196" type="curve" smooth="yes"/>
      <point x="64" y="-12"/>
      <point x="140" y="-141"/>
      <point x="264" y="-141" type="curve" smooth="yes"/>
      <point x="322" y="-141"/>
      <point x="362" y="-120"/>
      <point x="362" y="-109" type="curve" smooth="yes"/>
      <point x="362" y="-88"/>
      <point x="312" y="-102"/>
      <point x="300" y="-102" type="curve" smooth="yes"/>
      <point x="257" y="-102"/>
      <point x="120" y="-81"/>
      <point x="120" y="189" type="curve" smooth="yes"/>
      <point x="120" y="383"/>
      <point x="263" y="641"/>
      <point x="300" y="641" type="curve" smooth="yes"/>
      <point x="317" y="641"/>
      <point x="329" y="623"/>
      <point x="343" y="623" type="curve" smooth="yes"/>
      <point x="354" y="623"/>
      <point x="368" y="650"/>
      <point x="368" y="658" type="curve" smooth="yes"/>
      <point x="368" y="671"/>
      <point x="345" y="736"/>
    </contour>
  </outline>
</glyph>
<glyph name="parenright" format="1">
  <advance width="421"/>
  <unicode hex="0029"/>
  <outline>
    <contour>
      <point x="83" y="733" type="curve" smooth="yes"/>
      <point x="63" y="733"/>
      <point x="43" y="715"/>
      <point x="43" y="702" type="curve" smooth="yes"/>
      <point x="43" y="688"/>
      <point x="62" y="664"/>
      <point x="85" y="654" type="curve" smooth="yes"/>
      <point x="144" y="631"/>
      <point x="287" y="383"/>
      <point x="287" y="219" type="curve" smooth="yes"/>
      <point x="287" y="59"/>
      <point x="213" y="-26"/>
      <point x="101" y="-91" type="curve" smooth="yes"/>
      <point x="78" y="-104"/>
      <point x="84" y="-132"/>
      <point x="116" y="-132" type="curve" smooth="yes"/>
      <point x="147" y="-132"/>
      <point x="347" y="-26"/>
      <point x="347" y="236" type="curve" smooth="yes"/>
      <point x="347" y="379"/>
      <point x="248" y="581"/>
      <point x="156" y="676" type="curve"/>
      <point x="149" y="700"/>
      <point x="102" y="733"/>
    </contour>
  </outline>
</glyph>
<glyph name="asterisk" format="1">
  <advance width="423"/>
  <unicode hex="002A"/>
  <outline>
    <contour>
      <point x="367" y="483" type="curve" smooth="yes"/>
      <point x="367" y="517"/>
      <point x="322" y="521"/>
      <point x="263" y="549" type="curve" smooth="yes"/>
      <point x="253" y="554"/>
      <point x="245" y="559"/>
      <point x="241" y="562" type="curve"/>
      <point x="273" y="585"/>
      <point x="270" y="582"/>
      <point x="276" y="586" type="curve" smooth="yes"/>
      <point x="294" y="600"/>
      <point x="359" y="627"/>
      <point x="359" y="646" type="curve" smooth="yes"/>
      <point x="359" y="669"/>
      <point x="344" y="673"/>
      <point x="332" y="673" type="curve" smooth="yes"/>
      <point x="325" y="673"/>
      <point x="318" y="672"/>
      <point x="312" y="668" type="curve" smooth="yes"/>
      <point x="290" y="654"/>
      <point x="272" y="638"/>
      <point x="225" y="603" type="curve"/>
      <point x="220" y="666"/>
      <point x="235" y="670"/>
      <point x="235" y="704" type="curve" smooth="yes"/>
      <point x="235" y="711"/>
      <point x="220" y="733"/>
      <point x="202" y="733" type="curve" smooth="yes"/>
      <point x="196" y="733"/>
      <point x="174" y="733"/>
      <point x="174" y="685" type="curve" smooth="yes"/>
      <point x="174" y="675"/>
      <point x="177" y="650"/>
      <point x="183" y="597" type="curve"/>
      <point x="110" y="644"/>
      <point x="96" y="662"/>
      <point x="81" y="662" type="curve" smooth="yes"/>
      <point x="70" y="662"/>
      <point x="48" y="651"/>
      <point x="48" y="638" type="curve" smooth="yes"/>
      <point x="48" y="628"/>
      <point x="49" y="619"/>
      <point x="62" y="611" type="curve" smooth="yes"/>
      <point x="70" y="606"/>
      <point x="149" y="564"/>
      <point x="158" y="558" type="curve"/>
      <point x="155" y="556"/>
      <point x="152" y="554"/>
      <point x="144" y="549" type="curve" smooth="yes"/>
      <point x="121" y="535"/>
      <point x="54" y="512"/>
      <point x="54" y="483" type="curve" smooth="yes"/>
      <point x="54" y="468"/>
      <point x="63" y="454"/>
      <point x="75" y="454" type="curve" smooth="yes"/>
      <point x="103" y="454"/>
      <point x="157" y="505"/>
      <point x="181" y="521" type="curve"/>
      <point x="181" y="468"/>
      <point x="178" y="443"/>
      <point x="182" y="415" type="curve" smooth="yes"/>
      <point x="184" y="396"/>
      <point x="192" y="373"/>
      <point x="211" y="373" type="curve" smooth="yes"/>
      <point x="228" y="373"/>
      <point x="238" y="395"/>
      <point x="238" y="406" type="curve" smooth="yes"/>
      <point x="238" y="433"/>
      <point x="229" y="468"/>
      <point x="226" y="524" type="curve"/>
      <point x="238" y="515" type="line"/>
      <point x="286" y="481"/>
      <point x="315" y="454"/>
      <point x="340" y="454" type="curve" smooth="yes"/>
      <point x="353" y="454"/>
      <point x="367" y="459"/>
    </contour>
  </outline>
</glyph>
<glyph name="plus" format="1">
  <advance width="695"/>
  <unicode hex="002B"/>
  <outline>
    <contour>
      <point x="96" y="335" type="curve" smooth="yes"/>
      <point x="96" y="293"/>
      <point x="123" y="297"/>
      <point x="132" y="297" type="curve" smooth="yes"/>
      <point x="159" y="297"/>
      <point x="244" y="301"/>
      <point x="322" y="309" type="curve"/>
      <point x="311" y="221"/>
      <point x="301" y="146"/>
      <point x="301" y="107" type="curve" smooth="yes"/>
      <point x="301" y="77"/>
      <point x="320" y="51"/>
      <point x="339" y="51" type="curve" smooth="yes"/>
      <point x="355" y="51"/>
      <point x="367" y="69"/>
      <point x="367" y="82" type="curve" smooth="yes"/>
      <point x="367" y="102"/>
      <point x="366" y="109"/>
      <point x="366" y="117" type="curve" smooth="yes"/>
      <point x="366" y="151"/>
      <point x="374" y="228"/>
      <point x="383" y="314" type="curve"/>
      <point x="434" y="313"/>
      <point x="479" y="312"/>
      <point x="523" y="312" type="curve" smooth="yes"/>
      <point x="544" y="312"/>
      <point x="561" y="305"/>
      <point x="573" y="306" type="curve" smooth="yes"/>
      <point x="588" y="307"/>
      <point x="601" y="319"/>
      <point x="601" y="338" type="curve" smooth="yes"/>
      <point x="601" y="350"/>
      <point x="596" y="374"/>
      <point x="581" y="374" type="curve" smooth="yes"/>
      <point x="566" y="374"/>
      <point x="547" y="367"/>
      <point x="530" y="367" type="curve" smooth="yes"/>
      <point x="510" y="367"/>
      <point x="460" y="365"/>
      <point x="390" y="361" type="curve"/>
      <point x="396" y="422"/>
      <point x="409" y="480"/>
      <point x="409" y="535" type="curve" smooth="yes"/>
      <point x="409" y="567"/>
      <point x="399" y="594"/>
      <point x="378" y="594" type="curve" smooth="yes"/>
      <point x="362" y="594"/>
      <point x="338" y="574"/>
      <point x="338" y="544" type="curve" smooth="yes"/>
      <point x="338" y="509"/>
      <point x="339" y="481"/>
      <point x="339" y="454" type="curve" smooth="yes"/>
      <point x="339" y="433"/>
      <point x="336" y="399"/>
      <point x="330" y="358" type="curve"/>
      <point x="308" y="356"/>
      <point x="295" y="356"/>
      <point x="285" y="356" type="curve" smooth="yes"/>
      <point x="221" y="356"/>
      <point x="178" y="362"/>
      <point x="131" y="362" type="curve" smooth="yes"/>
      <point x="125" y="362"/>
      <point x="96" y="359"/>
    </contour>
  </outline>
</glyph>
<glyph name="comma" format="1">
  <advance width="188"/>
  <unicode hex="002C"/>
  <outline>
    <contour>
      <point x="53" y="6" type="curve" smooth="yes"/>
      <point x="46" y="-22"/>
      <point x="13" y="-98"/>
      <point x="13" y="-111" type="curve" smooth="yes"/>
      <point x="13" y="-128"/>
      <point x="25" y="-137"/>
      <point x="36" y="-137" type="curve" smooth="yes"/>
      <point x="43" y="-137"/>
      <point x="71" y="-131"/>
      <point x="78" y="-106" type="curve" smooth="yes"/>
      <point x="89" y="-68"/>
      <point x="96" y="-46"/>
      <point x="113" y="-13" type="curve" smooth="yes"/>
      <point x="124" y="8"/>
      <point x="144" y="31"/>
      <point x="144" y="54" type="curve" smooth="yes"/>
      <point x="144" y="84"/>
      <point x="138" y="103"/>
      <point x="94" y="103" type="curve" smooth="yes"/>
      <point x="62" y="103"/>
      <point x="57" y="27"/>
    </contour>
  </outline>
</glyph>
<glyph name="hyphen" format="1">
  <advance width="460"/>
  <unicode hex="002D"/>
  <outline>
    <contour>
      <point x="404" y="286" type="curve" smooth="yes"/>
      <point x="404" y="295"/>
      <point x="404" y="320"/>
      <point x="357" y="320" type="curve" smooth="yes"/>
      <point x="330" y="320"/>
      <point x="306" y="317"/>
      <point x="282" y="317" type="curve" smooth="yes"/>
      <point x="281" y="317"/>
      <point x="162" y="317"/>
      <point x="99" y="308" type="curve"/>
      <point x="69" y="307"/>
      <point x="58" y="295"/>
      <point x="58" y="274" type="curve" smooth="yes"/>
      <point x="58" y="252"/>
      <point x="79" y="245"/>
      <point x="90" y="245" type="curve" smooth="yes"/>
      <point x="120" y="245"/>
      <point x="113" y="259"/>
      <point x="303" y="259" type="curve" smooth="yes"/>
      <point x="330" y="259"/>
      <point x="353" y="248"/>
      <point x="377" y="248" type="curve" smooth="yes"/>
      <point x="384" y="248"/>
      <point x="404" y="263"/>
    </contour>
  </outline>
</glyph>
<glyph name="period" format="1">
  <advance width="201"/>
  <unicode hex="002E"/>
  <outline>
    <contour>
      <point x="106" y="98" type="curve" smooth="yes"/>
      <point x="91" y="98"/>
      <point x="58" y="96"/>
      <point x="58" y="76" type="curve" smooth="yes"/>
      <point x="58" y="55"/>
      <point x="45" y="43"/>
      <point x="45" y="23" type="curve" smooth="yes"/>
      <point x="45" y="13"/>
      <point x="50" y="-5"/>
      <point x="76" y="-5" type="curve" smooth="yes"/>
      <point x="97" y="-5"/>
      <point x="120" y="-1"/>
      <point x="128" y="10" type="curve" smooth="yes"/>
      <point x="139" y="26"/>
      <point x="158" y="34"/>
      <point x="158" y="48" type="curve" smooth="yes"/>
      <point x="158" y="86"/>
      <point x="121" y="98"/>
    </contour>
  </outline>
</glyph>
<glyph name="slash" format="1">
  <advance width="451"/>
  <unicode hex="002F"/>
  <outline>
    <contour>
      <point x="365" y="740" type="curve" smooth="yes"/>
      <point x="345" y="740"/>
      <point x="322" y="726"/>
      <point x="322" y="709" type="curve" smooth="yes"/>
      <point x="322" y="682"/>
      <point x="317" y="667"/>
      <point x="312" y="646" type="curve" smooth="yes"/>
      <point x="311" y="643"/>
      <point x="195" y="311"/>
      <point x="174" y="260" type="curve" smooth="yes"/>
      <point x="82" y="37"/>
      <point x="62" y="-11"/>
      <point x="19" y="-54" type="curve" smooth="yes"/>
      <point x="10" y="-63"/>
      <point x="8" y="-79"/>
      <point x="8" y="-97" type="curve" smooth="yes"/>
      <point x="8" y="-111"/>
      <point x="27" y="-125"/>
      <point x="49" y="-125" type="curve" smooth="yes"/>
      <point x="85" y="-125"/>
      <point x="145" y="31"/>
      <point x="161" y="72" type="curve" smooth="yes"/>
      <point x="210" y="191"/>
      <point x="363" y="602"/>
      <point x="370" y="622" type="curve" smooth="yes"/>
      <point x="380" y="652"/>
      <point x="405" y="669"/>
      <point x="405" y="695" type="curve" smooth="yes"/>
      <point x="405" y="723"/>
      <point x="380" y="740"/>
    </contour>
  </outline>
</glyph>
<glyph name="zero" format="1">
  <advance width="549"/>
  <unicode hex="0030"/>
  <outline>
    <contour>
      <point x="215" y="717" type="curve" smooth="yes"/>
      <point x="173" y="717"/>
      <point x="116" y="691"/>
      <point x="116" y="670" type="curve" smooth="yes"/>
      <point x="116" y="631"/>
      <point x="134" y="631"/>
      <point x="140" y="631" type="curve" smooth="yes"/>
      <point x="146" y="631"/>
      <point x="158" y="635"/>
      <point x="170" y="642" type="curve" smooth="yes"/>
      <point x="187" y="652"/>
      <point x="203" y="654"/>
      <point x="218" y="654" type="curve" smooth="yes"/>
      <point x="389" y="654"/>
      <point x="460" y="434"/>
      <point x="460" y="315" type="curve" smooth="yes"/>
      <point x="460" y="179"/>
      <point x="372" y="33"/>
      <point x="241" y="33" type="curve" smooth="yes"/>
      <point x="154" y="33"/>
      <point x="86" y="123"/>
      <point x="86" y="239" type="curve" smooth="yes"/>
      <point x="86" y="405"/>
      <point x="136" y="477"/>
      <point x="165" y="519" type="curve" smooth="yes"/>
      <point x="175" y="534"/>
      <point x="182" y="546"/>
      <point x="182" y="553" type="curve" smooth="yes"/>
      <point x="182" y="595"/>
      <point x="168" y="599"/>
      <point x="147" y="599" type="curve"/>
      <point x="125" y="599"/>
      <point x="35" y="501"/>
      <point x="35" y="259" type="curve" smooth="yes"/>
      <point x="35" y="122"/>
      <point x="110" y="-17"/>
      <point x="253" y="-17" type="curve" smooth="yes"/>
      <point x="438" y="-17"/>
      <point x="514" y="208"/>
      <point x="514" y="301" type="curve" smooth="yes"/>
      <point x="514" y="547"/>
      <point x="350" y="717"/>
    </contour>
  </outline>
</glyph>
<glyph name="one" format="1">
  <advance width="330"/>
  <unicode hex="0031"/>
  <outline>
    <contour>
      <point x="155" y="728" type="curve" smooth="yes"/>
      <point x="138" y="728"/>
      <point x="124" y="705"/>
      <point x="124" y="696" type="curve" smooth="yes"/>
      <point x="124" y="691"/>
      <point x="126" y="681"/>
      <point x="129" y="669" type="curve" smooth="yes"/>
      <point x="136" y="637"/>
      <point x="144" y="588"/>
      <point x="144" y="526" type="curve" smooth="yes"/>
      <point x="144" y="477"/>
      <point x="141" y="390"/>
      <point x="138" y="330" type="curve" smooth="yes"/>
      <point x="135" y="258"/>
      <point x="134" y="216"/>
      <point x="134" y="194" type="curve" smooth="yes"/>
      <point x="134" y="161"/>
      <point x="140" y="136"/>
      <point x="140" y="109" type="curve" smooth="yes"/>
      <point x="140" y="86"/>
      <point x="129" y="67"/>
      <point x="129" y="47" type="curve" smooth="yes"/>
      <point x="129" y="29"/>
      <point x="154" y="-6"/>
      <point x="172" y="-6" type="curve" smooth="yes"/>
      <point x="188" y="-6"/>
      <point x="218" y="6"/>
      <point x="218" y="20" type="curve" smooth="yes"/>
      <point x="218" y="75"/>
      <point x="189" y="116"/>
      <point x="189" y="165" type="curve" smooth="yes"/>
      <point x="189" y="187"/>
      <point x="195" y="329"/>
      <point x="201" y="458" type="curve" smooth="yes"/>
      <point x="207" y="567"/>
      <point x="212" y="654"/>
      <point x="211" y="666" type="curve" smooth="yes"/>
      <point x="209" y="701"/>
      <point x="179" y="728"/>
    </contour>
  </outline>
</glyph>
<glyph name="two" format="1">
  <advance width="540"/>
  <unicode hex="0032"/>
  <outline>
    <contour>
      <point x="265" y="728" type="curve" smooth="yes"/>
      <point x="170" y="728"/>
      <point x="96" y="703"/>
      <point x="96" y="672" type="curve" smooth="yes"/>
      <point x="96" y="646"/>
      <point x="108" y="612"/>
      <point x="125" y="612" type="curve" smooth="yes"/>
      <point x="152" y="612"/>
      <point x="160" y="653"/>
      <point x="184" y="665" type="curve" smooth="yes"/>
      <point x="205" y="675"/>
      <point x="254" y="679"/>
      <point x="280" y="679" type="curve" smooth="yes"/>
      <point x="319" y="679"/>
      <point x="396" y="633"/>
      <point x="396" y="528" type="curve" smooth="yes"/>
      <point x="396" y="393"/>
      <point x="230" y="243"/>
      <point x="118" y="148" type="curve" smooth="yes"/>
      <point x="93" y="126"/>
      <point x="72" y="107"/>
      <point x="44" y="83" type="curve" smooth="yes"/>
      <point x="34" y="75"/>
      <point x="11" y="67"/>
      <point x="11" y="57" type="curve" smooth="yes"/>
      <point x="11" y="31"/>
      <point x="21" y="-9"/>
      <point x="57" y="-9" type="curve" smooth="yes"/>
      <point x="158" y="-9"/>
      <point x="251" y="6"/>
      <point x="345" y="6" type="curve" smooth="yes"/>
      <point x="409" y="6"/>
      <point x="423" y="5"/>
      <point x="453" y="5" type="curve" smooth="yes"/>
      <point x="485" y="5"/>
      <point x="489" y="29"/>
      <point x="489" y="38" type="curve" smooth="yes"/>
      <point x="489" y="65"/>
      <point x="475" y="79"/>
      <point x="462" y="79" type="curve" smooth="yes"/>
      <point x="441" y="79"/>
      <point x="425" y="57"/>
      <point x="403" y="57" type="curve" smooth="yes"/>
      <point x="391" y="57"/>
      <point x="166" y="50"/>
      <point x="82" y="45" type="curve"/>
      <point x="139" y="105"/>
      <point x="177" y="141"/>
      <point x="231" y="188" type="curve" smooth="yes"/>
      <point x="332" y="276"/>
      <point x="457" y="393"/>
      <point x="457" y="535" type="curve" smooth="yes"/>
      <point x="457" y="654"/>
      <point x="384" y="728"/>
    </contour>
  </outline>
</glyph>
<glyph name="three" format="1">
  <advance width="554"/>
  <unicode hex="0033"/>
  <outline>
    <contour>
      <point x="244" y="717" type="curve" smooth="yes"/>
      <point x="163" y="717"/>
      <point x="67" y="708"/>
      <point x="67" y="664" type="curve" smooth="yes"/>
      <point x="67" y="629"/>
      <point x="91" y="609"/>
      <point x="103" y="609" type="curve" smooth="yes"/>
      <point x="127" y="609"/>
      <point x="142" y="651"/>
      <point x="150" y="658" type="curve" smooth="yes"/>
      <point x="166" y="670"/>
      <point x="227" y="674"/>
      <point x="242" y="674" type="curve" smooth="yes"/>
      <point x="361" y="674"/>
      <point x="379" y="617"/>
      <point x="379" y="584" type="curve" smooth="yes"/>
      <point x="379" y="445"/>
      <point x="219" y="381"/>
      <point x="141" y="371" type="curve" smooth="yes"/>
      <point x="124" y="369"/>
      <point x="120" y="356"/>
      <point x="120" y="351" type="curve" smooth="yes"/>
      <point x="120" y="337"/>
      <point x="145" y="304"/>
      <point x="155" y="304" type="curve" smooth="yes"/>
      <point x="166" y="304"/>
      <point x="172" y="310"/>
      <point x="181" y="314" type="curve" smooth="yes"/>
      <point x="201" y="324"/>
      <point x="227" y="337"/>
      <point x="279" y="337" type="curve" smooth="yes"/>
      <point x="345" y="337"/>
      <point x="463" y="264"/>
      <point x="463" y="178" type="curve" smooth="yes"/>
      <point x="463" y="95"/>
      <point x="365" y="27"/>
      <point x="246" y="27" type="curve" smooth="yes"/>
      <point x="200" y="27"/>
      <point x="134" y="34"/>
      <point x="109" y="44" type="curve"/>
      <point x="80" y="54"/>
      <point x="71" y="91"/>
      <point x="42" y="91" type="curve" smooth="yes"/>
      <point x="24" y="91"/>
      <point x="3" y="69"/>
      <point x="3" y="42" type="curve" smooth="yes"/>
      <point x="3" y="4"/>
      <point x="83" y="-15"/>
      <point x="240" y="-15" type="curve" smooth="yes"/>
      <point x="343" y="-15"/>
      <point x="517" y="25"/>
      <point x="517" y="174" type="curve" smooth="yes"/>
      <point x="517" y="271"/>
      <point x="432" y="350"/>
      <point x="306" y="385" type="curve"/>
      <point x="390" y="440"/>
      <point x="436" y="515"/>
      <point x="436" y="579" type="curve" smooth="yes"/>
      <point x="436" y="643"/>
      <point x="386" y="717"/>
    </contour>
  </outline>
</glyph>
<glyph name="four" format="1">
  <advance width="641"/>
  <unicode hex="0034"/>
  <outline>
    <contour>
      <point x="492" y="580" type="curve" smooth="yes"/>
      <point x="468" y="580"/>
      <point x="447" y="557"/>
      <point x="447" y="544" type="curve" smooth="yes"/>
      <point x="447" y="506"/>
      <point x="458" y="473"/>
      <point x="458" y="438" type="curve" smooth="yes"/>
      <point x="458" y="413"/>
      <point x="455" y="370"/>
      <point x="448" y="302" type="curve"/>
      <point x="351" y="300"/>
      <point x="238" y="296"/>
      <point x="109" y="293" type="curve"/>
      <point x="182" y="387"/>
      <point x="311" y="550"/>
      <point x="346" y="585" type="curve" smooth="yes"/>
      <point x="378" y="617"/>
      <point x="434" y="647"/>
      <point x="434" y="674" type="curve" smooth="yes"/>
      <point x="434" y="693"/>
      <point x="435" y="716"/>
      <point x="397" y="716" type="curve" smooth="yes"/>
      <point x="376" y="716"/>
      <point x="342" y="680"/>
      <point x="327" y="654" type="curve" smooth="yes"/>
      <point x="314" y="633"/>
      <point x="254" y="559"/>
      <point x="219" y="517" type="curve" smooth="yes"/>
      <point x="170" y="459"/>
      <point x="85" y="326"/>
      <point x="28" y="296" type="curve" smooth="yes"/>
      <point x="24" y="294"/>
      <point x="15" y="291"/>
      <point x="15" y="278" type="curve" smooth="yes"/>
      <point x="15" y="253"/>
      <point x="26" y="226"/>
      <point x="60" y="226" type="curve" smooth="yes"/>
      <point x="73" y="226"/>
      <point x="110" y="230"/>
      <point x="196" y="239" type="curve" smooth="yes"/>
      <point x="299" y="250"/>
      <point x="365" y="255"/>
      <point x="389" y="255" type="curve"/>
      <point x="443" y="255" type="line"/>
      <point x="428" y="132"/>
      <point x="419" y="52"/>
      <point x="419" y="24" type="curve" smooth="yes"/>
      <point x="419" y="2"/>
      <point x="433" y="-16"/>
      <point x="445" y="-16" type="curve" smooth="yes"/>
      <point x="468" y="-16"/>
      <point x="480" y="0"/>
      <point x="481" y="20" type="curve" smooth="yes"/>
      <point x="483" y="65"/>
      <point x="487" y="106"/>
      <point x="491" y="147" type="curve" smooth="yes"/>
      <point x="494" y="181"/>
      <point x="496" y="213"/>
      <point x="501" y="261" type="curve"/>
      <point x="536" y="263"/>
      <point x="563" y="264"/>
      <point x="594" y="264" type="curve" smooth="yes"/>
      <point x="610" y="264"/>
      <point x="615" y="286"/>
      <point x="615" y="298" type="curve" smooth="yes"/>
      <point x="615" y="308"/>
      <point x="598" y="319"/>
      <point x="588" y="319" type="curve" smooth="yes"/>
      <point x="568" y="319"/>
      <point x="540" y="313"/>
      <point x="505" y="307" type="curve"/>
      <point x="509" y="361"/>
      <point x="509" y="383"/>
      <point x="509" y="399" type="curve" smooth="yes"/>
      <point x="509" y="482"/>
      <point x="529" y="485"/>
      <point x="529" y="539" type="curve" smooth="yes"/>
      <point x="529" y="551"/>
      <point x="508" y="580"/>
    </contour>
  </outline>
</glyph>
<glyph name="five" format="1">
  <advance width="605"/>
  <unicode hex="0035"/>
  <outline>
    <contour>
      <point x="190" y="636" type="curve" smooth="yes"/>
      <point x="157" y="636"/>
      <point x="168" y="538"/>
      <point x="148" y="498" type="curve" smooth="yes"/>
      <point x="137" y="476"/>
      <point x="120" y="447"/>
      <point x="102" y="423" type="curve" smooth="yes"/>
      <point x="84" y="400"/>
      <point x="56" y="369"/>
      <point x="56" y="358" type="curve" smooth="yes"/>
      <point x="56" y="345"/>
      <point x="85" y="309"/>
      <point x="97" y="309" type="curve" smooth="yes"/>
      <point x="108" y="309"/>
      <point x="121" y="316"/>
      <point x="133" y="321" type="curve" smooth="yes"/>
      <point x="169" y="335"/>
      <point x="220" y="354"/>
      <point x="310" y="354" type="curve" smooth="yes"/>
      <point x="405" y="354"/>
      <point x="477" y="303"/>
      <point x="477" y="237" type="curve" smooth="yes"/>
      <point x="477" y="99"/>
      <point x="332" y="36"/>
      <point x="196" y="36" type="curve" smooth="yes"/>
      <point x="131" y="36"/>
      <point x="84" y="48"/>
      <point x="66" y="69" type="curve" smooth="yes"/>
      <point x="57" y="78"/>
      <point x="53" y="106"/>
      <point x="36" y="106" type="curve" smooth="yes"/>
      <point x="15" y="106"/>
      <point x="6" y="80"/>
      <point x="6" y="56" type="curve" smooth="yes"/>
      <point x="6" y="32"/>
      <point x="42" y="-14"/>
      <point x="205" y="-14" type="curve" smooth="yes"/>
      <point x="372" y="-14"/>
      <point x="537" y="105"/>
      <point x="537" y="225" type="curve" smooth="yes"/>
      <point x="537" y="376"/>
      <point x="392" y="398"/>
      <point x="282" y="398" type="curve" smooth="yes"/>
      <point x="244" y="398"/>
      <point x="200" y="391"/>
      <point x="122" y="362" type="curve"/>
      <point x="151" y="418"/>
      <point x="239" y="541"/>
      <point x="239" y="582" type="curve" smooth="yes"/>
      <point x="239" y="600"/>
      <point x="212" y="636"/>
    </contour>
    <contour>
      <point x="248" y="624" type="curve" smooth="yes"/>
      <point x="248" y="609"/>
      <point x="263" y="600"/>
      <point x="273" y="600" type="curve" smooth="yes"/>
      <point x="290" y="600"/>
      <point x="300" y="611"/>
      <point x="308" y="616" type="curve" smooth="yes"/>
      <point x="335" y="634"/>
      <point x="397" y="654"/>
      <point x="489" y="654" type="curve" smooth="yes"/>
      <point x="518" y="654"/>
      <point x="542" y="643"/>
      <point x="567" y="643" type="curve" smooth="yes"/>
      <point x="583" y="643"/>
      <point x="597" y="671"/>
      <point x="597" y="679" type="curve" smooth="yes"/>
      <point x="597" y="693"/>
      <point x="576" y="714"/>
      <point x="533" y="714" type="curve" smooth="yes"/>
      <point x="447" y="714"/>
      <point x="369" y="695"/>
      <point x="337" y="685" type="curve" smooth="yes"/>
      <point x="306" y="675"/>
      <point x="248" y="654"/>
    </contour>
  </outline>
</glyph>
<glyph name="six" format="1">
  <advance width="521"/>
  <unicode hex="0036"/>
  <outline>
    <contour>
      <point x="347" y="728" type="curve" smooth="yes"/>
      <point x="336" y="728"/>
      <point x="325" y="724"/>
      <point x="317" y="719" type="curve" smooth="yes"/>
      <point x="291" y="703"/>
      <point x="170" y="520"/>
      <point x="136" y="440" type="curve" smooth="yes"/>
      <point x="112" y="387"/>
      <point x="89" y="329"/>
      <point x="74" y="258" type="curve"/>
      <point x="46" y="235"/>
      <point x="36" y="221"/>
      <point x="36" y="195" type="curve" smooth="yes"/>
      <point x="36" y="186"/>
      <point x="47" y="166"/>
      <point x="67" y="158" type="curve"/>
      <point x="91" y="44"/>
      <point x="161" y="-12"/>
      <point x="268" y="-12" type="curve" smooth="yes"/>
      <point x="375" y="-12"/>
      <point x="484" y="33"/>
      <point x="484" y="118" type="curve" smooth="yes"/>
      <point x="484" y="250"/>
      <point x="344" y="306"/>
      <point x="269" y="306" type="curve" smooth="yes"/>
      <point x="253" y="306"/>
      <point x="188" y="307"/>
      <point x="132" y="288" type="curve"/>
      <point x="178" y="427"/>
      <point x="231" y="561"/>
      <point x="328" y="644" type="curve" smooth="yes"/>
      <point x="334" y="648"/>
      <point x="341" y="651"/>
      <point x="350" y="656" type="curve" smooth="yes"/>
      <point x="368" y="665"/>
      <point x="369" y="674"/>
      <point x="369" y="680" type="curve" smooth="yes"/>
      <point x="369" y="702"/>
      <point x="369" y="728"/>
    </contour>
    <contour>
      <point x="258" y="262" type="curve" smooth="yes"/>
      <point x="343" y="262"/>
      <point x="430" y="192"/>
      <point x="430" y="123" type="curve" smooth="yes"/>
      <point x="430" y="71"/>
      <point x="361" y="30"/>
      <point x="274" y="30" type="curve" smooth="yes"/>
      <point x="187" y="30"/>
      <point x="120" y="83"/>
      <point x="120" y="155" type="curve" smooth="yes"/>
      <point x="120" y="180"/>
      <point x="118" y="201"/>
      <point x="126" y="233" type="curve"/>
      <point x="162" y="252"/>
      <point x="206" y="262"/>
    </contour>
  </outline>
</glyph>
<glyph name="seven" format="1">
  <advance width="496"/>
  <unicode hex="0037"/>
  <outline>
    <contour>
      <point x="27" y="703" type="curve" smooth="yes"/>
      <point x="10" y="703"/>
      <point x="1" y="684"/>
      <point x="1" y="665" type="curve" smooth="yes"/>
      <point x="1" y="650"/>
      <point x="14" y="623"/>
      <point x="37" y="623" type="curve" smooth="yes"/>
      <point x="125" y="623"/>
      <point x="205" y="654"/>
      <point x="297" y="654" type="curve" smooth="yes"/>
      <point x="322" y="654"/>
      <point x="337" y="656"/>
      <point x="406" y="660" type="curve"/>
      <point x="329" y="513"/>
      <point x="221" y="107"/>
      <point x="219" y="54" type="curve" smooth="yes"/>
      <point x="218" y="28"/>
      <point x="233" y="-9"/>
      <point x="257" y="-9" type="curve" smooth="yes"/>
      <point x="284" y="-9"/>
      <point x="309" y="13"/>
      <point x="309" y="30" type="curve" smooth="yes"/>
      <point x="309" y="34"/>
      <point x="308" y="42"/>
      <point x="304" y="50" type="curve" smooth="yes"/>
      <point x="299" y="63"/>
      <point x="291" y="75"/>
      <point x="291" y="91" type="curve" smooth="yes"/>
      <point x="291" y="120"/>
      <point x="329" y="299"/>
      <point x="352" y="377" type="curve" smooth="yes"/>
      <point x="382" y="477"/>
      <point x="414" y="563"/>
      <point x="450" y="641" type="curve" smooth="yes"/>
      <point x="459" y="661"/>
      <point x="465" y="673"/>
      <point x="465" y="677" type="curve" smooth="yes"/>
      <point x="465" y="705"/>
      <point x="436" y="728"/>
      <point x="420" y="728" type="curve" smooth="yes"/>
      <point x="399" y="728"/>
      <point x="380" y="709"/>
      <point x="358" y="704" type="curve"/>
      <point x="322" y="698"/>
      <point x="119" y="685"/>
      <point x="98" y="685" type="curve" smooth="yes"/>
      <point x="71" y="685"/>
      <point x="51" y="703"/>
    </contour>
  </outline>
</glyph>
<glyph name="eight" format="1">
  <advance width="529"/>
  <unicode hex="0038"/>
  <outline>
    <contour>
      <point x="431" y="552" type="curve" smooth="yes"/>
      <point x="431" y="640"/>
      <point x="362" y="711"/>
      <point x="276" y="711" type="curve" smooth="yes"/>
      <point x="214" y="711"/>
      <point x="51" y="638"/>
      <point x="51" y="474" type="curve" smooth="yes"/>
      <point x="51" y="367"/>
      <point x="129" y="316"/>
      <point x="208" y="276" type="curve"/>
      <point x="139" y="187"/>
      <point x="113" y="130"/>
      <point x="113" y="79" type="curve" smooth="yes"/>
      <point x="113" y="14"/>
      <point x="163" y="-19"/>
      <point x="262" y="-19" type="curve" smooth="yes"/>
      <point x="399" y="-19"/>
      <point x="470" y="63"/>
      <point x="470" y="131" type="curve" smooth="yes"/>
      <point x="470" y="202"/>
      <point x="367" y="254"/>
      <point x="279" y="297" type="curve"/>
      <point x="304" y="332"/>
      <point x="387" y="431"/>
      <point x="423" y="444" type="curve" smooth="yes"/>
      <point x="438" y="450"/>
      <point x="445" y="456"/>
      <point x="445" y="464" type="curve" smooth="yes"/>
      <point x="445" y="473"/>
      <point x="438" y="485"/>
      <point x="421" y="502" type="curve"/>
      <point x="429" y="529"/>
      <point x="431" y="541"/>
    </contour>
    <contour>
      <point x="414" y="103" type="curve" smooth="yes"/>
      <point x="414" y="40"/>
      <point x="338" y="17"/>
      <point x="267" y="17" type="curve" smooth="yes"/>
      <point x="210" y="17"/>
      <point x="165" y="44"/>
      <point x="165" y="78" type="curve" smooth="yes"/>
      <point x="165" y="131"/>
      <point x="188" y="185"/>
      <point x="246" y="258" type="curve"/>
      <point x="362" y="205"/>
      <point x="414" y="171"/>
    </contour>
    <contour>
      <point x="241" y="317" type="curve"/>
      <point x="143" y="360"/>
      <point x="93" y="400"/>
      <point x="93" y="505" type="curve" smooth="yes"/>
      <point x="93" y="590"/>
      <point x="214" y="662"/>
      <point x="279" y="662" type="curve" smooth="yes"/>
      <point x="323" y="662"/>
      <point x="372" y="630"/>
      <point x="372" y="584" type="curve" smooth="yes"/>
      <point x="372" y="539"/>
      <point x="359" y="509"/>
      <point x="346" y="482" type="curve" smooth="yes"/>
      <point x="341" y="472"/>
      <point x="337" y="464"/>
      <point x="337" y="457" type="curve" smooth="yes"/>
      <point x="337" y="453"/>
      <point x="337" y="440"/>
      <point x="348" y="437" type="curve"/>
      <point x="307" y="393"/>
      <point x="276" y="360"/>
    </contour>
  </outline>
</glyph>
<glyph name="nine" format="1">
  <advance width="506"/>
  <unicode hex="0039"/>
  <outline>
    <contour>
      <point x="391" y="601" type="curve" smooth="yes"/>
      <point x="391" y="662"/>
      <point x="320" y="714"/>
      <point x="240" y="714" type="curve" smooth="yes"/>
      <point x="120" y="714"/>
      <point x="22" y="636"/>
      <point x="22" y="540" type="curve" smooth="yes"/>
      <point x="22" y="449"/>
      <point x="78" y="396"/>
      <point x="165" y="396" type="curve" smooth="yes"/>
      <point x="239" y="396"/>
      <point x="288" y="416"/>
      <point x="376" y="470" type="curve"/>
      <point x="360" y="346"/>
      <point x="345" y="261"/>
      <point x="337" y="176" type="curve" smooth="yes"/>
      <point x="332" y="128"/>
      <point x="317" y="82"/>
      <point x="292" y="40" type="curve" smooth="yes"/>
      <point x="289" y="35"/>
      <point x="287" y="31"/>
      <point x="287" y="29" type="curve" smooth="yes"/>
      <point x="287" y="7"/>
      <point x="310" y="-32"/>
      <point x="329" y="-32" type="curve" smooth="yes"/>
      <point x="348" y="-32"/>
      <point x="363" y="27"/>
      <point x="363" y="78" type="curve" smooth="yes"/>
      <point x="363" y="84"/>
      <point x="364" y="95"/>
      <point x="374" y="131" type="curve" smooth="yes"/>
      <point x="392" y="201"/>
      <point x="400" y="264"/>
      <point x="410" y="327" type="curve" smooth="yes"/>
      <point x="421" y="383"/>
      <point x="428" y="443"/>
      <point x="432" y="467" type="curve" smooth="yes"/>
      <point x="433" y="473"/>
      <point x="435" y="482"/>
      <point x="443" y="492" type="curve" smooth="yes"/>
      <point x="446" y="496"/>
      <point x="449" y="501"/>
      <point x="449" y="505" type="curve" smooth="yes"/>
      <point x="449" y="516"/>
      <point x="437" y="561"/>
      <point x="421" y="561" type="curve" smooth="yes"/>
      <point x="410" y="561"/>
      <point x="392" y="544"/>
      <point x="378" y="525" type="curve"/>
      <point x="392" y="552"/>
      <point x="391" y="582"/>
    </contour>
    <contour>
      <point x="183" y="441" type="curve" smooth="yes"/>
      <point x="113" y="441"/>
      <point x="67" y="477"/>
      <point x="67" y="529" type="curve" smooth="yes"/>
      <point x="67" y="622"/>
      <point x="154" y="664"/>
      <point x="235" y="664" type="curve" smooth="yes"/>
      <point x="286" y="664"/>
      <point x="326" y="633"/>
      <point x="326" y="610" type="curve" smooth="yes"/>
      <point x="326" y="584"/>
      <point x="308" y="564"/>
      <point x="308" y="540" type="curve" smooth="yes"/>
      <point x="308" y="512"/>
      <point x="323" y="502"/>
      <point x="345" y="499" type="curve"/>
      <point x="263" y="452"/>
      <point x="233" y="441"/>
    </contour>
  </outline>
</glyph>
<glyph name="colon" format="1">
  <advance width="222"/>
  <unicode hex="003A"/>
  <outline>
    <contour>
      <point x="107" y="110" type="curve" smooth="yes"/>
      <point x="94" y="110"/>
      <point x="71" y="92"/>
      <point x="61" y="77" type="curve" smooth="yes"/>
      <point x="58" y="73"/>
      <point x="54" y="46"/>
      <point x="54" y="37" type="curve" smooth="yes"/>
      <point x="54" y="20"/>
      <point x="84" y="-5"/>
      <point x="107" y="-5" type="curve" smooth="yes"/>
      <point x="134" y="-5"/>
      <point x="167" y="22"/>
      <point x="167" y="38" type="curve" smooth="yes"/>
      <point x="167" y="50"/>
      <point x="157" y="58"/>
      <point x="155" y="70" type="curve" smooth="yes"/>
      <point x="153" y="81"/>
      <point x="125" y="110"/>
    </contour>
    <contour>
      <point x="108" y="420" type="curve" smooth="yes"/>
      <point x="89" y="420"/>
      <point x="79" y="411"/>
      <point x="77" y="407" type="curve" smooth="yes"/>
      <point x="72" y="400"/>
      <point x="63" y="379"/>
      <point x="63" y="349" type="curve" smooth="yes"/>
      <point x="63" y="342"/>
      <point x="79" y="322"/>
      <point x="87" y="319" type="curve" smooth="yes"/>
      <point x="103" y="319"/>
      <point x="113" y="310"/>
      <point x="126" y="310" type="curve" smooth="yes"/>
      <point x="136" y="311"/>
      <point x="166" y="332"/>
      <point x="166" y="345" type="curve" smooth="yes"/>
      <point x="166" y="371"/>
      <point x="148" y="420"/>
    </contour>
  </outline>
</glyph>
<glyph name="semicolon" format="1">
  <advance width="214"/>
  <unicode hex="003B"/>
  <outline>
    <contour>
      <point x="121" y="105" type="curve" smooth="yes"/>
      <point x="79" y="105"/>
      <point x="75" y="77"/>
      <point x="73" y="69" type="curve" smooth="yes"/>
      <point x="67" y="39"/>
      <point x="63" y="11"/>
      <point x="57" y="-13" type="curve" smooth="yes"/>
      <point x="53" y="-31"/>
      <point x="54" y="-48"/>
      <point x="33" y="-93" type="curve" smooth="yes"/>
      <point x="27" y="-107"/>
      <point x="23" y="-109"/>
      <point x="23" y="-126" type="curve" smooth="yes"/>
      <point x="23" y="-129"/>
      <point x="23" y="-144"/>
      <point x="49" y="-144" type="curve" smooth="yes"/>
      <point x="73" y="-144"/>
      <point x="87" y="-112"/>
      <point x="111" y="-48" type="curve" smooth="yes"/>
      <point x="124" y="-14"/>
      <point x="156" y="37"/>
      <point x="156" y="67" type="curve" smooth="yes"/>
      <point x="156" y="81"/>
      <point x="145" y="105"/>
    </contour>
    <contour>
      <point x="95" y="428" type="curve" smooth="yes"/>
      <point x="79" y="428"/>
      <point x="55" y="397"/>
      <point x="55" y="380" type="curve" smooth="yes"/>
      <point x="55" y="344"/>
      <point x="59" y="314"/>
      <point x="117" y="314" type="curve" smooth="yes"/>
      <point x="139" y="314"/>
      <point x="158" y="340"/>
      <point x="158" y="352" type="curve" smooth="yes"/>
      <point x="158" y="370"/>
      <point x="153" y="396"/>
      <point x="142" y="398" type="curve" smooth="yes"/>
      <point x="121" y="402"/>
      <point x="115" y="428"/>
    </contour>
  </outline>
</glyph>
<glyph name="less" format="1">
  <advance width="695"/>
  <unicode hex="003C"/>
  <outline>
    <contour>
      <point x="566" y="587" type="curve" smooth="yes"/>
      <point x="559" y="587"/>
      <point x="531" y="575"/>
      <point x="523" y="565" type="curve" smooth="yes"/>
      <point x="505" y="542"/>
      <point x="142" y="374"/>
      <point x="126" y="374" type="curve" smooth="yes"/>
      <point x="89" y="374"/>
      <point x="71" y="361"/>
      <point x="71" y="324" type="curve" smooth="yes"/>
      <point x="71" y="283"/>
      <point x="136" y="287"/>
      <point x="165" y="274" type="curve" smooth="yes"/>
      <point x="182" y="266"/>
      <point x="455" y="96"/>
      <point x="507" y="63" type="curve" smooth="yes"/>
      <point x="529" y="49"/>
      <point x="551" y="40"/>
      <point x="566" y="40" type="curve" smooth="yes"/>
      <point x="594" y="40"/>
      <point x="594" y="74"/>
      <point x="594" y="75" type="curve" smooth="yes"/>
      <point x="592" y="98"/>
      <point x="477" y="156"/>
      <point x="451" y="172" type="curve" smooth="yes"/>
      <point x="388" y="211"/>
      <point x="264" y="277"/>
      <point x="178" y="332" type="curve"/>
      <point x="249" y="368"/>
      <point x="291" y="386"/>
      <point x="325" y="400" type="curve" smooth="yes"/>
      <point x="392" y="428"/>
      <point x="540" y="503"/>
      <point x="562" y="499" type="curve"/>
      <point x="584" y="500"/>
      <point x="594" y="538"/>
      <point x="594" y="553" type="curve" smooth="yes"/>
      <point x="594" y="572"/>
      <point x="577" y="587"/>
    </contour>
  </outline>
</glyph>
<glyph name="equal" format="1">
  <advance width="695"/>
  <unicode hex="003D"/>
  <outline>
    <contour>
      <point x="121" y="237" type="curve" smooth="yes"/>
      <point x="120" y="237"/>
      <point x="93" y="238"/>
      <point x="93" y="209" type="curve" smooth="yes"/>
      <point x="93" y="165"/>
      <point x="111" y="165"/>
      <point x="129" y="165" type="curve" smooth="yes"/>
      <point x="192" y="165"/>
      <point x="213" y="184"/>
      <point x="329" y="184" type="curve" smooth="yes"/>
      <point x="408" y="184"/>
      <point x="476" y="179"/>
      <point x="545" y="179" type="curve" smooth="yes"/>
      <point x="575" y="179"/>
      <point x="592" y="188"/>
      <point x="592" y="214" type="curve" smooth="yes"/>
      <point x="592" y="226"/>
      <point x="592" y="244"/>
      <point x="547" y="244" type="curve" smooth="yes"/>
      <point x="439" y="244"/>
      <point x="343" y="232"/>
      <point x="247" y="232" type="curve" smooth="yes"/>
      <point x="195" y="232"/>
      <point x="159" y="237"/>
    </contour>
    <contour>
      <point x="91" y="450" type="curve" smooth="yes"/>
      <point x="91" y="423"/>
      <point x="115" y="413"/>
      <point x="136" y="413" type="curve" smooth="yes"/>
      <point x="208" y="413"/>
      <point x="198" y="427"/>
      <point x="361" y="427" type="curve" smooth="yes"/>
      <point x="432" y="427"/>
      <point x="497" y="424"/>
      <point x="562" y="424" type="curve" smooth="yes"/>
      <point x="582" y="424"/>
      <point x="601" y="442"/>
      <point x="601" y="462" type="curve" smooth="yes"/>
      <point x="601" y="470"/>
      <point x="588" y="487"/>
      <point x="550" y="487" type="curve" smooth="yes"/>
      <point x="479" y="487"/>
      <point x="417" y="480"/>
      <point x="354" y="480" type="curve" smooth="yes"/>
      <point x="259" y="480"/>
      <point x="192" y="483"/>
      <point x="126" y="483" type="curve" smooth="yes"/>
      <point x="107" y="483"/>
      <point x="91" y="483"/>
    </contour>
  </outline>
</glyph>
<glyph name="greater" format="1">
  <advance width="695"/>
  <unicode hex="003E"/>
  <outline>
    <contour>
      <point x="159" y="584" type="curve" smooth="yes"/>
      <point x="137" y="584"/>
      <point x="119" y="560"/>
      <point x="119" y="548" type="curve" smooth="yes"/>
      <point x="119" y="531"/>
      <point x="136" y="506"/>
      <point x="156" y="498" type="curve" smooth="yes"/>
      <point x="239" y="463"/>
      <point x="440" y="372"/>
      <point x="535" y="319" type="curve"/>
      <point x="437" y="260"/>
      <point x="378" y="219"/>
      <point x="338" y="198" type="curve" smooth="yes"/>
      <point x="268" y="163"/>
      <point x="205" y="118"/>
      <point x="134" y="90" type="curve"/>
      <point x="86" y="70"/>
      <point x="89" y="16"/>
      <point x="135" y="16" type="curve" smooth="yes"/>
      <point x="170" y="16"/>
      <point x="209" y="59"/>
      <point x="387" y="167" type="curve" smooth="yes"/>
      <point x="448" y="204"/>
      <point x="573" y="288"/>
      <point x="603" y="288" type="curve" smooth="yes"/>
      <point x="618" y="288"/>
      <point x="622" y="293"/>
      <point x="622" y="320" type="curve" smooth="yes"/>
      <point x="622" y="339"/>
      <point x="611" y="363"/>
      <point x="601" y="365" type="curve"/>
      <point x="498" y="395"/>
      <point x="416" y="437"/>
      <point x="367" y="462" type="curve" smooth="yes"/>
      <point x="264" y="515"/>
      <point x="176" y="584"/>
    </contour>
  </outline>
</glyph>
<glyph name="question" format="1">
  <advance width="410"/>
  <unicode hex="003F"/>
  <outline>
    <contour>
      <point x="150" y="93" type="curve" smooth="yes"/>
      <point x="139" y="93"/>
      <point x="92" y="65"/>
      <point x="92" y="56" type="curve" smooth="yes"/>
      <point x="92" y="33"/>
      <point x="111" y="14"/>
      <point x="112" y="5" type="curve" smooth="yes"/>
      <point x="113" y="-2"/>
      <point x="124" y="-8"/>
      <point x="139" y="-8" type="curve" smooth="yes"/>
      <point x="167" y="-8"/>
      <point x="200" y="14"/>
      <point x="200" y="35" type="curve" smooth="yes"/>
      <point x="200" y="57"/>
      <point x="171" y="93"/>
    </contour>
    <contour>
      <point x="150" y="738" type="curve" smooth="yes"/>
      <point x="124" y="738"/>
      <point x="54" y="736"/>
      <point x="48" y="722" type="curve" smooth="yes"/>
      <point x="43" y="711"/>
      <point x="37" y="699"/>
      <point x="37" y="688" type="curve" smooth="yes"/>
      <point x="37" y="677"/>
      <point x="52" y="643"/>
      <point x="75" y="643" type="curve" smooth="yes"/>
      <point x="107" y="643"/>
      <point x="106" y="686"/>
      <point x="183" y="686" type="curve" smooth="yes"/>
      <point x="239" y="686"/>
      <point x="305" y="631"/>
      <point x="305" y="553" type="curve" smooth="yes"/>
      <point x="305" y="493"/>
      <point x="281" y="450"/>
      <point x="193" y="433" type="curve" smooth="yes"/>
      <point x="119" y="419"/>
      <point x="102" y="404"/>
      <point x="102" y="370" type="curve" smooth="yes"/>
      <point x="102" y="315"/>
      <point x="120" y="263"/>
      <point x="114" y="213" type="curve" smooth="yes"/>
      <point x="112" y="187"/>
      <point x="131" y="183"/>
      <point x="152" y="183" type="curve" smooth="yes"/>
      <point x="176" y="183"/>
      <point x="176" y="198"/>
      <point x="176" y="220" type="curve" smooth="yes"/>
      <point x="176" y="242"/>
      <point x="166" y="261"/>
      <point x="166" y="282" type="curve" smooth="yes"/>
      <point x="166" y="293"/>
      <point x="165" y="352"/>
      <point x="172" y="366" type="curve" smooth="yes"/>
      <point x="179" y="380"/>
      <point x="202" y="387"/>
      <point x="260" y="404" type="curve" smooth="yes"/>
      <point x="298" y="415"/>
      <point x="360" y="454"/>
      <point x="360" y="548" type="curve" smooth="yes"/>
      <point x="360" y="683"/>
      <point x="224" y="738"/>
    </contour>
  </outline>
</glyph>
<glyph name="at" format="1">
  <advance width="951"/>
  <unicode hex="0040"/>
  <outline>
    <contour>
      <point x="724" y="108" type="curve" smooth="yes"/>
      <point x="855" y="108"/>
      <point x="901" y="256"/>
      <point x="901" y="380" type="curve" smooth="yes"/>
      <point x="901" y="573"/>
      <point x="720" y="730"/>
      <point x="495" y="730" type="curve" smooth="yes"/>
      <point x="159" y="730"/>
      <point x="51" y="461"/>
      <point x="51" y="302" type="curve" smooth="yes"/>
      <point x="51" y="116"/>
      <point x="188" y="-73"/>
      <point x="446" y="-73" type="curve" smooth="yes"/>
      <point x="466" y="-73"/>
      <point x="510" y="-70"/>
      <point x="510" y="-41" type="curve" smooth="yes"/>
      <point x="510" y="7"/>
      <point x="428" y="-30"/>
      <point x="387" y="-22" type="curve" smooth="yes"/>
      <point x="169" y="22"/>
      <point x="113" y="186"/>
      <point x="113" y="308" type="curve" smooth="yes"/>
      <point x="113" y="433"/>
      <point x="205" y="678"/>
      <point x="480" y="678" type="curve" smooth="yes"/>
      <point x="692" y="678"/>
      <point x="847" y="545"/>
      <point x="847" y="363" type="curve" smooth="yes"/>
      <point x="847" y="260"/>
      <point x="811" y="155"/>
      <point x="730" y="155" type="curve" smooth="yes"/>
      <point x="649" y="155"/>
      <point x="658" y="255"/>
      <point x="658" y="308" type="curve" smooth="yes"/>
      <point x="658" y="357"/>
      <point x="682" y="401"/>
      <point x="682" y="440" type="curve" smooth="yes"/>
      <point x="682" y="451"/>
      <point x="676" y="464"/>
      <point x="661" y="464" type="curve" smooth="yes"/>
      <point x="654" y="464"/>
      <point x="646" y="459"/>
      <point x="641" y="453" type="curve"/>
      <point x="628" y="474"/>
      <point x="582" y="528"/>
      <point x="528" y="528" type="curve" smooth="yes"/>
      <point x="403" y="528"/>
      <point x="274" y="374"/>
      <point x="274" y="230" type="curve" smooth="yes"/>
      <point x="274" y="158"/>
      <point x="327" y="119"/>
      <point x="378" y="119" type="curve" smooth="yes"/>
      <point x="493" y="119"/>
      <point x="587" y="240"/>
      <point x="610" y="288" type="curve"/>
      <point x="606" y="178"/>
      <point x="640" y="108"/>
    </contour>
    <contour>
      <point x="526" y="486" type="curve" smooth="yes"/>
      <point x="564" y="486"/>
      <point x="598" y="443"/>
      <point x="598" y="418" type="curve" smooth="yes"/>
      <point x="598" y="325"/>
      <point x="494" y="168"/>
      <point x="387" y="168" type="curve" smooth="yes"/>
      <point x="347" y="168"/>
      <point x="330" y="202"/>
      <point x="330" y="230" type="curve" smooth="yes"/>
      <point x="330" y="319"/>
      <point x="412" y="486"/>
    </contour>
  </outline>
</glyph>
<glyph name="A" format="1">
  <advance width="588"/>
  <unicode hex="0041"/>
  <outline>
    <contour>
      <point x="260" y="771" type="move" name="top"/>
    </contour>
    <contour>
      <point x="283" y="721" type="curve" smooth="yes"/>
      <point x="276" y="721"/>
      <point x="264" y="719"/>
      <point x="251" y="707" type="curve"/>
      <point x="244" y="726"/>
      <point x="232" y="736"/>
      <point x="217" y="736" type="curve" smooth="yes"/>
      <point x="189" y="736"/>
      <point x="186" y="698"/>
      <point x="181" y="678" type="curve" smooth="yes"/>
      <point x="154" y="560"/>
      <point x="135" y="479"/>
      <point x="123" y="405" type="curve" smooth="yes"/>
      <point x="104" y="287"/>
      <point x="79" y="187"/>
      <point x="50" y="99" type="curve" smooth="yes"/>
      <point x="43" y="82"/>
      <point x="35" y="64"/>
      <point x="35" y="47" type="curve" smooth="yes"/>
      <point x="35" y="27"/>
      <point x="57" y="-17"/>
      <point x="77" y="-17" type="curve" smooth="yes"/>
      <point x="99" y="-17"/>
      <point x="122" y="16"/>
      <point x="122" y="35" type="curve" smooth="yes"/>
      <point x="122" y="47"/>
      <point x="123" y="94"/>
      <point x="140" y="201" type="curve"/>
      <point x="177" y="201"/>
      <point x="201" y="203"/>
      <point x="229" y="205" type="curve" smooth="yes"/>
      <point x="255" y="207"/>
      <point x="287" y="210"/>
      <point x="318" y="210" type="curve" smooth="yes"/>
      <point x="446" y="210" type="line"/>
      <point x="473" y="147"/>
      <point x="490" y="102"/>
      <point x="496" y="66" type="curve" smooth="yes"/>
      <point x="500" y="45"/>
      <point x="511" y="-4"/>
      <point x="549" y="-4" type="curve" smooth="yes"/>
      <point x="573" y="-4"/>
      <point x="586" y="19"/>
      <point x="586" y="41" type="curve" smooth="yes"/>
      <point x="586" y="56"/>
      <point x="573" y="76"/>
      <point x="558" y="98" type="curve" smooth="yes"/>
      <point x="551" y="108"/>
      <point x="547" y="114"/>
      <point x="543" y="124" type="curve" smooth="yes"/>
      <point x="527" y="167"/>
      <point x="457" y="317"/>
      <point x="434" y="366" type="curve" smooth="yes"/>
      <point x="408" y="421"/>
      <point x="352" y="595"/>
      <point x="345" y="617" type="curve" smooth="yes"/>
      <point x="339" y="636"/>
      <point x="339" y="656"/>
      <point x="334" y="675" type="curve" smooth="yes"/>
      <point x="332" y="683"/>
      <point x="316" y="721"/>
    </contour>
    <contour>
      <point x="163" y="340" type="curve" smooth="yes"/>
      <point x="182" y="436"/>
      <point x="207" y="533"/>
      <point x="229" y="619" type="curve" smooth="yes"/>
      <point x="234" y="637"/>
      <point x="237" y="652"/>
      <point x="241" y="666" type="curve"/>
      <point x="260" y="635"/>
      <point x="281" y="606"/>
      <point x="291" y="575" type="curve" smooth="yes"/>
      <point x="307" y="532"/>
      <point x="378" y="363"/>
      <point x="420" y="267" type="curve"/>
      <point x="358" y="258"/>
      <point x="319" y="260"/>
      <point x="281" y="260" type="curve" smooth="yes"/>
      <point x="265" y="260"/>
      <point x="234" y="260"/>
      <point x="148" y="261" type="curve"/>
      <point x="157" y="302"/>
      <point x="161" y="321"/>
    </contour>
  </outline>
</glyph>
<glyph name="B" format="1">
  <advance width="667"/>
  <unicode hex="0042"/>
  <outline>
    <contour>
      <point x="327" y="731" type="curve" smooth="yes"/>
      <point x="275" y="731"/>
      <point x="158" y="714"/>
      <point x="138" y="709" type="curve" smooth="yes"/>
      <point x="119" y="704"/>
      <point x="84" y="687"/>
      <point x="84" y="659" type="curve" smooth="yes"/>
      <point x="84" y="621"/>
      <point x="117" y="592"/>
      <point x="117" y="554" type="curve" smooth="yes"/>
      <point x="117" y="478"/>
      <point x="107" y="403"/>
      <point x="97" y="331" type="curve" smooth="yes"/>
      <point x="86" y="256"/>
      <point x="73" y="188"/>
      <point x="73" y="120" type="curve" smooth="yes"/>
      <point x="73" y="109"/>
      <point x="74" y="96"/>
      <point x="76" y="71" type="curve"/>
      <point x="56" y="69"/>
      <point x="44" y="54"/>
      <point x="44" y="36" type="curve" smooth="yes"/>
      <point x="44" y="18"/>
      <point x="55" y="-11"/>
      <point x="93" y="-11" type="curve" smooth="yes"/>
      <point x="141" y="-11"/>
      <point x="164" y="-8"/>
      <point x="191" y="-8" type="curve" smooth="yes"/>
      <point x="252" y="-8"/>
      <point x="306" y="-19"/>
      <point x="360" y="-19" type="curve" smooth="yes"/>
      <point x="483" y="-19"/>
      <point x="630" y="13"/>
      <point x="630" y="173" type="curve" smooth="yes"/>
      <point x="630" y="277"/>
      <point x="581" y="355"/>
      <point x="451" y="391" type="curve"/>
      <point x="537" y="422"/>
      <point x="577" y="482"/>
      <point x="577" y="551" type="curve" smooth="yes"/>
      <point x="577" y="674"/>
      <point x="498" y="731"/>
    </contour>
    <contour>
      <point x="172" y="385" type="curve" smooth="yes"/>
      <point x="172" y="354"/>
      <point x="187" y="341"/>
      <point x="201" y="341" type="curve" smooth="yes"/>
      <point x="257" y="341"/>
      <point x="245" y="360"/>
      <point x="325" y="360" type="curve" smooth="yes"/>
      <point x="478" y="360"/>
      <point x="570" y="290"/>
      <point x="570" y="176" type="curve" smooth="yes"/>
      <point x="570" y="79"/>
      <point x="493" y="27"/>
      <point x="351" y="27" type="curve" smooth="yes"/>
      <point x="249" y="27"/>
      <point x="188" y="39"/>
      <point x="135" y="54" type="curve"/>
      <point x="147" y="70"/>
      <point x="146" y="87"/>
      <point x="146" y="93" type="curve" smooth="yes"/>
      <point x="146" y="126"/>
      <point x="137" y="154"/>
      <point x="137" y="183" type="curve" smooth="yes"/>
      <point x="137" y="239"/>
      <point x="150" y="295"/>
      <point x="157" y="348" type="curve" smooth="yes"/>
      <point x="166" y="420"/>
      <point x="174" y="484"/>
      <point x="174" y="539" type="curve" smooth="yes"/>
      <point x="174" y="564"/>
      <point x="172" y="583"/>
      <point x="172" y="603" type="curve" smooth="yes"/>
      <point x="172" y="637"/>
      <point x="175" y="644"/>
      <point x="179" y="649" type="curve" smooth="yes"/>
      <point x="196" y="669"/>
      <point x="302" y="676"/>
      <point x="331" y="676" type="curve" smooth="yes"/>
      <point x="412" y="676"/>
      <point x="520" y="661"/>
      <point x="520" y="555" type="curve" smooth="yes"/>
      <point x="520" y="454"/>
      <point x="414" y="420"/>
      <point x="365" y="420" type="curve" smooth="yes"/>
      <point x="356" y="420"/>
      <point x="335" y="418"/>
      <point x="315" y="409" type="curve"/>
      <point x="297" y="410"/>
      <point x="284" y="410"/>
      <point x="252" y="410" type="curve" smooth="yes"/>
      <point x="183" y="410"/>
      <point x="172" y="404"/>
    </contour>
  </outline>
</glyph>
<glyph name="C" format="1">
  <advance width="533"/>
  <unicode hex="0043"/>
  <outline>
    <contour>
      <point x="340" y="766" type="move" name="top"/>
    </contour>
    <contour>
      <point x="352" y="731" type="curve" smooth="yes"/>
      <point x="143" y="731"/>
      <point x="40" y="539"/>
      <point x="40" y="350" type="curve" smooth="yes"/>
      <point x="40" y="99"/>
      <point x="144" y="-17"/>
      <point x="369" y="-17" type="curve" smooth="yes"/>
      <point x="449" y="-17"/>
      <point x="517" y="-3"/>
      <point x="517" y="24" type="curve" smooth="yes"/>
      <point x="517" y="51"/>
      <point x="500" y="62"/>
      <point x="469" y="62" type="curve" smooth="yes"/>
      <point x="436" y="62"/>
      <point x="383" y="36"/>
      <point x="338" y="36" type="curve" smooth="yes"/>
      <point x="133" y="36"/>
      <point x="106" y="201"/>
      <point x="106" y="352" type="curve" smooth="yes"/>
      <point x="106" y="509"/>
      <point x="181" y="676"/>
      <point x="322" y="676" type="curve" smooth="yes"/>
      <point x="372" y="676"/>
      <point x="402" y="639"/>
      <point x="430" y="639" type="curve" smooth="yes"/>
      <point x="456" y="639"/>
      <point x="469" y="665"/>
      <point x="469" y="674" type="curve" smooth="yes"/>
      <point x="469" y="726"/>
      <point x="426" y="731"/>
    </contour>
  </outline>
</glyph>
<glyph name="D" format="1">
  <advance width="600"/>
  <unicode hex="0044"/>
  <outline>
    <contour>
      <point x="252" y="739" type="move" name="top"/>
    </contour>
    <contour>
      <point x="59" y="686" type="curve" smooth="yes"/>
      <point x="59" y="672"/>
      <point x="61" y="631"/>
      <point x="66" y="572" type="curve" smooth="yes"/>
      <point x="76" y="457"/>
      <point x="88" y="287"/>
      <point x="91" y="159" type="curve"/>
      <point x="84" y="144"/>
      <point x="73" y="129"/>
      <point x="73" y="113" type="curve" smooth="yes"/>
      <point x="73" y="80"/>
      <point x="109" y="61"/>
      <point x="121" y="61" type="curve" smooth="yes"/>
      <point x="144" y="61"/>
      <point x="150" y="106"/>
      <point x="150" y="132" type="curve" smooth="yes"/>
      <point x="150" y="220"/>
      <point x="132" y="329"/>
      <point x="132" y="410" type="curve" smooth="yes"/>
      <point x="132" y="532"/>
      <point x="131" y="581"/>
      <point x="131" y="630" type="curve" smooth="yes"/>
      <point x="131" y="659"/>
      <point x="153" y="661"/>
      <point x="162" y="661" type="curve" smooth="yes"/>
      <point x="185" y="661"/>
      <point x="280" y="646"/>
      <point x="342" y="610" type="curve" smooth="yes"/>
      <point x="419" y="567"/>
      <point x="513" y="490"/>
      <point x="513" y="331" type="curve" smooth="yes"/>
      <point x="513" y="136"/>
      <point x="299" y="35"/>
      <point x="157" y="35" type="curve" smooth="yes"/>
      <point x="135" y="35"/>
      <point x="121" y="56"/>
      <point x="102" y="56" type="curve" smooth="yes"/>
      <point x="96" y="56"/>
      <point x="81" y="42"/>
      <point x="81" y="31" type="curve" smooth="yes"/>
      <point x="81" y="11"/>
      <point x="95" y="-18"/>
      <point x="117" y="-18" type="curve" smooth="yes"/>
      <point x="335" y="-18"/>
      <point x="569" y="109"/>
      <point x="569" y="316" type="curve" smooth="yes"/>
      <point x="569" y="487"/>
      <point x="481" y="618"/>
      <point x="327" y="676" type="curve" smooth="yes"/>
      <point x="245" y="707"/>
      <point x="152" y="731"/>
      <point x="97" y="731" type="curve" smooth="yes"/>
      <point x="78" y="731"/>
      <point x="59" y="726"/>
    </contour>
  </outline>
</glyph>
<glyph name="E" format="1">
  <advance width="487"/>
  <unicode hex="0045"/>
  <outline>
    <contour>
      <point x="283" y="752" type="move" name="top"/>
    </contour>
    <contour>
      <point x="373" y="390" type="curve" smooth="yes"/>
      <point x="341" y="390"/>
      <point x="305" y="386"/>
      <point x="271" y="381" type="curve" smooth="yes"/>
      <point x="240" y="377"/>
      <point x="209" y="372"/>
      <point x="182" y="371" type="curve" smooth="yes"/>
      <point x="169" y="370"/>
      <point x="154" y="368"/>
      <point x="144" y="355" type="curve"/>
      <point x="151" y="421"/>
      <point x="153" y="479"/>
      <point x="158" y="516" type="curve" smooth="yes"/>
      <point x="164" y="559"/>
      <point x="168" y="601"/>
      <point x="169" y="639" type="curve"/>
      <point x="178" y="639" type="line" smooth="yes"/>
      <point x="249" y="639"/>
      <point x="295" y="677"/>
      <point x="349" y="677" type="curve" smooth="yes"/>
      <point x="380" y="677"/>
      <point x="404" y="671"/>
      <point x="428" y="671" type="curve" smooth="yes"/>
      <point x="443" y="671"/>
      <point x="461" y="680"/>
      <point x="461" y="693" type="curve" smooth="yes"/>
      <point x="461" y="710"/>
      <point x="451" y="731"/>
      <point x="406" y="731" type="curve" smooth="yes"/>
      <point x="349" y="731"/>
      <point x="299" y="712"/>
      <point x="246" y="712" type="curve" smooth="yes"/>
      <point x="225" y="712"/>
      <point x="207" y="718"/>
      <point x="188" y="718" type="curve" smooth="yes"/>
      <point x="174" y="718"/>
      <point x="161" y="700"/>
      <point x="158" y="672" type="curve"/>
      <point x="149" y="676"/>
      <point x="135" y="676"/>
      <point x="134" y="676" type="curve" smooth="yes"/>
      <point x="113" y="676"/>
      <point x="86" y="647"/>
      <point x="86" y="624" type="curve" smooth="yes"/>
      <point x="86" y="599"/>
      <point x="104" y="580"/>
      <point x="104" y="556" type="curve" smooth="yes"/>
      <point x="104" y="538"/>
      <point x="100" y="483"/>
      <point x="94" y="423" type="curve" smooth="yes"/>
      <point x="87" y="344"/>
      <point x="78" y="265"/>
      <point x="69" y="196" type="curve" smooth="yes"/>
      <point x="57" y="104"/>
      <point x="54" y="74"/>
      <point x="54" y="64" type="curve" smooth="yes"/>
      <point x="54" y="41"/>
      <point x="83" y="-23"/>
      <point x="111" y="-23" type="curve" smooth="yes"/>
      <point x="133" y="-23"/>
      <point x="147" y="-20"/>
      <point x="165" y="-17" type="curve" smooth="yes"/>
      <point x="202" y="-11"/>
      <point x="252" y="-7"/>
      <point x="381" y="-7" type="curve" smooth="yes"/>
      <point x="393" y="-7"/>
      <point x="413" y="0"/>
      <point x="413" y="13" type="curve" smooth="yes"/>
      <point x="413" y="42"/>
      <point x="370" y="68"/>
      <point x="345" y="68" type="curve" smooth="yes"/>
      <point x="327" y="68"/>
      <point x="312" y="47"/>
      <point x="299" y="42" type="curve"/>
      <point x="272" y="39"/>
      <point x="244" y="37"/>
      <point x="220" y="37" type="curve" smooth="yes"/>
      <point x="220" y="37"/>
      <point x="160" y="36"/>
      <point x="141" y="44" type="curve" smooth="yes"/>
      <point x="131" y="48"/>
      <point x="118" y="65"/>
      <point x="118" y="98" type="curve" smooth="yes"/>
      <point x="118" y="125"/>
      <point x="127" y="205"/>
      <point x="134" y="267" type="curve" smooth="yes"/>
      <point x="135" y="276"/>
      <point x="136" y="300"/>
      <point x="138" y="313" type="curve"/>
      <point x="150" y="302"/>
      <point x="161" y="302"/>
      <point x="167" y="302" type="curve" smooth="yes"/>
      <point x="225" y="302"/>
      <point x="284" y="339"/>
      <point x="341" y="339" type="curve" smooth="yes"/>
      <point x="365" y="339"/>
      <point x="384" y="336"/>
      <point x="403" y="336" type="curve" smooth="yes"/>
      <point x="410" y="336"/>
      <point x="417" y="341"/>
      <point x="417" y="350" type="curve" smooth="yes"/>
      <point x="417" y="382"/>
      <point x="404" y="390"/>
    </contour>
  </outline>
</glyph>
<glyph name="F" format="1">
  <advance width="497"/>
  <unicode hex="0046"/>
  <outline>
    <contour>
      <point x="425" y="413" type="curve" smooth="yes"/>
      <point x="417" y="413"/>
      <point x="398" y="405"/>
      <point x="382" y="401" type="curve" smooth="yes"/>
      <point x="314" y="383"/>
      <point x="252" y="378"/>
      <point x="171" y="378" type="curve" smooth="yes"/>
      <point x="156" y="378" type="line"/>
      <point x="161" y="433"/>
      <point x="164" y="462"/>
      <point x="164" y="486" type="curve" smooth="yes"/>
      <point x="164" y="600"/>
      <point x="164" y="608"/>
      <point x="166" y="612" type="curve" smooth="yes"/>
      <point x="188" y="651"/>
      <point x="341" y="669"/>
      <point x="370" y="669" type="curve" smooth="yes"/>
      <point x="398" y="669"/>
      <point x="419" y="651"/>
      <point x="444" y="651" type="curve" smooth="yes"/>
      <point x="461" y="651"/>
      <point x="483" y="664"/>
      <point x="483" y="682" type="curve" smooth="yes"/>
      <point x="483" y="711"/>
      <point x="465" y="731"/>
      <point x="428" y="731" type="curve" smooth="yes"/>
      <point x="377" y="731"/>
      <point x="232" y="706"/>
      <point x="193" y="693" type="curve" smooth="yes"/>
      <point x="169" y="685"/>
      <point x="145" y="667"/>
      <point x="128" y="649" type="curve"/>
      <point x="111" y="645"/>
      <point x="90" y="636"/>
      <point x="90" y="586" type="curve" smooth="yes"/>
      <point x="90" y="528"/>
      <point x="102" y="478"/>
      <point x="102" y="426" type="curve" smooth="yes"/>
      <point x="102" y="420"/>
      <point x="102" y="406"/>
      <point x="99" y="381" type="curve"/>
      <point x="80" y="370"/>
      <point x="74" y="356"/>
      <point x="74" y="345" type="curve" smooth="yes"/>
      <point x="74" y="336"/>
      <point x="77" y="330"/>
      <point x="90" y="318" type="curve"/>
      <point x="87" y="280"/>
      <point x="81" y="254"/>
      <point x="79" y="227" type="curve" smooth="yes"/>
      <point x="76" y="190"/>
      <point x="58" y="77"/>
      <point x="58" y="56" type="curve" smooth="yes"/>
      <point x="58" y="23"/>
      <point x="76" y="-1"/>
      <point x="85" y="-1" type="curve" smooth="yes"/>
      <point x="107" y="-1"/>
      <point x="130" y="14"/>
      <point x="130" y="23" type="curve" smooth="yes"/>
      <point x="130" y="53"/>
      <point x="123" y="80"/>
      <point x="123" y="107" type="curve" smooth="yes"/>
      <point x="123" y="158"/>
      <point x="133" y="233"/>
      <point x="146" y="314" type="curve"/>
      <point x="170" y="317"/>
      <point x="183" y="321"/>
      <point x="198" y="326" type="curve" smooth="yes"/>
      <point x="226" y="336"/>
      <point x="290" y="339"/>
      <point x="415" y="339" type="curve" smooth="yes"/>
      <point x="439" y="339"/>
      <point x="457" y="354"/>
      <point x="457" y="367" type="curve" smooth="yes"/>
      <point x="457" y="382"/>
      <point x="446" y="413"/>
    </contour>
  </outline>
</glyph>
<glyph name="G" format="1">
  <advance width="641"/>
  <unicode hex="0047"/>
  <outline>
    <contour>
      <point x="385" y="766" type="move" name="top"/>
    </contour>
    <contour>
      <point x="431" y="731" type="curve" smooth="yes"/>
      <point x="278" y="731"/>
      <point x="39" y="465"/>
      <point x="39" y="293" type="curve" smooth="yes"/>
      <point x="39" y="84"/>
      <point x="174" y="-9"/>
      <point x="453" y="-9" type="curve" smooth="yes"/>
      <point x="494" y="-9"/>
      <point x="511" y="7"/>
      <point x="511" y="22" type="curve" smooth="yes"/>
      <point x="511" y="34"/>
      <point x="498" y="65"/>
      <point x="480" y="65" type="curve" smooth="yes"/>
      <point x="468" y="65"/>
      <point x="459" y="42"/>
      <point x="443" y="42" type="curve" smooth="yes"/>
      <point x="220" y="42"/>
      <point x="99" y="118"/>
      <point x="99" y="276" type="curve" smooth="yes"/>
      <point x="99" y="350"/>
      <point x="154" y="478"/>
      <point x="219" y="542" type="curve" smooth="yes"/>
      <point x="257" y="580"/>
      <point x="343" y="668"/>
      <point x="419" y="668" type="curve" smooth="yes"/>
      <point x="440" y="668"/>
      <point x="455" y="648"/>
      <point x="473" y="648" type="curve" smooth="yes"/>
      <point x="479" y="649"/>
      <point x="505" y="657"/>
      <point x="505" y="677" type="curve" smooth="yes"/>
      <point x="505" y="697"/>
      <point x="470" y="731"/>
    </contour>
    <contour>
      <point x="594" y="88" type="curve" smooth="yes"/>
      <point x="594" y="142"/>
      <point x="588" y="189"/>
      <point x="588" y="237" type="curve" smooth="yes"/>
      <point x="588" y="298"/>
      <point x="563" y="373"/>
      <point x="486" y="373" type="curve" smooth="yes"/>
      <point x="415" y="373"/>
      <point x="377" y="378"/>
      <point x="345" y="383" type="curve" smooth="yes"/>
      <point x="320" y="387"/>
      <point x="304" y="389"/>
      <point x="280" y="389" type="curve" smooth="yes"/>
      <point x="241" y="389"/>
      <point x="202" y="367"/>
      <point x="202" y="349" type="curve" smooth="yes"/>
      <point x="202" y="328"/>
      <point x="217" y="307"/>
      <point x="230" y="307" type="curve" smooth="yes"/>
      <point x="243" y="307"/>
      <point x="253" y="311"/>
      <point x="264" y="317" type="curve" smooth="yes"/>
      <point x="281" y="325"/>
      <point x="470" y="330"/>
      <point x="494" y="306" type="curve"/>
      <point x="517" y="284"/>
      <point x="537" y="265"/>
      <point x="537" y="177" type="curve" smooth="yes"/>
      <point x="537" y="133"/>
      <point x="524" y="93"/>
      <point x="524" y="52" type="curve" smooth="yes"/>
      <point x="524" y="29"/>
      <point x="540" y="10"/>
      <point x="572" y="10" type="curve" smooth="yes"/>
      <point x="592" y="10"/>
      <point x="594" y="49"/>
    </contour>
  </outline>
</glyph>
<glyph name="H" format="1">
  <advance width="634"/>
  <unicode hex="0048"/>
  <outline>
    <contour>
      <point x="293" y="764" type="move" name="top"/>
    </contour>
    <contour>
      <point x="478" y="735" type="curve" smooth="yes"/>
      <point x="457" y="735"/>
      <point x="445" y="725"/>
      <point x="445" y="704" type="curve" smooth="yes"/>
      <point x="445" y="689"/>
      <point x="452" y="673"/>
      <point x="457" y="665" type="curve" smooth="yes"/>
      <point x="481" y="626"/>
      <point x="494" y="563"/>
      <point x="494" y="429" type="curve" smooth="yes"/>
      <point x="494" y="413"/>
      <point x="494" y="393"/>
      <point x="493" y="356" type="curve"/>
      <point x="429" y="355"/>
      <point x="373" y="349"/>
      <point x="316" y="349" type="curve" smooth="yes"/>
      <point x="251" y="349"/>
      <point x="205" y="347"/>
      <point x="142" y="350" type="curve"/>
      <point x="144" y="443"/>
      <point x="147" y="548"/>
      <point x="152" y="585" type="curve" smooth="yes"/>
      <point x="154" y="607"/>
      <point x="164" y="622"/>
      <point x="164" y="638" type="curve" smooth="yes"/>
      <point x="164" y="650"/>
      <point x="146" y="711"/>
      <point x="113" y="711" type="curve" smooth="yes"/>
      <point x="102" y="711"/>
      <point x="73" y="682"/>
      <point x="72" y="672" type="curve" smooth="yes"/>
      <point x="72" y="668"/>
      <point x="73" y="648"/>
      <point x="77" y="623" type="curve"/>
      <point x="82" y="575"/>
      <point x="88" y="515"/>
      <point x="88" y="487" type="curve" smooth="yes"/>
      <point x="88" y="467"/>
      <point x="88" y="413"/>
      <point x="85" y="341" type="curve"/>
      <point x="73" y="336"/>
      <point x="64" y="322"/>
      <point x="64" y="309" type="curve" smooth="yes"/>
      <point x="64" y="301"/>
      <point x="73" y="291"/>
      <point x="83" y="290" type="curve"/>
      <point x="81" y="232"/>
      <point x="87" y="169"/>
      <point x="75" y="112" type="curve"/>
      <point x="70" y="97"/>
      <point x="53" y="79"/>
      <point x="53" y="65" type="curve" smooth="yes"/>
      <point x="53" y="53"/>
      <point x="77" y="15"/>
      <point x="94" y="15" type="curve" smooth="yes"/>
      <point x="122" y="15"/>
      <point x="139" y="57"/>
      <point x="139" y="89" type="curve" smooth="yes"/>
      <point x="139" y="102"/>
      <point x="139" y="146"/>
      <point x="141" y="292" type="curve"/>
      <point x="203" y="296"/>
      <point x="259" y="300"/>
      <point x="316" y="300" type="curve" smooth="yes"/>
      <point x="393" y="300"/>
      <point x="435" y="298"/>
      <point x="493" y="298" type="curve"/>
      <point x="491" y="211"/>
      <point x="490" y="131"/>
      <point x="490" y="47" type="curve" smooth="yes"/>
      <point x="490" y="19"/>
      <point x="507" y="-1"/>
      <point x="530" y="-1" type="curve" smooth="yes"/>
      <point x="540" y="-1"/>
      <point x="557" y="-1"/>
      <point x="557" y="52" type="curve" smooth="yes"/>
      <point x="557" y="61"/>
      <point x="555" y="153"/>
      <point x="555" y="222" type="curve" smooth="yes"/>
      <point x="555" y="274"/>
      <point x="554" y="287"/>
      <point x="554" y="306" type="curve"/>
      <point x="561" y="314"/>
      <point x="563" y="319"/>
      <point x="563" y="328" type="curve" smooth="yes"/>
      <point x="563" y="336"/>
      <point x="561" y="343"/>
      <point x="553" y="352" type="curve"/>
      <point x="553" y="508" type="line" smooth="yes"/>
      <point x="553" y="656"/>
      <point x="515" y="735"/>
    </contour>
  </outline>
</glyph>
<glyph name="I" format="1">
  <advance width="241"/>
  <unicode hex="0049"/>
  <outline>
    <contour>
      <point x="81" y="767" type="move" name="top"/>
    </contour>
    <contour>
      <point x="85" y="731" type="curve" smooth="yes"/>
      <point x="70" y="731"/>
      <point x="57" y="709"/>
      <point x="57" y="694" type="curve" smooth="yes"/>
      <point x="57" y="675"/>
      <point x="65" y="640"/>
      <point x="71" y="602" type="curve" smooth="yes"/>
      <point x="88" y="503"/>
      <point x="98" y="371"/>
      <point x="98" y="235" type="curve" smooth="yes"/>
      <point x="98" y="150"/>
      <point x="97" y="90"/>
      <point x="88" y="63" type="curve" smooth="yes"/>
      <point x="85" y="56"/>
      <point x="85" y="51"/>
      <point x="85" y="42" type="curve" smooth="yes"/>
      <point x="85" y="29"/>
      <point x="105" y="-8"/>
      <point x="131" y="-8" type="curve" smooth="yes"/>
      <point x="151" y="-8"/>
      <point x="161" y="32"/>
      <point x="161" y="59" type="curve" smooth="yes"/>
      <point x="161" y="79"/>
      <point x="156" y="193"/>
      <point x="151" y="287" type="curve" smooth="yes"/>
      <point x="149" y="345"/>
      <point x="149" y="366"/>
      <point x="148" y="382" type="curve" smooth="yes"/>
      <point x="144" y="516"/>
      <point x="138" y="614"/>
      <point x="129" y="696" type="curve" smooth="yes"/>
      <point x="127" y="714"/>
      <point x="103" y="731"/>
    </contour>
  </outline>
</glyph>
<glyph name="J" format="1">
  <advance width="609"/>
  <unicode hex="004A"/>
  <outline>
    <contour>
      <point x="361" y="752" type="move" name="top"/>
    </contour>
    <contour>
      <point x="121" y="726" type="curve" smooth="yes"/>
      <point x="106" y="726"/>
      <point x="96" y="707"/>
      <point x="96" y="688" type="curve" smooth="yes"/>
      <point x="96" y="672"/>
      <point x="122" y="651"/>
      <point x="142" y="651" type="curve" smooth="yes"/>
      <point x="157" y="651"/>
      <point x="170" y="655"/>
      <point x="185" y="660" type="curve" smooth="yes"/>
      <point x="234" y="676"/>
      <point x="284" y="674"/>
      <point x="330" y="671" type="curve"/>
      <point x="334" y="648"/>
      <point x="340" y="626"/>
      <point x="341" y="620" type="curve"/>
      <point x="367" y="482"/>
      <point x="367" y="282"/>
      <point x="367" y="204" type="curve" smooth="yes"/>
      <point x="367" y="102"/>
      <point x="338" y="14"/>
      <point x="237" y="14" type="curve" smooth="yes"/>
      <point x="195" y="14"/>
      <point x="147" y="30"/>
      <point x="80" y="63" type="curve" smooth="yes"/>
      <point x="64" y="70"/>
      <point x="50" y="89"/>
      <point x="32" y="89" type="curve" smooth="yes"/>
      <point x="17" y="89"/>
      <point x="10" y="61"/>
      <point x="10" y="42" type="curve" smooth="yes"/>
      <point x="10" y="30"/>
      <point x="19" y="-3"/>
      <point x="51" y="-3" type="curve" smooth="yes"/>
      <point x="120" y="-3"/>
      <point x="182" y="-33"/>
      <point x="248" y="-33" type="curve" smooth="yes"/>
      <point x="288" y="-33"/>
      <point x="332" y="-20"/>
      <point x="351" y="-4" type="curve" smooth="yes"/>
      <point x="412" y="45"/>
      <point x="427" y="72"/>
      <point x="427" y="163" type="curve" smooth="yes"/>
      <point x="427" y="173"/>
      <point x="425" y="202"/>
      <point x="422" y="252" type="curve" smooth="yes"/>
      <point x="420" y="292"/>
      <point x="410" y="442"/>
      <point x="410" y="545" type="curve" smooth="yes"/>
      <point x="410" y="583"/>
      <point x="412" y="610"/>
      <point x="415" y="625" type="curve" smooth="yes"/>
      <point x="417" y="638"/>
      <point x="417" y="646"/>
      <point x="415" y="671" type="curve"/>
      <point x="451" y="670"/>
      <point x="466" y="668"/>
      <point x="481" y="668" type="curve" smooth="yes"/>
      <point x="525" y="668"/>
      <point x="553" y="665"/>
      <point x="588" y="665" type="curve" smooth="yes"/>
      <point x="603" y="665"/>
      <point x="605" y="682"/>
      <point x="605" y="689" type="curve" smooth="yes"/>
      <point x="605" y="702"/>
      <point x="591" y="724"/>
      <point x="556" y="724" type="curve" smooth="yes"/>
      <point x="494" y="724"/>
      <point x="439" y="716"/>
      <point x="384" y="716" type="curve" smooth="yes"/>
      <point x="330" y="716"/>
      <point x="286" y="718"/>
      <point x="237" y="722" type="curve"/>
      <point x="192" y="723"/>
      <point x="156" y="726"/>
    </contour>
  </outline>
</glyph>
<glyph name="K" format="1">
  <advance width="547"/>
  <unicode hex="004B"/>
  <outline>
    <contour>
      <point x="472" y="731" type="curve" smooth="yes"/>
      <point x="440" y="731"/>
      <point x="428" y="684"/>
      <point x="414" y="666" type="curve"/>
      <point x="376" y="611"/>
      <point x="308" y="554"/>
      <point x="233" y="489" type="curve" smooth="yes"/>
      <point x="218" y="476"/>
      <point x="194" y="454"/>
      <point x="161" y="418" type="curve"/>
      <point x="156" y="697"/>
      <point x="123" y="731"/>
      <point x="113" y="731" type="curve" smooth="yes"/>
      <point x="109" y="731"/>
      <point x="110" y="731"/>
      <point x="102" y="726" type="curve" smooth="yes"/>
      <point x="98" y="723"/>
      <point x="94" y="725"/>
      <point x="80" y="719" type="curve" smooth="yes"/>
      <point x="75" y="717"/>
      <point x="63" y="698"/>
      <point x="63" y="685" type="curve" smooth="yes"/>
      <point x="63" y="677"/>
      <point x="67" y="667"/>
      <point x="70" y="656" type="curve" smooth="yes"/>
      <point x="80" y="626"/>
      <point x="107" y="548"/>
      <point x="107" y="370" type="curve"/>
      <point x="94" y="350"/>
      <point x="85" y="338"/>
      <point x="85" y="316" type="curve" smooth="yes"/>
      <point x="85" y="304"/>
      <point x="87" y="294"/>
      <point x="100" y="276" type="curve"/>
      <point x="94" y="219"/>
      <point x="86" y="169"/>
      <point x="76" y="103" type="curve" smooth="yes"/>
      <point x="71" y="71"/>
      <point x="68" y="46"/>
      <point x="68" y="39" type="curve" smooth="yes"/>
      <point x="68" y="15"/>
      <point x="78" y="-6"/>
      <point x="94" y="-6" type="curve" smooth="yes"/>
      <point x="112" y="-6"/>
      <point x="140" y="-1"/>
      <point x="140" y="24" type="curve" smooth="yes"/>
      <point x="140" y="46"/>
      <point x="135" y="61"/>
      <point x="135" y="77" type="curve" smooth="yes"/>
      <point x="135" y="126"/>
      <point x="151" y="200"/>
      <point x="151" y="258" type="curve"/>
      <point x="211" y="245"/>
      <point x="294" y="179"/>
      <point x="327" y="160" type="curve" smooth="yes"/>
      <point x="356" y="143"/>
      <point x="431" y="80"/>
      <point x="451" y="56" type="curve" smooth="yes"/>
      <point x="483" y="16"/>
      <point x="506" y="-3"/>
      <point x="516" y="-3" type="curve" smooth="yes"/>
      <point x="528" y="-3"/>
      <point x="555" y="16"/>
      <point x="555" y="32" type="curve" smooth="yes"/>
      <point x="555" y="53"/>
      <point x="546" y="60"/>
      <point x="517" y="79" type="curve" smooth="yes"/>
      <point x="495" y="90"/>
      <point x="479" y="109"/>
      <point x="462" y="123" type="curve" smooth="yes"/>
      <point x="361" y="203"/>
      <point x="281" y="273"/>
      <point x="156" y="326" type="curve"/>
      <point x="215" y="394"/>
      <point x="327" y="520"/>
      <point x="473" y="629" type="curve"/>
      <point x="487" y="639"/>
      <point x="507" y="652"/>
      <point x="507" y="666" type="curve" smooth="yes"/>
      <point x="507" y="682"/>
      <point x="502" y="731"/>
    </contour>
  </outline>
</glyph>
<glyph name="L" format="1">
  <advance width="493"/>
  <unicode hex="004C"/>
  <outline>
    <contour>
      <point x="160" y="766" type="move" name="top"/>
    </contour>
    <contour>
      <point x="142" y="731" type="curve" smooth="yes"/>
      <point x="126" y="731"/>
      <point x="112" y="708"/>
      <point x="112" y="685" type="curve" smooth="yes"/>
      <point x="112" y="653"/>
      <point x="120" y="625"/>
      <point x="120" y="596" type="curve" smooth="yes"/>
      <point x="120" y="548"/>
      <point x="108" y="457"/>
      <point x="90" y="341" type="curve" smooth="yes"/>
      <point x="73" y="225"/>
      <point x="55" y="114"/>
      <point x="55" y="53" type="curve" smooth="yes"/>
      <point x="55" y="3"/>
      <point x="86" y="-16"/>
      <point x="94" y="-16" type="curve" smooth="yes"/>
      <point x="107" y="-16"/>
      <point x="115" y="-15"/>
      <point x="130" y="-12" type="curve" smooth="yes"/>
      <point x="156" y="-7"/>
      <point x="206" y="1"/>
      <point x="383" y="1" type="curve" smooth="yes"/>
      <point x="406" y="1"/>
      <point x="425" y="-12"/>
      <point x="445" y="-12" type="curve" smooth="yes"/>
      <point x="464" y="-12"/>
      <point x="487" y="0"/>
      <point x="487" y="13" type="curve" smooth="yes"/>
      <point x="487" y="38"/>
      <point x="468" y="58"/>
      <point x="443" y="58" type="curve" smooth="yes"/>
      <point x="398" y="58"/>
      <point x="359" y="48"/>
      <point x="320" y="48" type="curve" smooth="yes"/>
      <point x="263" y="48"/>
      <point x="211" y="52"/>
      <point x="161" y="52" type="curve" smooth="yes"/>
      <point x="140" y="52"/>
      <point x="118" y="67"/>
      <point x="118" y="98" type="curve" smooth="yes"/>
      <point x="118" y="184"/>
      <point x="138" y="299"/>
      <point x="159" y="408" type="curve" smooth="yes"/>
      <point x="178" y="506"/>
      <point x="196" y="597"/>
      <point x="196" y="664" type="curve" smooth="yes"/>
      <point x="196" y="693"/>
      <point x="178" y="731"/>
    </contour>
  </outline>
</glyph>
<glyph name="M" format="1">
  <advance width="906"/>
  <unicode hex="004D"/>
  <outline>
    <contour>
      <point x="126" y="721" type="curve" smooth="yes"/>
      <point x="114" y="721"/>
      <point x="82" y="679"/>
      <point x="82" y="659" type="curve" smooth="yes"/>
      <point x="82" y="650"/>
      <point x="84" y="634"/>
      <point x="86" y="618" type="curve" smooth="yes"/>
      <point x="91" y="581"/>
      <point x="89" y="522"/>
      <point x="89" y="337" type="curve" smooth="yes"/>
      <point x="89" y="279"/>
      <point x="85" y="209"/>
      <point x="80" y="144" type="curve"/>
      <point x="79" y="112"/>
      <point x="76" y="79"/>
      <point x="76" y="36" type="curve" smooth="yes"/>
      <point x="76" y="24"/>
      <point x="95" y="0"/>
      <point x="123" y="0" type="curve" smooth="yes"/>
      <point x="129" y="0"/>
      <point x="150" y="0"/>
      <point x="150" y="52" type="curve" smooth="yes"/>
      <point x="150" y="103"/>
      <point x="141" y="148"/>
      <point x="141" y="193" type="curve" smooth="yes"/>
      <point x="141" y="296"/>
      <point x="144" y="383"/>
      <point x="149" y="470" type="curve" smooth="yes"/>
      <point x="150" y="513"/>
      <point x="149" y="546"/>
      <point x="152" y="648" type="curve"/>
      <point x="227" y="563"/>
      <point x="275" y="484"/>
      <point x="315" y="414" type="curve" smooth="yes"/>
      <point x="405" y="255"/>
      <point x="439" y="207"/>
      <point x="462" y="207" type="curve" smooth="yes"/>
      <point x="511" y="207"/>
      <point x="525" y="271"/>
      <point x="544" y="305" type="curve" smooth="yes"/>
      <point x="595" y="396"/>
      <point x="645" y="492"/>
      <point x="731" y="650" type="curve"/>
      <point x="749" y="503"/>
      <point x="768" y="387"/>
      <point x="768" y="282" type="curve" smooth="yes"/>
      <point x="768" y="168"/>
      <point x="766" y="115"/>
      <point x="766" y="24" type="curve" smooth="yes"/>
      <point x="766" y="15"/>
      <point x="776" y="-16"/>
      <point x="807" y="-16" type="curve" smooth="yes"/>
      <point x="823" y="-16"/>
      <point x="835" y="7"/>
      <point x="835" y="26" type="curve" smooth="yes"/>
      <point x="835" y="348"/>
      <point x="798" y="503"/>
      <point x="798" y="612" type="curve" smooth="yes"/>
      <point x="798" y="630"/>
      <point x="797" y="656"/>
      <point x="800" y="682" type="curve"/>
      <point x="798" y="705"/>
      <point x="761" y="731"/>
      <point x="733" y="731" type="curve" smooth="yes"/>
      <point x="711" y="731"/>
      <point x="686" y="692"/>
      <point x="673" y="665" type="curve" smooth="yes"/>
      <point x="626" y="564"/>
      <point x="555" y="434"/>
      <point x="465" y="288" type="curve"/>
      <point x="388" y="398"/>
      <point x="336" y="483"/>
      <point x="292" y="557" type="curve"/>
      <point x="242" y="639"/>
      <point x="201" y="721"/>
    </contour>
  </outline>
</glyph>
<glyph name="N" format="1">
  <advance width="733"/>
  <unicode hex="004E"/>
  <outline>
    <contour>
      <point x="349" y="762" type="move" name="top"/>
    </contour>
    <contour>
      <point x="174" y="723" type="curve" smooth="yes"/>
      <point x="147" y="723"/>
      <point x="110" y="694"/>
      <point x="110" y="663" type="curve" smooth="yes"/>
      <point x="110" y="500"/>
      <point x="95" y="377"/>
      <point x="84" y="239" type="curve" smooth="yes"/>
      <point x="78" y="169"/>
      <point x="65" y="109"/>
      <point x="65" y="49" type="curve" smooth="yes"/>
      <point x="65" y="18"/>
      <point x="90" y="-4"/>
      <point x="112" y="-4" type="curve" smooth="yes"/>
      <point x="133" y="-4"/>
      <point x="148" y="27"/>
      <point x="148" y="49" type="curve" smooth="yes"/>
      <point x="148" y="73"/>
      <point x="141" y="91"/>
      <point x="141" y="111" type="curve" smooth="yes"/>
      <point x="141" y="310"/>
      <point x="150" y="486"/>
      <point x="188" y="659" type="curve"/>
      <point x="329" y="502"/>
      <point x="436" y="284"/>
      <point x="545" y="98" type="curve"/>
      <point x="565" y="61"/>
      <point x="591" y="-2"/>
      <point x="613" y="-2" type="curve" smooth="yes"/>
      <point x="643" y="-2"/>
      <point x="662" y="32"/>
      <point x="662" y="46" type="curve" smooth="yes"/>
      <point x="662" y="86"/>
      <point x="647" y="122"/>
      <point x="647" y="160" type="curve" smooth="yes"/>
      <point x="647" y="347"/>
      <point x="639" y="520"/>
      <point x="635" y="611" type="curve" smooth="yes"/>
      <point x="633" y="645"/>
      <point x="631" y="666"/>
      <point x="631" y="687" type="curve" smooth="yes"/>
      <point x="631" y="709"/>
      <point x="605" y="731"/>
      <point x="595" y="731" type="curve" smooth="yes"/>
      <point x="584" y="731"/>
      <point x="557" y="719"/>
      <point x="557" y="696" type="curve" smooth="yes"/>
      <point x="557" y="675"/>
      <point x="562" y="653"/>
      <point x="567" y="635" type="curve"/>
      <point x="581" y="506"/>
      <point x="589" y="295"/>
      <point x="594" y="124" type="curve"/>
      <point x="548" y="200"/>
      <point x="531" y="235"/>
      <point x="510" y="271" type="curve" smooth="yes"/>
      <point x="429" y="410"/>
      <point x="260" y="723"/>
    </contour>
  </outline>
</glyph>
<glyph name="O" format="1">
  <advance width="614"/>
  <unicode hex="004F"/>
  <outline>
    <contour>
      <point x="275" y="766" type="move" name="top"/>
    </contour>
    <contour>
      <point x="36" y="343" type="curve" smooth="yes"/>
      <point x="36" y="209"/>
      <point x="111" y="-7"/>
      <point x="313" y="-7" type="curve" smooth="yes"/>
      <point x="460" y="-7"/>
      <point x="578" y="136"/>
      <point x="578" y="318" type="curve" smooth="yes"/>
      <point x="578" y="481"/>
      <point x="528" y="599"/>
      <point x="428" y="676" type="curve" smooth="yes"/>
      <point x="381" y="712"/>
      <point x="325" y="731"/>
      <point x="276" y="731" type="curve" smooth="yes"/>
      <point x="243" y="731"/>
      <point x="189" y="717"/>
      <point x="167" y="694" type="curve"/>
      <point x="127" y="692"/>
      <point x="36" y="531"/>
    </contour>
    <contour>
      <point x="262" y="680" type="curve" smooth="yes"/>
      <point x="311" y="680"/>
      <point x="374" y="657"/>
      <point x="410" y="624" type="curve" smooth="yes"/>
      <point x="491" y="551"/>
      <point x="523" y="412"/>
      <point x="523" y="336" type="curve" smooth="yes"/>
      <point x="523" y="168"/>
      <point x="434" y="46"/>
      <point x="304" y="46" type="curve" smooth="yes"/>
      <point x="154" y="46"/>
      <point x="98" y="218"/>
      <point x="98" y="326" type="curve" smooth="yes"/>
      <point x="98" y="452"/>
      <point x="121" y="545"/>
      <point x="167" y="602" type="curve"/>
      <point x="177" y="613"/>
      <point x="207" y="627"/>
      <point x="207" y="643" type="curve" smooth="yes"/>
      <point x="207" y="644"/>
      <point x="208" y="655"/>
      <point x="201" y="668" type="curve"/>
      <point x="227" y="675"/>
      <point x="246" y="680"/>
    </contour>
  </outline>
</glyph>
<glyph name="P" format="1">
  <advance width="574"/>
  <unicode hex="0050"/>
  <outline>
    <contour>
      <point x="217" y="728" type="curve" smooth="yes"/>
      <point x="166" y="728"/>
      <point x="78" y="700"/>
      <point x="78" y="673" type="curve" smooth="yes"/>
      <point x="78" y="664"/>
      <point x="81" y="639"/>
      <point x="102" y="630" type="curve"/>
      <point x="77" y="615"/>
      <point x="71" y="590"/>
      <point x="71" y="586" type="curve" smooth="yes"/>
      <point x="71" y="565"/>
      <point x="88" y="543"/>
      <point x="91" y="503" type="curve" smooth="yes"/>
      <point x="92" y="489"/>
      <point x="90" y="427"/>
      <point x="88" y="348" type="curve"/>
      <point x="71" y="344"/>
      <point x="64" y="329"/>
      <point x="64" y="325" type="curve" smooth="yes"/>
      <point x="64" y="311"/>
      <point x="68" y="297"/>
      <point x="86" y="286" type="curve"/>
      <point x="81" y="193"/>
      <point x="77" y="134"/>
      <point x="73" y="102" type="curve" smooth="yes"/>
      <point x="68" y="75"/>
      <point x="38" y="54"/>
      <point x="38" y="29" type="curve" smooth="yes"/>
      <point x="38" y="4"/>
      <point x="65" y="-14"/>
      <point x="91" y="-14" type="curve" smooth="yes"/>
      <point x="120" y="-14"/>
      <point x="128" y="53"/>
      <point x="131" y="74" type="curve" smooth="yes"/>
      <point x="140" y="138"/>
      <point x="137" y="225"/>
      <point x="140" y="292" type="curve"/>
      <point x="156" y="299"/>
      <point x="163" y="301"/>
      <point x="174" y="301" type="curve" smooth="yes"/>
      <point x="213" y="301"/>
      <point x="553" y="310"/>
      <point x="553" y="512" type="curve" smooth="yes"/>
      <point x="553" y="573"/>
      <point x="454" y="728"/>
    </contour>
    <contour>
      <point x="156" y="657" type="curve"/>
      <point x="176" y="669"/>
      <point x="209" y="674"/>
      <point x="235" y="674" type="curve" smooth="yes"/>
      <point x="329" y="674"/>
      <point x="493" y="589"/>
      <point x="493" y="505" type="curve" smooth="yes"/>
      <point x="493" y="414"/>
      <point x="359" y="355"/>
      <point x="141" y="348" type="curve" smooth="yes"/>
      <point x="145" y="445"/>
      <point x="146" y="513"/>
      <point x="146" y="530" type="curve" smooth="yes"/>
      <point x="146" y="553"/>
      <point x="154" y="571"/>
      <point x="154" y="591" type="curve" smooth="yes"/>
      <point x="154" y="594"/>
      <point x="150" y="617"/>
      <point x="131" y="626" type="curve"/>
      <point x="145" y="638"/>
      <point x="150" y="652"/>
    </contour>
  </outline>
</glyph>
<glyph name="Q" format="1">
  <advance width="600"/>
  <unicode hex="0051"/>
  <outline>
    <contour>
      <point x="521" y="-78" type="curve" smooth="yes"/>
      <point x="521" y="-47"/>
      <point x="436" y="25"/>
      <point x="413" y="53" type="curve"/>
      <point x="514" y="137"/>
      <point x="568" y="242"/>
      <point x="568" y="297" type="curve" smooth="yes"/>
      <point x="568" y="545"/>
      <point x="426" y="731"/>
      <point x="395" y="731" type="curve" smooth="yes"/>
      <point x="353" y="731"/>
      <point x="221" y="669"/>
      <point x="209" y="623" type="curve"/>
      <point x="111" y="607"/>
      <point x="38" y="370"/>
      <point x="38" y="224" type="curve" smooth="yes"/>
      <point x="38" y="82"/>
      <point x="111" y="-20"/>
      <point x="207" y="-20" type="curve" smooth="yes"/>
      <point x="260" y="-20"/>
      <point x="311" y="-6"/>
      <point x="372" y="27" type="curve"/>
      <point x="415" y="-21"/>
      <point x="445" y="-56"/>
      <point x="461" y="-84" type="curve"/>
      <point x="463" y="-104"/>
      <point x="469" y="-124"/>
      <point x="482" y="-124" type="curve" smooth="yes"/>
      <point x="501" y="-124"/>
      <point x="521" y="-100"/>
    </contour>
    <contour>
      <point x="260" y="593" type="line"/>
      <point x="289" y="593"/>
      <point x="311" y="624"/>
      <point x="322" y="638" type="curve" smooth="yes"/>
      <point x="340" y="660"/>
      <point x="352" y="669"/>
      <point x="372" y="669" type="curve" smooth="yes"/>
      <point x="442" y="669"/>
      <point x="517" y="424"/>
      <point x="517" y="335" type="curve" smooth="yes"/>
      <point x="517" y="248"/>
      <point x="469" y="161"/>
      <point x="379" y="93" type="curve"/>
      <point x="323" y="154"/>
      <point x="307" y="187"/>
      <point x="307" y="218" type="curve" smooth="yes"/>
      <point x="307" y="220"/>
      <point x="307" y="223"/>
      <point x="311" y="235" type="curve" smooth="yes"/>
      <point x="316" y="254"/>
      <point x="297" y="256"/>
      <point x="280" y="256" type="curve" smooth="yes"/>
      <point x="268" y="256"/>
      <point x="252" y="228"/>
      <point x="252" y="202" type="curve" smooth="yes"/>
      <point x="252" y="168"/>
      <point x="292" y="116"/>
      <point x="335" y="64" type="curve"/>
      <point x="284" y="43"/>
      <point x="249" y="36"/>
      <point x="216" y="36" type="curve" smooth="yes"/>
      <point x="137" y="36"/>
      <point x="97" y="103"/>
      <point x="97" y="233" type="curve" smooth="yes"/>
      <point x="97" y="328"/>
      <point x="147" y="561"/>
      <point x="235" y="583" type="curve" smooth="yes"/>
      <point x="240" y="584"/>
      <point x="244" y="585"/>
      <point x="251" y="593" type="curve"/>
    </contour>
  </outline>
</glyph>
<glyph name="R" format="1">
  <advance width="597"/>
  <unicode hex="0052"/>
  <outline>
    <contour>
      <point x="284" y="759" type="move" name="top"/>
    </contour>
    <contour>
      <point x="98" y="686" type="curve" smooth="yes"/>
      <point x="84" y="686"/>
      <point x="61" y="667"/>
      <point x="61" y="649" type="curve" smooth="yes"/>
      <point x="61" y="633"/>
      <point x="71" y="610"/>
      <point x="78" y="594" type="curve" smooth="yes"/>
      <point x="89" y="571"/>
      <point x="97" y="538"/>
      <point x="97" y="500" type="curve" smooth="yes"/>
      <point x="97" y="457"/>
      <point x="97" y="411"/>
      <point x="95" y="361" type="curve"/>
      <point x="71" y="346"/>
      <point x="65" y="336"/>
      <point x="65" y="315" type="curve" smooth="yes"/>
      <point x="65" y="304"/>
      <point x="70" y="290"/>
      <point x="91" y="269" type="curve"/>
      <point x="86" y="199"/>
      <point x="79" y="145"/>
      <point x="69" y="108" type="curve"/>
      <point x="61" y="94"/>
      <point x="56" y="72"/>
      <point x="56" y="56" type="curve" smooth="yes"/>
      <point x="56" y="11"/>
      <point x="89" y="-4"/>
      <point x="104" y="-4" type="curve" smooth="yes"/>
      <point x="114" y="-4"/>
      <point x="129" y="22"/>
      <point x="129" y="63" type="curve"/>
      <point x="129" y="99"/>
      <point x="131" y="127"/>
      <point x="133" y="156" type="curve" smooth="yes"/>
      <point x="135" y="172"/>
      <point x="137" y="192"/>
      <point x="141" y="241" type="curve"/>
      <point x="210" y="197"/>
      <point x="251" y="171"/>
      <point x="292" y="144" type="curve"/>
      <point x="354" y="105"/>
      <point x="401" y="74"/>
      <point x="444" y="46" type="curve" smooth="yes"/>
      <point x="490" y="16"/>
      <point x="528" y="-12"/>
      <point x="566" y="-12" type="curve" smooth="yes"/>
      <point x="581" y="-12"/>
      <point x="603" y="6"/>
      <point x="603" y="32" type="curve" smooth="yes"/>
      <point x="603" y="48"/>
      <point x="552" y="58"/>
      <point x="536" y="64" type="curve" smooth="yes"/>
      <point x="375" y="129"/>
      <point x="244" y="234"/>
      <point x="149" y="305" type="curve"/>
      <point x="149" y="312"/>
      <point x="149" y="309"/>
      <point x="149" y="316" type="curve"/>
      <point x="335" y="331"/>
      <point x="539" y="381"/>
      <point x="539" y="553" type="curve" smooth="yes"/>
      <point x="539" y="652"/>
      <point x="388" y="728"/>
      <point x="164" y="728" type="curve" smooth="yes"/>
      <point x="141" y="728"/>
      <point x="118" y="712"/>
      <point x="111" y="684" type="curve"/>
      <point x="106" y="686"/>
      <point x="102" y="686"/>
    </contour>
    <contour>
      <point x="234" y="674" type="curve" smooth="yes"/>
      <point x="265" y="674"/>
      <point x="475" y="665"/>
      <point x="475" y="539" type="curve" smooth="yes"/>
      <point x="475" y="391"/>
      <point x="242" y="374"/>
      <point x="150" y="368" type="curve" smooth="yes"/>
      <point x="153" y="415"/>
      <point x="153" y="451"/>
      <point x="153" y="487" type="curve" smooth="yes"/>
      <point x="153" y="516"/>
      <point x="151" y="547"/>
      <point x="149" y="571" type="curve" smooth="yes"/>
      <point x="147" y="588"/>
      <point x="147" y="606"/>
      <point x="143" y="641" type="curve"/>
      <point x="185" y="647"/>
      <point x="205" y="674"/>
    </contour>
  </outline>
</glyph>
<glyph name="S" format="1">
  <advance width="555"/>
  <unicode hex="0053"/>
  <outline>
    <contour>
      <point x="331" y="776" type="move" name="top"/>
    </contour>
    <contour>
      <point x="332" y="741" type="curve" smooth="yes"/>
      <point x="234" y="741"/>
      <point x="101" y="590"/>
      <point x="101" y="481" type="curve" smooth="yes"/>
      <point x="101" y="464"/>
      <point x="105" y="380"/>
      <point x="179" y="373" type="curve" smooth="yes"/>
      <point x="353" y="357"/>
      <point x="456" y="312"/>
      <point x="456" y="184" type="curve" smooth="yes"/>
      <point x="456" y="75"/>
      <point x="347" y="35"/>
      <point x="272" y="35" type="curve" smooth="yes"/>
      <point x="141" y="35"/>
      <point x="103" y="153"/>
      <point x="103" y="177" type="curve" smooth="yes"/>
      <point x="103" y="201"/>
      <point x="117" y="220"/>
      <point x="117" y="241" type="curve" smooth="yes"/>
      <point x="117" y="268"/>
      <point x="96" y="285"/>
      <point x="87" y="285" type="curve" smooth="yes"/>
      <point x="53" y="285"/>
      <point x="37" y="255"/>
      <point x="37" y="226" type="curve" smooth="yes"/>
      <point x="37" y="83"/>
      <point x="138" y="-14"/>
      <point x="277" y="-14" type="curve" smooth="yes"/>
      <point x="434" y="-14"/>
      <point x="518" y="100"/>
      <point x="518" y="179" type="curve" smooth="yes"/>
      <point x="518" y="358"/>
      <point x="356" y="393"/>
      <point x="270" y="413" type="curve" smooth="yes"/>
      <point x="231" y="421"/>
      <point x="162" y="427"/>
      <point x="162" y="480" type="curve" smooth="yes"/>
      <point x="162" y="576"/>
      <point x="267" y="688"/>
      <point x="344" y="688" type="curve" smooth="yes"/>
      <point x="391" y="688"/>
      <point x="420" y="664"/>
      <point x="439" y="641" type="curve" smooth="yes"/>
      <point x="452" y="625"/>
      <point x="456" y="615"/>
      <point x="475" y="615" type="curve" smooth="yes"/>
      <point x="489" y="615"/>
      <point x="506" y="629"/>
      <point x="506" y="665" type="curve" smooth="yes"/>
      <point x="506" y="683"/>
      <point x="444" y="741"/>
    </contour>
  </outline>
</glyph>
<glyph name="T" format="1">
  <advance width="559"/>
  <unicode hex="0054"/>
  <outline>
    <contour>
      <point x="279" y="752" type="move" name="top"/>
    </contour>
    <contour>
      <point x="36" y="725" type="curve" smooth="yes"/>
      <point x="14" y="725"/>
      <point x="-14" y="709"/>
      <point x="-14" y="680" type="curve" smooth="yes"/>
      <point x="-14" y="671"/>
      <point x="5" y="648"/>
      <point x="28" y="648" type="curve" smooth="yes"/>
      <point x="66" y="648"/>
      <point x="100" y="658"/>
      <point x="134" y="663" type="curve" smooth="yes"/>
      <point x="149" y="665"/>
      <point x="188" y="669"/>
      <point x="250" y="670" type="curve"/>
      <point x="250" y="628"/>
      <point x="270" y="595"/>
      <point x="270" y="561" type="curve" smooth="yes"/>
      <point x="270" y="385"/>
      <point x="246" y="202"/>
      <point x="234" y="105" type="curve" smooth="yes"/>
      <point x="228" y="60"/>
      <point x="227" y="45"/>
      <point x="227" y="40" type="curve" smooth="yes"/>
      <point x="227" y="23"/>
      <point x="240" y="-6"/>
      <point x="258" y="-6" type="curve" smooth="yes"/>
      <point x="278" y="-6"/>
      <point x="320" y="33"/>
      <point x="320" y="58" type="curve" smooth="yes"/>
      <point x="320" y="63"/>
      <point x="315" y="71"/>
      <point x="300" y="87" type="curve"/>
      <point x="300" y="96"/>
      <point x="301" y="121"/>
      <point x="309" y="238" type="curve" smooth="yes"/>
      <point x="315" y="320"/>
      <point x="327" y="516"/>
      <point x="327" y="555" type="curve" smooth="yes"/>
      <point x="327" y="595"/>
      <point x="324" y="629"/>
      <point x="313" y="672" type="curve"/>
      <point x="389" y="670"/>
      <point x="453" y="658"/>
      <point x="516" y="658" type="curve" smooth="yes"/>
      <point x="543" y="658"/>
      <point x="562" y="671"/>
      <point x="562" y="683" type="curve" smooth="yes"/>
      <point x="562" y="708"/>
      <point x="534" y="725"/>
      <point x="511" y="725" type="curve" smooth="yes"/>
      <point x="503" y="725"/>
      <point x="480" y="724"/>
      <point x="430" y="721" type="curve" smooth="yes"/>
      <point x="377" y="718"/>
      <point x="318" y="717"/>
      <point x="292" y="717" type="curve" smooth="yes"/>
      <point x="255" y="717"/>
      <point x="163" y="717"/>
      <point x="116" y="719" type="curve" smooth="yes"/>
      <point x="85" y="720"/>
      <point x="60" y="725"/>
    </contour>
  </outline>
</glyph>
<glyph name="U" format="1">
  <advance width="662"/>
  <unicode hex="0055"/>
  <outline>
    <contour>
      <point x="284" y="763" type="move" name="top"/>
    </contour>
    <contour>
      <point x="102" y="726" type="curve" smooth="yes"/>
      <point x="91" y="726"/>
      <point x="63" y="705"/>
      <point x="63" y="665" type="curve" smooth="yes"/>
      <point x="63" y="635"/>
      <point x="70" y="611"/>
      <point x="70" y="586" type="curve" smooth="yes"/>
      <point x="70" y="551"/>
      <point x="69" y="515"/>
      <point x="68" y="484" type="curve" smooth="yes"/>
      <point x="66" y="451"/>
      <point x="66" y="422"/>
      <point x="66" y="396" type="curve" smooth="yes"/>
      <point x="66" y="244"/>
      <point x="102" y="-12"/>
      <point x="311" y="-12" type="curve" smooth="yes"/>
      <point x="447" y="-12"/>
      <point x="607" y="98"/>
      <point x="607" y="296" type="curve" smooth="yes"/>
      <point x="607" y="489"/>
      <point x="536" y="614"/>
      <point x="509" y="656" type="curve"/>
      <point x="501" y="677"/>
      <point x="480" y="730"/>
      <point x="451" y="730" type="curve" smooth="yes"/>
      <point x="438" y="730"/>
      <point x="416" y="704"/>
      <point x="416" y="681" type="curve" smooth="yes"/>
      <point x="416" y="651"/>
      <point x="462" y="598"/>
      <point x="488" y="581" type="curve"/>
      <point x="529" y="507"/>
      <point x="549" y="414"/>
      <point x="549" y="273" type="curve" smooth="yes"/>
      <point x="549" y="166"/>
      <point x="453" y="47"/>
      <point x="308" y="47" type="curve" smooth="yes"/>
      <point x="195" y="47"/>
      <point x="125" y="181"/>
      <point x="125" y="390" type="curve" smooth="yes"/>
      <point x="125" y="392"/>
      <point x="130" y="575"/>
      <point x="137" y="613" type="curve"/>
      <point x="144" y="626"/>
      <point x="151" y="647"/>
      <point x="151" y="662" type="curve" smooth="yes"/>
      <point x="151" y="686"/>
      <point x="132" y="726"/>
    </contour>
  </outline>
</glyph>
<glyph name="V" format="1">
  <advance width="562"/>
  <unicode hex="0056"/>
  <outline>
    <contour>
      <point x="35" y="702" type="curve" smooth="yes"/>
      <point x="25" y="702"/>
      <point x="-9" y="667"/>
      <point x="-9" y="653" type="curve" smooth="yes"/>
      <point x="-9" y="634"/>
      <point x="1" y="622"/>
      <point x="22" y="611" type="curve" smooth="yes"/>
      <point x="29" y="607"/>
      <point x="35" y="602"/>
      <point x="40" y="594" type="curve" smooth="yes"/>
      <point x="98" y="495"/>
      <point x="218" y="109"/>
      <point x="218" y="56" type="curve" smooth="yes"/>
      <point x="218" y="47"/>
      <point x="212" y="35"/>
      <point x="212" y="29" type="curve" smooth="yes"/>
      <point x="212" y="10"/>
      <point x="240" y="-7"/>
      <point x="248" y="-7" type="curve" smooth="yes"/>
      <point x="266" y="-7"/>
      <point x="293" y="-1"/>
      <point x="310" y="53" type="curve" smooth="yes"/>
      <point x="343" y="157"/>
      <point x="386" y="244"/>
      <point x="415" y="335" type="curve" smooth="yes"/>
      <point x="441" y="415"/>
      <point x="470" y="501"/>
      <point x="507" y="603" type="curve" smooth="yes"/>
      <point x="517" y="634"/>
      <point x="541" y="661"/>
      <point x="541" y="694" type="curve" smooth="yes"/>
      <point x="541" y="713"/>
      <point x="520" y="730"/>
      <point x="510" y="730" type="curve" smooth="yes"/>
      <point x="475" y="730"/>
      <point x="459" y="713"/>
      <point x="458" y="704" type="curve" smooth="yes"/>
      <point x="446" y="625"/>
      <point x="368" y="332"/>
      <point x="267" y="94" type="curve"/>
      <point x="207" y="327"/>
      <point x="109" y="702"/>
    </contour>
  </outline>
</glyph>
<glyph name="W" format="1">
  <advance width="873"/>
  <unicode hex="0057"/>
  <outline>
    <contour>
      <point x="424" y="705" type="move" name="top"/>
    </contour>
    <contour>
      <point x="68" y="723" type="curve" smooth="yes"/>
      <point x="55" y="723"/>
      <point x="32" y="687"/>
      <point x="32" y="653" type="curve" smooth="yes"/>
      <point x="32" y="627"/>
      <point x="45" y="597"/>
      <point x="61" y="580" type="curve" smooth="yes"/>
      <point x="88" y="553"/>
      <point x="120" y="308"/>
      <point x="129" y="213" type="curve" smooth="yes"/>
      <point x="134" y="168"/>
      <point x="138" y="125"/>
      <point x="138" y="37" type="curve" smooth="yes"/>
      <point x="138" y="11"/>
      <point x="157" y="-19"/>
      <point x="179" y="-19" type="curve" smooth="yes"/>
      <point x="202" y="-19"/>
      <point x="228" y="0"/>
      <point x="230" y="19" type="curve" smooth="yes"/>
      <point x="241" y="120"/>
      <point x="408" y="418"/>
      <point x="439" y="418" type="curve" smooth="yes"/>
      <point x="460" y="418"/>
      <point x="475" y="385"/>
      <point x="489" y="320" type="curve"/>
      <point x="520" y="196"/>
      <point x="563" y="28"/>
      <point x="673" y="28" type="curve" smooth="yes"/>
      <point x="781" y="28"/>
      <point x="803" y="233"/>
      <point x="803" y="346" type="curve" smooth="yes"/>
      <point x="803" y="407"/>
      <point x="789" y="641"/>
      <point x="780" y="663" type="curve" smooth="yes"/>
      <point x="770" y="689"/>
      <point x="761" y="702"/>
      <point x="738" y="702" type="curve" smooth="yes"/>
      <point x="717" y="702"/>
      <point x="697" y="692"/>
      <point x="697" y="671" type="curve" smooth="yes"/>
      <point x="697" y="658"/>
      <point x="703" y="647"/>
      <point x="717" y="629" type="curve" smooth="yes"/>
      <point x="725" y="619"/>
      <point x="725" y="603"/>
      <point x="730" y="569" type="curve" smooth="yes"/>
      <point x="739" y="502"/>
      <point x="747" y="400"/>
      <point x="747" y="348" type="curve" smooth="yes"/>
      <point x="747" y="183"/>
      <point x="716" y="90"/>
      <point x="669" y="90" type="curve" smooth="yes"/>
      <point x="609" y="90"/>
      <point x="575" y="208"/>
      <point x="561" y="269" type="curve" smooth="yes"/>
      <point x="529" y="413"/>
      <point x="486" y="509"/>
      <point x="451" y="509" type="curve" smooth="yes"/>
      <point x="418" y="509"/>
      <point x="335" y="389"/>
      <point x="288" y="295" type="curve" smooth="yes"/>
      <point x="265" y="248"/>
      <point x="249" y="221"/>
      <point x="194" y="91" type="curve"/>
      <point x="185" y="230"/>
      <point x="156" y="482"/>
      <point x="120" y="605" type="curve" smooth="yes"/>
      <point x="112" y="629"/>
      <point x="120" y="653"/>
      <point x="114" y="676" type="curve"/>
      <point x="111" y="688"/>
      <point x="106" y="723"/>
    </contour>
  </outline>
</glyph>
<glyph name="X" format="1">
  <advance width="573"/>
  <unicode hex="0058"/>
  <outline>
    <contour>
      <point x="91" y="709" type="curve" smooth="yes"/>
      <point x="74" y="709"/>
      <point x="54" y="680"/>
      <point x="54" y="665" type="curve" smooth="yes"/>
      <point x="54" y="624"/>
      <point x="88" y="599"/>
      <point x="108" y="569" type="curve" smooth="yes"/>
      <point x="137" y="526"/>
      <point x="202" y="422"/>
      <point x="239" y="365" type="curve"/>
      <point x="211" y="319"/>
      <point x="181" y="277"/>
      <point x="152" y="234" type="curve" smooth="yes"/>
      <point x="108" y="168"/>
      <point x="35" y="58"/>
      <point x="35" y="37" type="curve" smooth="yes"/>
      <point x="35" y="3"/>
      <point x="62" y="-9"/>
      <point x="76" y="-9" type="curve" smooth="yes"/>
      <point x="86" y="-9"/>
      <point x="106" y="18"/>
      <point x="112" y="55" type="curve" smooth="yes"/>
      <point x="116" y="85"/>
      <point x="226" y="252"/>
      <point x="271" y="322" type="curve"/>
      <point x="301" y="281"/>
      <point x="322" y="255"/>
      <point x="343" y="229" type="curve" smooth="yes"/>
      <point x="442" y="102"/>
      <point x="454" y="83"/>
      <point x="457" y="74" type="curve"/>
      <point x="467" y="46"/>
      <point x="490" y="16"/>
      <point x="517" y="16" type="curve" smooth="yes"/>
      <point x="528" y="16"/>
      <point x="553" y="24"/>
      <point x="553" y="45" type="curve" smooth="yes"/>
      <point x="553" y="84"/>
      <point x="515" y="107"/>
      <point x="486" y="132" type="curve" smooth="yes"/>
      <point x="466" y="152"/>
      <point x="395" y="243"/>
      <point x="304" y="373" type="curve"/>
      <point x="314" y="388"/>
      <point x="323" y="400"/>
      <point x="328" y="408" type="curve" smooth="yes"/>
      <point x="385" y="483"/>
      <point x="425" y="565"/>
      <point x="477" y="634" type="curve" smooth="yes"/>
      <point x="483" y="642"/>
      <point x="510" y="661"/>
      <point x="510" y="676" type="curve" smooth="yes"/>
      <point x="510" y="694"/>
      <point x="502" y="738"/>
      <point x="465" y="738" type="curve" smooth="yes"/>
      <point x="439" y="738"/>
      <point x="400" y="622"/>
      <point x="386" y="596" type="curve" smooth="yes"/>
      <point x="359" y="545"/>
      <point x="325" y="492"/>
      <point x="274" y="416" type="curve"/>
      <point x="198" y="529"/>
      <point x="151" y="615"/>
      <point x="141" y="653" type="curve" smooth="yes"/>
      <point x="134" y="678"/>
      <point x="110" y="709"/>
    </contour>
  </outline>
</glyph>
<glyph name="Y" format="1">
  <advance width="490"/>
  <unicode hex="0059"/>
  <outline>
    <contour>
      <point x="236" y="773" type="move" name="top"/>
    </contour>
    <contour>
      <point x="25" y="734" type="curve" smooth="yes"/>
      <point x="6" y="734"/>
      <point x="-5" y="710"/>
      <point x="-5" y="691" type="curve" smooth="yes"/>
      <point x="-5" y="680"/>
      <point x="17" y="645"/>
      <point x="139" y="476" type="curve" smooth="yes"/>
      <point x="186" y="415"/>
      <point x="224" y="346"/>
      <point x="266" y="302" type="curve"/>
      <point x="226" y="205"/>
      <point x="159" y="55"/>
      <point x="159" y="28" type="curve" smooth="yes"/>
      <point x="159" y="0"/>
      <point x="181" y="-15"/>
      <point x="194" y="-15" type="curve" smooth="yes"/>
      <point x="202" y="-15"/>
      <point x="228" y="-12"/>
      <point x="230" y="18" type="curve" smooth="yes"/>
      <point x="237" y="99"/>
      <point x="260" y="157"/>
      <point x="283" y="211" type="curve" smooth="yes"/>
      <point x="298" y="246"/>
      <point x="304" y="262"/>
      <point x="314" y="286" type="curve"/>
      <point x="330" y="290"/>
      <point x="336" y="304"/>
      <point x="336" y="309" type="curve" smooth="yes"/>
      <point x="336" y="319"/>
      <point x="334" y="324"/>
      <point x="332" y="327" type="curve"/>
      <point x="387" y="462"/>
      <point x="439" y="602"/>
      <point x="443" y="616" type="curve" smooth="yes"/>
      <point x="452" y="645"/>
      <point x="472" y="671"/>
      <point x="472" y="702" type="curve" smooth="yes"/>
      <point x="472" y="718"/>
      <point x="460" y="734"/>
      <point x="435" y="734" type="curve"/>
      <point x="409" y="734"/>
      <point x="397" y="718"/>
      <point x="397" y="700" type="curve" smooth="yes"/>
      <point x="397" y="681"/>
      <point x="396" y="669"/>
      <point x="394" y="654" type="curve" smooth="yes"/>
      <point x="388" y="613"/>
      <point x="357" y="525"/>
      <point x="291" y="363" type="curve"/>
      <point x="205" y="456"/>
      <point x="80" y="642"/>
      <point x="77" y="680" type="curve" smooth="yes"/>
      <point x="76" y="698"/>
      <point x="54" y="734"/>
    </contour>
  </outline>
</glyph>
<glyph name="Z" format="1">
  <advance width="654"/>
  <unicode hex="005A"/>
  <outline>
    <contour>
      <point x="332" y="754" type="move" name="top"/>
    </contour>
    <contour>
      <point x="51" y="665" type="curve" smooth="yes"/>
      <point x="51" y="650"/>
      <point x="83" y="618"/>
      <point x="100" y="618" type="curve" smooth="yes"/>
      <point x="115" y="618"/>
      <point x="125" y="634"/>
      <point x="137" y="640" type="curve" smooth="yes"/>
      <point x="175" y="664"/>
      <point x="377" y="674"/>
      <point x="416" y="674" type="curve" smooth="yes"/>
      <point x="440" y="674"/>
      <point x="463" y="673"/>
      <point x="515" y="669" type="curve"/>
      <point x="425" y="556"/>
      <point x="363" y="469"/>
      <point x="300" y="387" type="curve"/>
      <point x="210" y="282"/>
      <point x="18" y="46"/>
      <point x="18" y="32" type="curve" smooth="yes"/>
      <point x="18" y="13"/>
      <point x="40" y="-19"/>
      <point x="59" y="-19" type="curve" smooth="yes"/>
      <point x="66" y="-19"/>
      <point x="75" y="-14"/>
      <point x="91" y="0" type="curve"/>
      <point x="158" y="0"/>
      <point x="176" y="0"/>
      <point x="193" y="0" type="curve" smooth="yes"/>
      <point x="347" y="0"/>
      <point x="469" y="-1"/>
      <point x="590" y="-1" type="curve" smooth="yes"/>
      <point x="607" y="-1"/>
      <point x="629" y="10"/>
      <point x="629" y="23" type="curve" smooth="yes"/>
      <point x="629" y="38"/>
      <point x="618" y="69"/>
      <point x="583" y="69" type="curve" smooth="yes"/>
      <point x="556" y="69"/>
      <point x="534" y="53"/>
      <point x="509" y="53" type="curve" smooth="yes"/>
      <point x="441" y="53"/>
      <point x="424" y="52"/>
      <point x="408" y="52" type="curve" smooth="yes"/>
      <point x="314" y="50"/>
      <point x="224" y="50"/>
      <point x="110" y="50" type="curve"/>
      <point x="128" y="81"/>
      <point x="120" y="66"/>
      <point x="123" y="71" type="curve" smooth="yes"/>
      <point x="181" y="150"/>
      <point x="267" y="256"/>
      <point x="326" y="335" type="curve" smooth="yes"/>
      <point x="369" y="393"/>
      <point x="541" y="605"/>
      <point x="561" y="623" type="curve"/>
      <point x="579" y="631"/>
      <point x="608" y="659"/>
      <point x="610" y="669" type="curve"/>
      <point x="611" y="675"/>
      <point x="614" y="679"/>
      <point x="614" y="684" type="curve" smooth="yes"/>
      <point x="614" y="703"/>
      <point x="608" y="726"/>
      <point x="567" y="726" type="curve" smooth="yes"/>
      <point x="554" y="726"/>
      <point x="534" y="724"/>
      <point x="474" y="722" type="curve"/>
      <point x="380" y="715"/>
      <point x="252" y="707"/>
      <point x="122" y="707" type="curve" smooth="yes"/>
      <point x="101" y="707"/>
      <point x="51" y="697"/>
    </contour>
  </outline>
</glyph>
<glyph name="bracketleft" format="1">
  <advance width="438"/>
  <unicode hex="005B"/>
  <outline>
    <contour>
      <point x="156" y="740" type="curve" smooth="yes"/>
      <point x="148" y="740"/>
      <point x="122" y="718"/>
      <point x="122" y="703" type="curve" smooth="yes"/>
      <point x="122" y="693"/>
      <point x="129" y="684"/>
      <point x="139" y="679" type="curve"/>
      <point x="139" y="667" type="line" smooth="yes"/>
      <point x="139" y="555"/>
      <point x="135" y="462"/>
      <point x="127" y="366" type="curve" smooth="yes"/>
      <point x="108" y="123"/>
      <point x="53" y="-45"/>
      <point x="53" y="-109" type="curve" smooth="yes"/>
      <point x="53" y="-125"/>
      <point x="71" y="-151"/>
      <point x="86" y="-151" type="curve" smooth="yes"/>
      <point x="132" y="-151"/>
      <point x="181" y="-127"/>
      <point x="212" y="-127" type="curve" smooth="yes"/>
      <point x="252" y="-127"/>
      <point x="288" y="-138"/>
      <point x="323" y="-138" type="curve" smooth="yes"/>
      <point x="327" y="-137"/>
      <point x="343" y="-131"/>
      <point x="343" y="-124" type="curve" smooth="yes"/>
      <point x="343" y="-109"/>
      <point x="333" y="-73"/>
      <point x="309" y="-73" type="curve" smooth="yes"/>
      <point x="246" y="-73"/>
      <point x="185" y="-86"/>
      <point x="126" y="-88" type="curve"/>
      <point x="126" y="-51"/>
      <point x="140" y="40"/>
      <point x="160" y="169" type="curve" smooth="yes"/>
      <point x="181" y="317"/>
      <point x="184" y="462"/>
      <point x="203" y="605" type="curve" smooth="yes"/>
      <point x="206" y="628"/>
      <point x="212" y="649"/>
      <point x="217" y="669" type="curve"/>
      <point x="261" y="664"/>
      <point x="313" y="652"/>
      <point x="352" y="652" type="curve" smooth="yes"/>
      <point x="367" y="652"/>
      <point x="367" y="671"/>
      <point x="367" y="675" type="curve" smooth="yes"/>
      <point x="367" y="704"/>
      <point x="343" y="717"/>
      <point x="334" y="717" type="curve" smooth="yes"/>
      <point x="308" y="717"/>
      <point x="285" y="712"/>
      <point x="262" y="712" type="curve" smooth="yes"/>
      <point x="223" y="712"/>
      <point x="192" y="740"/>
    </contour>
  </outline>
</glyph>
<glyph name="backslash" format="1">
  <advance width="451"/>
  <unicode hex="005C"/>
  <outline>
    <contour>
      <point x="384" y="-128" type="curve" smooth="yes"/>
      <point x="400" y="-128"/>
      <point x="422" y="-113"/>
      <point x="422" y="-82" type="curve" smooth="yes"/>
      <point x="422" y="-63"/>
      <point x="392" y="-36"/>
      <point x="387" y="-15" type="curve" smooth="yes"/>
      <point x="381" y="8"/>
      <point x="222" y="429"/>
      <point x="174" y="546" type="curve" smooth="yes"/>
      <point x="157" y="589"/>
      <point x="120" y="725"/>
      <point x="77" y="725" type="curve" smooth="yes"/>
      <point x="57" y="725"/>
      <point x="40" y="696"/>
      <point x="40" y="688" type="curve" smooth="yes"/>
      <point x="39" y="660"/>
      <point x="51" y="645"/>
      <point x="51" y="645" type="curve" smooth="yes"/>
      <point x="88" y="604"/>
      <point x="105" y="556"/>
      <point x="186" y="360" type="curve" smooth="yes"/>
      <point x="243" y="222"/>
      <point x="278" y="93"/>
      <point x="330" y="-38" type="curve" smooth="yes"/>
      <point x="343" y="-71"/>
      <point x="344" y="-128"/>
    </contour>
  </outline>
</glyph>
<glyph name="bracketright" format="1">
  <advance width="436"/>
  <unicode hex="005D"/>
  <outline>
    <contour>
      <point x="114" y="720" type="curve" smooth="yes"/>
      <point x="98" y="720"/>
      <point x="92" y="699"/>
      <point x="92" y="686" type="curve" smooth="yes"/>
      <point x="92" y="676"/>
      <point x="109" y="655"/>
      <point x="124" y="655" type="curve" smooth="yes"/>
      <point x="157" y="655"/>
      <point x="211" y="672"/>
      <point x="244" y="672" type="curve" smooth="yes"/>
      <point x="290" y="672" type="line"/>
      <point x="279" y="659"/>
      <point x="278" y="638"/>
      <point x="278" y="629" type="curve" smooth="yes"/>
      <point x="278" y="525"/>
      <point x="269" y="434"/>
      <point x="260" y="342" type="curve" smooth="yes"/>
      <point x="234" y="92"/>
      <point x="231" y="58"/>
      <point x="228" y="39" type="curve" smooth="yes"/>
      <point x="215" y="-28"/>
      <point x="209" y="-63"/>
      <point x="201" y="-87" type="curve"/>
      <point x="163" y="-87"/>
      <point x="70" y="-71"/>
      <point x="52" y="-80" type="curve" smooth="yes"/>
      <point x="39" y="-83"/>
      <point x="30" y="-97"/>
      <point x="30" y="-113" type="curve" smooth="yes"/>
      <point x="30" y="-120"/>
      <point x="43" y="-136"/>
      <point x="68" y="-136" type="curve" smooth="yes"/>
      <point x="216" y="-136"/>
      <point x="212" y="-150"/>
      <point x="252" y="-150" type="curve" smooth="yes"/>
      <point x="280" y="-150"/>
      <point x="282" y="-113"/>
      <point x="282" y="-106" type="curve" smooth="yes"/>
      <point x="282" y="-92"/>
      <point x="280" y="-22"/>
      <point x="288" y="33" type="curve" smooth="yes"/>
      <point x="290" y="45"/>
      <point x="301" y="153"/>
      <point x="316" y="348" type="curve" smooth="yes"/>
      <point x="322" y="419"/>
      <point x="332" y="510"/>
      <point x="340" y="571" type="curve" smooth="yes"/>
      <point x="346" y="616"/>
      <point x="351" y="653"/>
      <point x="351" y="661" type="curve" smooth="yes"/>
      <point x="351" y="663"/>
      <point x="351" y="667"/>
      <point x="347" y="671" type="curve"/>
      <point x="352" y="674"/>
      <point x="353" y="679"/>
      <point x="353" y="680" type="curve" smooth="yes"/>
      <point x="353" y="720"/>
      <point x="337" y="739"/>
      <point x="322" y="739" type="curve" smooth="yes"/>
      <point x="288" y="739"/>
      <point x="257" y="719"/>
      <point x="222" y="719" type="curve" smooth="yes"/>
      <point x="178" y="719"/>
      <point x="146" y="720"/>
    </contour>
  </outline>
</glyph>
<glyph name="asciicircum" format="1">
  <advance width="538"/>
  <unicode hex="005E"/>
  <outline>
    <contour>
      <point x="269" y="687" type="curve" smooth="yes"/>
      <point x="266" y="687"/>
      <point x="262" y="685"/>
      <point x="260" y="683" type="curve"/>
      <point x="256" y="686"/>
      <point x="259" y="705"/>
      <point x="257" y="711" type="curve" smooth="yes"/>
      <point x="255" y="716"/>
      <point x="245" y="738"/>
      <point x="223" y="738" type="curve" smooth="yes"/>
      <point x="203" y="738"/>
      <point x="199" y="727"/>
      <point x="176" y="650" type="curve" smooth="yes"/>
      <point x="165" y="614"/>
      <point x="80" y="459"/>
      <point x="72" y="446" type="curve" smooth="yes"/>
      <point x="62" y="432"/>
      <point x="55" y="420"/>
      <point x="55" y="401" type="curve" smooth="yes"/>
      <point x="55" y="390"/>
      <point x="64" y="368"/>
      <point x="98" y="368" type="curve" smooth="yes"/>
      <point x="112" y="368"/>
      <point x="128" y="396"/>
      <point x="137" y="433" type="curve" smooth="yes"/>
      <point x="137" y="435"/>
      <point x="163" y="509"/>
      <point x="171" y="516" type="curve" smooth="yes"/>
      <point x="181" y="524"/>
      <point x="205" y="581"/>
      <point x="236" y="634" type="curve"/>
      <point x="271" y="570"/>
      <point x="306" y="524"/>
      <point x="324" y="497" type="curve" smooth="yes"/>
      <point x="356" y="448"/>
      <point x="406" y="383"/>
      <point x="452" y="383" type="curve" smooth="yes"/>
      <point x="491" y="383"/>
      <point x="494" y="402"/>
      <point x="494" y="412" type="curve" smooth="yes"/>
      <point x="494" y="421"/>
      <point x="486" y="439"/>
      <point x="470" y="439" type="curve" smooth="yes"/>
      <point x="463" y="439"/>
      <point x="461" y="440"/>
      <point x="446" y="449" type="curve"/>
      <point x="418" y="463"/>
      <point x="342" y="561"/>
      <point x="307" y="631" type="curve" smooth="yes"/>
      <point x="300" y="645"/>
      <point x="295" y="662"/>
      <point x="293" y="670" type="curve" smooth="yes"/>
      <point x="290" y="684"/>
      <point x="276" y="687"/>
    </contour>
  </outline>
</glyph>
<glyph name="underscore" format="1">
  <advance width="500"/>
  <unicode hex="005F"/>
  <outline>
    <contour>
      <point x="500" y="-167" type="curve" smooth="yes"/>
      <point x="500" y="-148"/>
      <point x="493" y="-144"/>
      <point x="466" y="-144" type="curve" smooth="yes"/>
      <point x="395" y="-144"/>
      <point x="356" y="-146"/>
      <point x="316" y="-146" type="curve" smooth="yes"/>
      <point x="294" y="-146"/>
      <point x="148" y="-147"/>
      <point x="40" y="-154" type="curve" smooth="yes"/>
      <point x="0" y="-156"/>
      <point x="0" y="-172"/>
      <point x="0" y="-178" type="curve" smooth="yes"/>
      <point x="0" y="-200"/>
      <point x="16" y="-215"/>
      <point x="33" y="-215" type="curve" smooth="yes"/>
      <point x="62" y="-215"/>
      <point x="97" y="-200"/>
      <point x="343" y="-200" type="curve" smooth="yes"/>
      <point x="407" y="-200"/>
      <point x="425" y="-211"/>
      <point x="467" y="-211" type="curve" smooth="yes"/>
      <point x="484" y="-211"/>
      <point x="500" y="-190"/>
    </contour>
  </outline>
</glyph>
<glyph name="grave" format="1">
  <advance width="400"/>
  <unicode hex="0060"/>
  <outline>
    <contour>
      <point x="242" y="528" type="move" name="_top"/>
    </contour>
    <contour>
      <point x="107" y="692" type="curve" smooth="yes"/>
      <point x="107" y="676"/>
      <point x="141" y="659"/>
      <point x="159" y="641" type="curve" smooth="yes"/>
      <point x="236" y="564"/>
      <point x="249" y="548"/>
      <point x="265" y="548" type="curve" smooth="yes"/>
      <point x="286" y="548"/>
      <point x="295" y="566"/>
      <point x="295" y="571" type="curve" smooth="yes"/>
      <point x="295" y="598"/>
      <point x="250" y="627"/>
      <point x="227" y="652" type="curve" smooth="yes"/>
      <point x="207" y="673"/>
      <point x="181" y="699"/>
      <point x="167" y="727" type="curve" smooth="yes"/>
      <point x="165" y="731"/>
      <point x="155" y="739"/>
      <point x="138" y="739" type="curve" smooth="yes"/>
      <point x="118" y="739"/>
      <point x="107" y="711"/>
    </contour>
  </outline>
</glyph>
<glyph name="a" format="1">
  <advance width="553"/>
  <unicode hex="0061"/>
  <outline>
    <contour>
      <point x="321" y="532" type="move" name="top"/>
    </contour>
    <contour>
      <point x="324" y="489" type="curve" smooth="yes"/>
      <point x="206" y="489"/>
      <point x="34" y="297"/>
      <point x="34" y="124" type="curve" smooth="yes"/>
      <point x="34" y="38"/>
      <point x="74" y="-12"/>
      <point x="143" y="-12" type="curve" smooth="yes"/>
      <point x="273" y="-12"/>
      <point x="372" y="111"/>
      <point x="430" y="212" type="curve"/>
      <point x="430" y="199"/>
      <point x="426" y="138"/>
      <point x="426" y="128" type="curve" smooth="yes"/>
      <point x="422" y="100"/>
      <point x="424" y="71"/>
      <point x="424" y="43" type="curve" smooth="yes"/>
      <point x="424" y="4"/>
      <point x="427" y="-7"/>
      <point x="461" y="-7" type="curve" smooth="yes"/>
      <point x="474" y="-7"/>
      <point x="494" y="5"/>
      <point x="494" y="20" type="curve" smooth="yes"/>
      <point x="494" y="37"/>
      <point x="491" y="48"/>
      <point x="489" y="61" type="curve" smooth="yes"/>
      <point x="485" y="95"/>
      <point x="479" y="125"/>
      <point x="479" y="220" type="curve" smooth="yes"/>
      <point x="479" y="263"/>
      <point x="493" y="302"/>
      <point x="498" y="327" type="curve" smooth="yes"/>
      <point x="505" y="353"/>
      <point x="507" y="366"/>
      <point x="507" y="377" type="curve" smooth="yes"/>
      <point x="507" y="387"/>
      <point x="498" y="403"/>
      <point x="484" y="403" type="curve" smooth="yes"/>
      <point x="478" y="403"/>
      <point x="470" y="401"/>
      <point x="464" y="394" type="curve"/>
      <point x="454" y="407"/>
      <point x="398" y="489"/>
    </contour>
    <contour>
      <point x="324" y="437" type="curve" smooth="yes"/>
      <point x="375" y="437"/>
      <point x="417" y="384"/>
      <point x="417" y="339" type="curve" smooth="yes"/>
      <point x="417" y="242"/>
      <point x="280" y="39"/>
      <point x="152" y="39" type="curve" smooth="yes"/>
      <point x="109" y="39"/>
      <point x="88" y="85"/>
      <point x="88" y="115" type="curve" smooth="yes"/>
      <point x="88" y="222"/>
      <point x="190" y="437"/>
    </contour>
  </outline>
</glyph>
<glyph name="b" format="1">
  <advance width="559"/>
  <unicode hex="0062"/>
  <outline>
    <contour>
      <point x="235" y="-8" type="curve" smooth="yes"/>
      <point x="483" y="-8"/>
      <point x="532" y="217"/>
      <point x="532" y="277" type="curve" smooth="yes"/>
      <point x="532" y="387"/>
      <point x="462" y="476"/>
      <point x="373" y="476" type="curve" smooth="yes"/>
      <point x="287" y="476"/>
      <point x="203" y="424"/>
      <point x="139" y="299" type="curve"/>
      <point x="151" y="430"/>
      <point x="158" y="621"/>
      <point x="158" y="656" type="curve" smooth="yes"/>
      <point x="158" y="691"/>
      <point x="148" y="727"/>
      <point x="116" y="727" type="curve" smooth="yes"/>
      <point x="102" y="727"/>
      <point x="75" y="705"/>
      <point x="75" y="687" type="curve" smooth="yes"/>
      <point x="75" y="665"/>
      <point x="95" y="651"/>
      <point x="95" y="629" type="curve" smooth="yes"/>
      <point x="95" y="408"/>
      <point x="85" y="242"/>
      <point x="60" y="102" type="curve" smooth="yes"/>
      <point x="59" y="96"/>
      <point x="58" y="90"/>
      <point x="55" y="83" type="curve" smooth="yes"/>
      <point x="47" y="63"/>
      <point x="36" y="41"/>
      <point x="36" y="28" type="curve" smooth="yes"/>
      <point x="36" y="-6"/>
      <point x="51" y="-16"/>
      <point x="66" y="-16" type="curve" smooth="yes"/>
      <point x="79" y="-16"/>
      <point x="89" y="-13"/>
      <point x="102" y="2" type="curve"/>
      <point x="149" y="-7"/>
      <point x="197" y="-8"/>
    </contour>
    <contour>
      <point x="366" y="424" type="curve" smooth="yes"/>
      <point x="414" y="424"/>
      <point x="473" y="366"/>
      <point x="473" y="275" type="curve" smooth="yes"/>
      <point x="473" y="165"/>
      <point x="390" y="35"/>
      <point x="235" y="35" type="curve" smooth="yes"/>
      <point x="171" y="35"/>
      <point x="142" y="45"/>
      <point x="118" y="55" type="curve"/>
      <point x="138" y="201"/>
      <point x="212" y="424"/>
    </contour>
  </outline>
</glyph>
<glyph name="c" format="1">
  <advance width="475"/>
  <unicode hex="0063"/>
  <outline>
    <contour>
      <point x="293" y="528" type="move" name="top"/>
    </contour>
    <contour>
      <point x="365" y="483" type="curve" smooth="yes"/>
      <point x="203" y="483"/>
      <point x="36" y="373"/>
      <point x="36" y="167" type="curve" smooth="yes"/>
      <point x="36" y="47"/>
      <point x="107" y="-17"/>
      <point x="240" y="-17" type="curve" smooth="yes"/>
      <point x="301" y="-17"/>
      <point x="357" y="-5"/>
      <point x="414" y="-5" type="curve" smooth="yes"/>
      <point x="439" y="-5"/>
      <point x="444" y="18"/>
      <point x="444" y="27" type="curve" smooth="yes"/>
      <point x="444" y="37"/>
      <point x="438" y="65"/>
      <point x="421" y="65" type="curve" smooth="yes"/>
      <point x="399" y="65"/>
      <point x="379" y="53"/>
      <point x="362" y="44" type="curve" smooth="yes"/>
      <point x="330" y="29"/>
      <point x="249" y="29"/>
      <point x="248" y="29" type="curve" smooth="yes"/>
      <point x="155" y="29"/>
      <point x="98" y="70"/>
      <point x="98" y="166" type="curve" smooth="yes"/>
      <point x="98" y="306"/>
      <point x="186" y="424"/>
      <point x="310" y="424" type="curve" smooth="yes"/>
      <point x="334" y="424"/>
      <point x="351" y="402"/>
      <point x="371" y="402" type="curve" smooth="yes"/>
      <point x="395" y="402"/>
      <point x="411" y="427"/>
      <point x="411" y="435" type="curve" smooth="yes"/>
      <point x="411" y="471"/>
      <point x="395" y="483"/>
    </contour>
  </outline>
</glyph>
<glyph name="d" format="1">
  <advance width="582"/>
  <unicode hex="0064"/>
  <outline>
    <contour>
      <point x="494" y="-10" type="curve" smooth="yes"/>
      <point x="501" y="-10"/>
      <point x="522" y="-10"/>
      <point x="522" y="37" type="curve" smooth="yes"/>
      <point x="522" y="53"/>
      <point x="521" y="81"/>
      <point x="519" y="110" type="curve" smooth="yes"/>
      <point x="515" y="183"/>
      <point x="513" y="248"/>
      <point x="513" y="310" type="curve" smooth="yes"/>
      <point x="513" y="342"/>
      <point x="512" y="359"/>
      <point x="514" y="376" type="curve" smooth="yes"/>
      <point x="523" y="469"/>
      <point x="531" y="584"/>
      <point x="531" y="643" type="curve" smooth="yes"/>
      <point x="531" y="669"/>
      <point x="529" y="730"/>
      <point x="486" y="730" type="curve" smooth="yes"/>
      <point x="464" y="730"/>
      <point x="441" y="702"/>
      <point x="454" y="682" type="curve" smooth="yes"/>
      <point x="462" y="669"/>
      <point x="464" y="641"/>
      <point x="464" y="588" type="curve" smooth="yes"/>
      <point x="464" y="540"/>
      <point x="463" y="507"/>
      <point x="462" y="481" type="curve" smooth="yes"/>
      <point x="461" y="430"/>
      <point x="460" y="391"/>
      <point x="458" y="354" type="curve" smooth="yes"/>
      <point x="449" y="172"/>
      <point x="298" y="34"/>
      <point x="201" y="34" type="curve" smooth="yes"/>
      <point x="146" y="34"/>
      <point x="90" y="85"/>
      <point x="90" y="170" type="curve" smooth="yes"/>
      <point x="90" y="315"/>
      <point x="199" y="435"/>
      <point x="286" y="435" type="curve" smooth="yes"/>
      <point x="340" y="435"/>
      <point x="373" y="410"/>
      <point x="373" y="393" type="curve" smooth="yes"/>
      <point x="373" y="375"/>
      <point x="380" y="355"/>
      <point x="400" y="355" type="curve" smooth="yes"/>
      <point x="415" y="355"/>
      <point x="434" y="368"/>
      <point x="434" y="385" type="curve" smooth="yes"/>
      <point x="434" y="408"/>
      <point x="400" y="488"/>
      <point x="289" y="488" type="curve" smooth="yes"/>
      <point x="132" y="488"/>
      <point x="34" y="305"/>
      <point x="34" y="176" type="curve" smooth="yes"/>
      <point x="34" y="42"/>
      <point x="108" y="-18"/>
      <point x="182" y="-18" type="curve" smooth="yes"/>
      <point x="280" y="-18"/>
      <point x="382" y="41"/>
      <point x="460" y="182" type="curve"/>
      <point x="459" y="150"/>
      <point x="459" y="70"/>
      <point x="459" y="39" type="curve" smooth="yes"/>
      <point x="459" y="-5"/>
      <point x="470" y="-10"/>
    </contour>
  </outline>
</glyph>
<glyph name="e" format="1">
  <advance width="506"/>
  <unicode hex="0065"/>
  <outline>
    <contour>
      <point x="282" y="522" type="move" name="top"/>
    </contour>
    <contour>
      <point x="322" y="479" type="curve" smooth="yes"/>
      <point x="135" y="479"/>
      <point x="34" y="342"/>
      <point x="34" y="213" type="curve" smooth="yes"/>
      <point x="34" y="73"/>
      <point x="129" y="-16"/>
      <point x="310" y="-16" type="curve" smooth="yes"/>
      <point x="404" y="-16"/>
      <point x="452" y="-1"/>
      <point x="452" y="30" type="curve" smooth="yes"/>
      <point x="452" y="55"/>
      <point x="444" y="69"/>
      <point x="432" y="69" type="curve" smooth="yes"/>
      <point x="423" y="69"/>
      <point x="418" y="67"/>
      <point x="409" y="60" type="curve" smooth="yes"/>
      <point x="391" y="47"/>
      <point x="364" y="33"/>
      <point x="299" y="33" type="curve" smooth="yes"/>
      <point x="165" y="33"/>
      <point x="93" y="96"/>
      <point x="93" y="220" type="curve" smooth="yes"/>
      <point x="93" y="343"/>
      <point x="184" y="429"/>
      <point x="313" y="429" type="curve" smooth="yes"/>
      <point x="375" y="429"/>
      <point x="421" y="398"/>
      <point x="421" y="361" type="curve" smooth="yes"/>
      <point x="421" y="275"/>
      <point x="228" y="265"/>
      <point x="145" y="265" type="curve" smooth="yes"/>
      <point x="127" y="265"/>
      <point x="118" y="257"/>
      <point x="118" y="238" type="curve" smooth="yes"/>
      <point x="118" y="220"/>
      <point x="132" y="209"/>
      <point x="160" y="209" type="curve" smooth="yes"/>
      <point x="194" y="209"/>
      <point x="224" y="219"/>
      <point x="255" y="222" type="curve" smooth="yes"/>
      <point x="357" y="230"/>
      <point x="477" y="269"/>
      <point x="477" y="348" type="curve" smooth="yes"/>
      <point x="477" y="436"/>
      <point x="386" y="479"/>
    </contour>
  </outline>
</glyph>
<glyph name="f" format="1">
  <advance width="385"/>
  <unicode hex="0066"/>
  <outline>
    <contour>
      <point x="48" y="469" type="curve" smooth="yes"/>
      <point x="35" y="469"/>
      <point x="24" y="451"/>
      <point x="24" y="437" type="curve" smooth="yes"/>
      <point x="24" y="430"/>
      <point x="28" y="402"/>
      <point x="48" y="402" type="curve" smooth="yes"/>
      <point x="59" y="402"/>
      <point x="72" y="405"/>
      <point x="85" y="408" type="curve" smooth="yes"/>
      <point x="99" y="411"/>
      <point x="115" y="414"/>
      <point x="152" y="417" type="curve"/>
      <point x="147" y="365"/>
      <point x="142" y="328"/>
      <point x="141" y="297" type="curve" smooth="yes"/>
      <point x="135" y="176"/>
      <point x="126" y="114"/>
      <point x="119" y="75" type="curve" smooth="yes"/>
      <point x="116" y="58"/>
      <point x="114" y="48"/>
      <point x="114" y="29" type="curve" smooth="yes"/>
      <point x="114" y="2"/>
      <point x="129" y="-12"/>
      <point x="156" y="-12" type="curve" smooth="yes"/>
      <point x="179" y="-12"/>
      <point x="191" y="1"/>
      <point x="191" y="31" type="curve" smooth="yes"/>
      <point x="191" y="149"/>
      <point x="194" y="286"/>
      <point x="212" y="419" type="curve"/>
      <point x="266" y="418"/>
      <point x="314" y="415"/>
      <point x="363" y="415" type="curve" smooth="yes"/>
      <point x="393" y="415"/>
      <point x="393" y="426"/>
      <point x="393" y="436" type="curve" smooth="yes"/>
      <point x="393" y="447"/>
      <point x="390" y="472"/>
      <point x="371" y="472" type="curve" smooth="yes"/>
      <point x="350" y="472"/>
      <point x="326" y="470"/>
      <point x="301" y="467" type="curve" smooth="yes"/>
      <point x="280" y="464"/>
      <point x="263" y="463"/>
      <point x="216" y="461" type="curve"/>
      <point x="250" y="618"/>
      <point x="295" y="683"/>
      <point x="375" y="683" type="curve" smooth="yes"/>
      <point x="419" y="683"/>
      <point x="433" y="666"/>
      <point x="433" y="643" type="curve" smooth="yes"/>
      <point x="433" y="618"/>
      <point x="412" y="609"/>
      <point x="412" y="587" type="curve" smooth="yes"/>
      <point x="412" y="579"/>
      <point x="415" y="560"/>
      <point x="448" y="560" type="curve" smooth="yes"/>
      <point x="489" y="560"/>
      <point x="488" y="573"/>
      <point x="488" y="648" type="curve" smooth="yes"/>
      <point x="488" y="683"/>
      <point x="452" y="733"/>
      <point x="387" y="733" type="curve" smooth="yes"/>
      <point x="268" y="733"/>
      <point x="198" y="645"/>
      <point x="158" y="463" type="curve"/>
      <point x="135" y="463"/>
      <point x="127" y="464"/>
      <point x="117" y="465" type="curve" smooth="yes"/>
      <point x="91" y="468"/>
      <point x="69" y="469"/>
    </contour>
  </outline>
</glyph>
<glyph name="g" format="1">
  <advance width="529"/>
  <unicode hex="0067"/>
  <outline>
    <contour>
      <point x="294" y="518" type="move" name="top"/>
    </contour>
    <contour>
      <point x="310" y="478" type="curve" smooth="yes"/>
      <point x="131" y="478"/>
      <point x="37" y="288"/>
      <point x="37" y="157" type="curve" smooth="yes"/>
      <point x="37" y="5"/>
      <point x="154" y="-7"/>
      <point x="190" y="-7" type="curve" smooth="yes"/>
      <point x="256" y="-7"/>
      <point x="329" y="19"/>
      <point x="404" y="92" type="curve"/>
      <point x="386" y="-70"/>
      <point x="359" y="-306"/>
      <point x="231" y="-306" type="curve" smooth="yes"/>
      <point x="189" y="-306"/>
      <point x="121" y="-284"/>
      <point x="103" y="-265" type="curve" smooth="yes"/>
      <point x="89" y="-251"/>
      <point x="81" y="-226"/>
      <point x="62" y="-226" type="curve" smooth="yes"/>
      <point x="43" y="-226"/>
      <point x="36" y="-258"/>
      <point x="36" y="-279" type="curve" smooth="yes"/>
      <point x="36" y="-305"/>
      <point x="79" y="-313"/>
      <point x="100" y="-323" type="curve" smooth="yes"/>
      <point x="131" y="-338"/>
      <point x="176" y="-359"/>
      <point x="226" y="-359" type="curve" smooth="yes"/>
      <point x="353" y="-359"/>
      <point x="391" y="-254"/>
      <point x="401" y="-222" type="curve" smooth="yes"/>
      <point x="443" y="-82"/>
      <point x="471" y="182"/>
      <point x="471" y="292" type="curve" smooth="yes"/>
      <point x="471" y="361"/>
      <point x="450" y="478"/>
    </contour>
    <contour>
      <point x="390" y="166" type="curve" smooth="yes"/>
      <point x="369" y="123"/>
      <point x="302" y="40"/>
      <point x="191" y="40" type="curve" smooth="yes"/>
      <point x="136" y="40"/>
      <point x="100" y="97"/>
      <point x="100" y="148" type="curve" smooth="yes"/>
      <point x="100" y="290"/>
      <point x="189" y="427"/>
      <point x="288" y="427" type="curve" smooth="yes"/>
      <point x="386" y="427"/>
      <point x="411" y="359"/>
      <point x="411" y="324" type="curve" smooth="yes"/>
      <point x="411" y="286"/>
      <point x="410" y="238"/>
      <point x="409" y="184" type="curve"/>
      <point x="398" y="179"/>
      <point x="392" y="170"/>
    </contour>
  </outline>
</glyph>
<glyph name="h" format="1">
  <advance width="568"/>
  <unicode hex="0068"/>
  <outline>
    <contour>
      <point x="127" y="765" type="move" name="top"/>
    </contour>
    <contour>
      <point x="118" y="730" type="curve" smooth="yes"/>
      <point x="99" y="730"/>
      <point x="71" y="711"/>
      <point x="71" y="697" type="curve" smooth="yes"/>
      <point x="71" y="676"/>
      <point x="82" y="658"/>
      <point x="82" y="639" type="curve" smooth="yes"/>
      <point x="82" y="591" type="line" smooth="yes"/>
      <point x="82" y="454"/>
      <point x="79" y="214"/>
      <point x="63" y="104" type="curve"/>
      <point x="58" y="79"/>
      <point x="48" y="55"/>
      <point x="48" y="30" type="curve" smooth="yes"/>
      <point x="48" y="2"/>
      <point x="76" y="-1"/>
      <point x="90" y="-1" type="curve" smooth="yes"/>
      <point x="104" y="-1"/>
      <point x="130" y="53"/>
      <point x="131" y="213" type="curve"/>
      <point x="144" y="277"/>
      <point x="207" y="424"/>
      <point x="327" y="424" type="curve" smooth="yes"/>
      <point x="407" y="424"/>
      <point x="455" y="338"/>
      <point x="455" y="197" type="curve" smooth="yes"/>
      <point x="455" y="142"/>
      <point x="448" y="111"/>
      <point x="443" y="86" type="curve" smooth="yes"/>
      <point x="439" y="68"/>
      <point x="436" y="52"/>
      <point x="436" y="29" type="curve" smooth="yes"/>
      <point x="436" y="17"/>
      <point x="454" y="-5"/>
      <point x="469" y="-5" type="curve" smooth="yes"/>
      <point x="492" y="-5"/>
      <point x="504" y="18"/>
      <point x="503" y="34" type="curve" smooth="yes"/>
      <point x="500" y="85"/>
      <point x="509" y="131"/>
      <point x="509" y="177" type="curve" smooth="yes"/>
      <point x="509" y="314"/>
      <point x="480" y="477"/>
      <point x="340" y="477" type="curve" smooth="yes"/>
      <point x="243" y="477"/>
      <point x="175" y="408"/>
      <point x="133" y="346" type="curve"/>
      <point x="133" y="476"/>
      <point x="142" y="634"/>
      <point x="152" y="691" type="curve"/>
      <point x="155" y="715"/>
      <point x="140" y="730"/>
    </contour>
  </outline>
</glyph>
<glyph name="i" format="1">
  <advance width="201"/>
  <unicode hex="0069"/>
  <outline>
    <contour>
      <point x="116" y="480" type="curve" smooth="yes"/>
      <point x="96" y="480"/>
      <point x="74" y="463"/>
      <point x="74" y="435" type="curve" smooth="yes"/>
      <point x="74" y="397"/>
      <point x="81" y="359"/>
      <point x="81" y="322" type="curve" smooth="yes"/>
      <point x="81" y="244"/>
      <point x="72" y="163"/>
      <point x="65" y="115" type="curve" smooth="yes"/>
      <point x="61" y="87"/>
      <point x="60" y="80"/>
      <point x="59" y="75" type="curve" smooth="yes"/>
      <point x="53" y="27"/>
      <point x="68" y="-5"/>
      <point x="116" y="-5" type="curve" smooth="yes"/>
      <point x="150" y="-5"/>
      <point x="153" y="6"/>
      <point x="153" y="17" type="curve" smooth="yes"/>
      <point x="153" y="23"/>
      <point x="149" y="27"/>
      <point x="141" y="31" type="curve" smooth="yes"/>
      <point x="128" y="39"/>
      <point x="119" y="48"/>
      <point x="119" y="77" type="curve" smooth="yes"/>
      <point x="119" y="132"/>
      <point x="129" y="245"/>
      <point x="138" y="341" type="curve" smooth="yes"/>
      <point x="144" y="398"/>
      <point x="147" y="437"/>
      <point x="147" y="448" type="curve" smooth="yes"/>
      <point x="147" y="460"/>
      <point x="132" y="480"/>
    </contour>
    <contour>
      <point x="113" y="700" type="curve" smooth="yes"/>
      <point x="106" y="700"/>
      <point x="82" y="682"/>
      <point x="82" y="663" type="curve" smooth="yes"/>
      <point x="82" y="635"/>
      <point x="98" y="602"/>
      <point x="117" y="602" type="curve" smooth="yes"/>
      <point x="154" y="602"/>
      <point x="163" y="632"/>
      <point x="163" y="641" type="curve" smooth="yes"/>
      <point x="163" y="664"/>
      <point x="132" y="700"/>
    </contour>
  </outline>
</glyph>
<glyph name="k" format="1">
  <advance width="497"/>
  <unicode hex="006B"/>
  <outline>
    <contour>
      <point x="422" y="461" type="curve" smooth="yes"/>
      <point x="394" y="461"/>
      <point x="379" y="421"/>
      <point x="361" y="406" type="curve" smooth="yes"/>
      <point x="289" y="339"/>
      <point x="203" y="299"/>
      <point x="128" y="245" type="curve"/>
      <point x="130" y="288"/>
      <point x="131" y="325"/>
      <point x="132" y="361" type="curve" smooth="yes"/>
      <point x="135" y="498"/>
      <point x="135" y="636"/>
      <point x="135" y="659" type="curve" smooth="yes"/>
      <point x="135" y="716"/>
      <point x="117" y="716"/>
      <point x="110" y="716" type="curve" smooth="yes"/>
      <point x="85" y="716"/>
      <point x="61" y="684"/>
      <point x="61" y="671" type="curve" smooth="yes"/>
      <point x="61" y="649"/>
      <point x="71" y="631"/>
      <point x="73" y="611" type="curve" smooth="yes"/>
      <point x="75" y="589"/>
      <point x="77" y="566"/>
      <point x="77" y="535" type="curve" smooth="yes"/>
      <point x="77" y="443"/>
      <point x="74" y="367"/>
      <point x="74" y="292" type="curve" smooth="yes"/>
      <point x="74" y="269"/>
      <point x="74" y="249"/>
      <point x="73" y="223" type="curve"/>
      <point x="66" y="218"/>
      <point x="63" y="214"/>
      <point x="63" y="208" type="curve" smooth="yes"/>
      <point x="63" y="202"/>
      <point x="65" y="193"/>
      <point x="72" y="181" type="curve"/>
      <point x="68" y="107"/>
      <point x="65" y="67"/>
      <point x="59" y="45" type="curve" smooth="yes"/>
      <point x="57" y="36"/>
      <point x="55" y="30"/>
      <point x="55" y="25" type="curve" smooth="yes"/>
      <point x="55" y="14"/>
      <point x="75" y="-7"/>
      <point x="85" y="-7" type="curve" smooth="yes"/>
      <point x="97" y="-7"/>
      <point x="128" y="7"/>
      <point x="128" y="31" type="curve" smooth="yes"/>
      <point x="128" y="68"/>
      <point x="129" y="117"/>
      <point x="129" y="167" type="curve"/>
      <point x="133" y="168"/>
      <point x="133" y="169"/>
      <point x="137" y="169" type="curve"/>
      <point x="180" y="168"/>
      <point x="385" y="32"/>
      <point x="392" y="24" type="curve" smooth="yes"/>
      <point x="411" y="1"/>
      <point x="432" y="-10"/>
      <point x="449" y="-10" type="curve" smooth="yes"/>
      <point x="466" y="-10"/>
      <point x="474" y="9"/>
      <point x="474" y="18" type="curve" smooth="yes"/>
      <point x="474" y="46"/>
      <point x="466" y="50"/>
      <point x="450" y="58" type="curve"/>
      <point x="415" y="75"/>
      <point x="381" y="94"/>
      <point x="323" y="129" type="curve" smooth="yes"/>
      <point x="279" y="155"/>
      <point x="229" y="186"/>
      <point x="171" y="216" type="curve"/>
      <point x="214" y="246"/>
      <point x="238" y="262"/>
      <point x="268" y="281" type="curve" smooth="yes"/>
      <point x="292" y="296"/>
      <point x="315" y="311"/>
      <point x="349" y="332" type="curve" smooth="yes"/>
      <point x="388" y="356"/>
      <point x="438" y="385"/>
      <point x="446" y="403" type="curve"/>
      <point x="451" y="424"/>
      <point x="450" y="461"/>
    </contour>
  </outline>
</glyph>
<glyph name="l" format="1">
  <advance width="223"/>
  <unicode hex="006C"/>
  <outline>
    <contour>
      <point x="123" y="743" type="move" name="top"/>
    </contour>
    <contour>
      <point x="198" y="14" type="curve" smooth="yes"/>
      <point x="198" y="31"/>
      <point x="188" y="37"/>
      <point x="169" y="41" type="curve" smooth="yes"/>
      <point x="164" y="42"/>
      <point x="158" y="41"/>
      <point x="148" y="45" type="curve"/>
      <point x="136" y="67"/>
      <point x="127" y="95"/>
      <point x="127" y="175" type="curve" smooth="yes"/>
      <point x="127" y="337"/>
      <point x="140" y="490"/>
      <point x="161" y="622" type="curve" smooth="yes"/>
      <point x="163" y="637"/>
      <point x="164" y="650"/>
      <point x="164" y="653" type="curve" smooth="yes"/>
      <point x="164" y="667"/>
      <point x="149" y="708"/>
      <point x="119" y="708" type="curve" smooth="yes"/>
      <point x="103" y="708"/>
      <point x="84" y="690"/>
      <point x="84" y="675" type="curve" smooth="yes"/>
      <point x="84" y="662"/>
      <point x="92" y="638"/>
      <point x="92" y="617" type="curve" smooth="yes"/>
      <point x="90" y="499"/>
      <point x="82" y="389"/>
      <point x="76" y="273" type="curve" smooth="yes"/>
      <point x="72" y="196"/>
      <point x="70" y="126"/>
      <point x="70" y="65" type="curve" smooth="yes"/>
      <point x="70" y="13"/>
      <point x="113" y="-15"/>
      <point x="149" y="-15" type="curve" smooth="yes"/>
      <point x="169" y="-15"/>
      <point x="198" y="-10"/>
    </contour>
  </outline>
</glyph>
<glyph name="m" format="1">
  <advance width="868"/>
  <unicode hex="006D"/>
  <outline>
    <contour>
      <point x="121" y="472" type="curve" smooth="yes"/>
      <point x="87" y="472"/>
      <point x="74" y="458"/>
      <point x="74" y="434" type="curve" smooth="yes"/>
      <point x="74" y="397"/>
      <point x="83" y="366"/>
      <point x="83" y="333" type="curve" smooth="yes"/>
      <point x="83" y="166"/>
      <point x="71" y="110"/>
      <point x="61" y="73" type="curve" smooth="yes"/>
      <point x="56" y="56"/>
      <point x="53" y="44"/>
      <point x="53" y="26" type="curve" smooth="yes"/>
      <point x="53" y="-6"/>
      <point x="71" y="-9"/>
      <point x="90" y="-9" type="curve" smooth="yes"/>
      <point x="111" y="-9"/>
      <point x="128" y="19"/>
      <point x="128" y="86" type="curve" smooth="yes"/>
      <point x="128" y="158"/>
      <point x="139" y="221"/>
      <point x="139" y="285" type="curve"/>
      <point x="161" y="359"/>
      <point x="223" y="421"/>
      <point x="290" y="421" type="curve" smooth="yes"/>
      <point x="372" y="421"/>
      <point x="407" y="356"/>
      <point x="407" y="234" type="curve" smooth="yes"/>
      <point x="407" y="199"/>
      <point x="402" y="148"/>
      <point x="398" y="109" type="curve" smooth="yes"/>
      <point x="392" y="62"/>
      <point x="388" y="43"/>
      <point x="388" y="34" type="curve" smooth="yes"/>
      <point x="388" y="-3"/>
      <point x="406" y="-3"/>
      <point x="416" y="-3" type="curve" smooth="yes"/>
      <point x="459" y="-3"/>
      <point x="459" y="41"/>
      <point x="459" y="43" type="curve" smooth="yes"/>
      <point x="459" y="74"/>
      <point x="468" y="227"/>
      <point x="476" y="267" type="curve"/>
      <point x="484" y="282"/>
      <point x="538" y="415"/>
      <point x="631" y="415" type="curve" smooth="yes"/>
      <point x="693" y="415"/>
      <point x="744" y="385"/>
      <point x="744" y="243" type="curve" smooth="yes"/>
      <point x="744" y="206"/>
      <point x="743" y="161"/>
      <point x="732" y="98" type="curve" smooth="yes"/>
      <point x="726" y="65"/>
      <point x="720" y="40"/>
      <point x="720" y="18" type="curve" smooth="yes"/>
      <point x="720" y="0"/>
      <point x="733" y="-6"/>
      <point x="753" y="-6" type="curve" smooth="yes"/>
      <point x="774" y="-6"/>
      <point x="787" y="5"/>
      <point x="788" y="21" type="curve" smooth="yes"/>
      <point x="790" y="48"/>
      <point x="792" y="73"/>
      <point x="795" y="104" type="curve" smooth="yes"/>
      <point x="800" y="164"/>
      <point x="804" y="211"/>
      <point x="804" y="251" type="curve" smooth="yes"/>
      <point x="804" y="383"/>
      <point x="741" y="467"/>
      <point x="642" y="467" type="curve" smooth="yes"/>
      <point x="544" y="467"/>
      <point x="485" y="392"/>
      <point x="452" y="343" type="curve"/>
      <point x="430" y="431"/>
      <point x="367" y="472"/>
      <point x="308" y="472" type="curve" smooth="yes"/>
      <point x="238" y="472"/>
      <point x="186" y="443"/>
      <point x="136" y="386" type="curve"/>
      <point x="136" y="402"/>
      <point x="138" y="416"/>
      <point x="139" y="424" type="curve" smooth="yes"/>
      <point x="143" y="441"/>
      <point x="145" y="472"/>
    </contour>
  </outline>
</glyph>
<glyph name="n" format="1">
  <advance width="579"/>
  <unicode hex="006E"/>
  <outline>
    <contour>
      <point x="297" y="520" type="move" name="top"/>
    </contour>
    <contour>
      <point x="60" y="433" type="curve"/>
      <point x="60" y="415"/>
      <point x="75" y="383"/>
      <point x="75" y="356" type="curve" smooth="yes"/>
      <point x="75" y="297"/>
      <point x="72" y="238"/>
      <point x="65" y="170" type="curve" smooth="yes"/>
      <point x="60" y="121"/>
      <point x="54" y="66"/>
      <point x="54" y="26" type="curve" smooth="yes"/>
      <point x="54" y="8"/>
      <point x="74" y="-9"/>
      <point x="91" y="-9" type="curve" smooth="yes"/>
      <point x="120" y="-9"/>
      <point x="129" y="87"/>
      <point x="129" y="222" type="curve" smooth="yes"/>
      <point x="129" y="254"/>
      <point x="141" y="280"/>
      <point x="149" y="299" type="curve" smooth="yes"/>
      <point x="159" y="321"/>
      <point x="228" y="431"/>
      <point x="332" y="431" type="curve" smooth="yes"/>
      <point x="429" y="431"/>
      <point x="464" y="333"/>
      <point x="464" y="244" type="curve" smooth="yes"/>
      <point x="464" y="132"/>
      <point x="447" y="81"/>
      <point x="435" y="52" type="curve" smooth="yes"/>
      <point x="432" y="46"/>
      <point x="430" y="41"/>
      <point x="430" y="36" type="curve" smooth="yes"/>
      <point x="430" y="21"/>
      <point x="435" y="-7"/>
      <point x="454" y="-7" type="curve" smooth="yes"/>
      <point x="489" y="-7"/>
      <point x="500" y="15"/>
      <point x="509" y="58" type="curve" smooth="yes"/>
      <point x="516" y="95"/>
      <point x="521" y="169"/>
      <point x="521" y="242" type="curve" smooth="yes"/>
      <point x="521" y="386"/>
      <point x="456" y="478"/>
      <point x="342" y="478" type="curve" smooth="yes"/>
      <point x="241" y="478"/>
      <point x="182" y="422"/>
      <point x="129" y="356" type="curve"/>
      <point x="137" y="414"/>
      <point x="137" y="414"/>
      <point x="137" y="424" type="curve" smooth="yes"/>
      <point x="137" y="458"/>
      <point x="131" y="479"/>
      <point x="114" y="479" type="curve" smooth="yes"/>
      <point x="84" y="479"/>
      <point x="60" y="463"/>
    </contour>
  </outline>
</glyph>
<glyph name="o" format="1">
  <advance width="514"/>
  <unicode hex="006F"/>
  <outline>
    <contour>
      <point x="254" y="528" type="move" name="top"/>
    </contour>
    <contour>
      <point x="248" y="486" type="curve" smooth="yes"/>
      <point x="145" y="486"/>
      <point x="34" y="361"/>
      <point x="34" y="175" type="curve" smooth="yes"/>
      <point x="34" y="69"/>
      <point x="112" y="-11"/>
      <point x="215" y="-11" type="curve" smooth="yes"/>
      <point x="424" y="-11"/>
      <point x="480" y="149"/>
      <point x="480" y="236" type="curve" smooth="yes"/>
      <point x="480" y="434"/>
      <point x="333" y="486"/>
    </contour>
    <contour>
      <point x="240" y="433" type="curve" smooth="yes"/>
      <point x="345" y="433"/>
      <point x="424" y="356"/>
      <point x="424" y="257" type="curve" smooth="yes"/>
      <point x="424" y="150"/>
      <point x="353" y="41"/>
      <point x="233" y="41" type="curve" smooth="yes"/>
      <point x="162" y="41"/>
      <point x="90" y="91"/>
      <point x="90" y="186" type="curve" smooth="yes"/>
      <point x="90" y="297"/>
      <point x="158" y="433"/>
    </contour>
  </outline>
</glyph>
<glyph name="p" format="1">
  <advance width="540"/>
  <unicode hex="0070"/>
  <outline>
    <contour>
      <point x="85" y="479" type="curve" smooth="yes"/>
      <point x="68" y="479"/>
      <point x="53" y="467"/>
      <point x="53" y="446" type="curve" smooth="yes"/>
      <point x="53" y="432"/>
      <point x="55" y="403"/>
      <point x="58" y="372" type="curve" smooth="yes"/>
      <point x="64" y="305"/>
      <point x="69" y="255"/>
      <point x="69" y="214" type="curve" smooth="yes"/>
      <point x="69" y="177"/>
      <point x="63" y="100"/>
      <point x="58" y="18" type="curve" smooth="yes"/>
      <point x="47" y="-152"/>
      <point x="43" y="-216"/>
      <point x="43" y="-246" type="curve" smooth="yes"/>
      <point x="43" y="-273"/>
      <point x="71" y="-303"/>
      <point x="89" y="-303" type="curve" smooth="yes"/>
      <point x="114" y="-303"/>
      <point x="115" y="-274"/>
      <point x="115" y="-251" type="curve" smooth="yes"/>
      <point x="115" y="-221"/>
      <point x="104" y="-196"/>
      <point x="104" y="-169" type="curve" smooth="yes"/>
      <point x="104" y="-153"/>
      <point x="109" y="-79"/>
      <point x="111" y="-52" type="curve" smooth="yes"/>
      <point x="111" y="-44"/>
      <point x="112" y="-33"/>
      <point x="114" y="-11" type="curve"/>
      <point x="139" y="-5"/>
      <point x="158" y="-4"/>
      <point x="191" y="-4" type="curve" smooth="yes"/>
      <point x="354" y="-4"/>
      <point x="503" y="110"/>
      <point x="503" y="233" type="curve" smooth="yes"/>
      <point x="503" y="358"/>
      <point x="386" y="486"/>
      <point x="164" y="486" type="curve" smooth="yes"/>
      <point x="132" y="486"/>
      <point x="114" y="482"/>
      <point x="103" y="469" type="curve"/>
      <point x="97" y="477"/>
      <point x="89" y="479"/>
    </contour>
    <contour>
      <point x="198" y="436" type="curve" smooth="yes"/>
      <point x="335" y="436"/>
      <point x="439" y="358"/>
      <point x="439" y="234" type="curve" smooth="yes"/>
      <point x="439" y="129"/>
      <point x="321" y="46"/>
      <point x="184" y="46" type="curve" smooth="yes"/>
      <point x="169" y="46"/>
      <point x="140" y="49"/>
      <point x="117" y="49" type="curve"/>
      <point x="124" y="138"/>
      <point x="127" y="196"/>
      <point x="127" y="220" type="curve" smooth="yes"/>
      <point x="127" y="263"/>
      <point x="127" y="344"/>
      <point x="124" y="414" type="curve"/>
      <point x="159" y="420"/>
      <point x="177" y="436"/>
    </contour>
  </outline>
</glyph>
<glyph name="q" format="1">
  <advance width="539"/>
  <unicode hex="0071"/>
  <outline>
    <contour>
      <point x="499" y="-259" type="curve" smooth="yes"/>
      <point x="499" y="-231"/>
      <point x="490" y="-208"/>
      <point x="487" y="-182" type="curve" smooth="yes"/>
      <point x="481" y="-135"/>
      <point x="472" y="37"/>
      <point x="472" y="142" type="curve" smooth="yes"/>
      <point x="472" y="184"/>
      <point x="473" y="224"/>
      <point x="476" y="260" type="curve" smooth="yes"/>
      <point x="479" y="289"/>
      <point x="480" y="322"/>
      <point x="480" y="351" type="curve" smooth="yes"/>
      <point x="480" y="452"/>
      <point x="459" y="477"/>
      <point x="428" y="477" type="curve" smooth="yes"/>
      <point x="401" y="477"/>
      <point x="391" y="460"/>
      <point x="391" y="424" type="curve"/>
      <point x="380" y="446"/>
      <point x="318" y="478"/>
      <point x="236" y="478" type="curve" smooth="yes"/>
      <point x="140" y="478"/>
      <point x="37" y="406"/>
      <point x="37" y="241" type="curve" smooth="yes"/>
      <point x="37" y="121"/>
      <point x="97" y="-4"/>
      <point x="235" y="-4" type="curve" smooth="yes"/>
      <point x="289" y="-4"/>
      <point x="346" y="15"/>
      <point x="421" y="74" type="curve"/>
      <point x="424" y="16"/>
      <point x="424" y="-18"/>
      <point x="424" y="-51" type="curve" smooth="yes"/>
      <point x="424" y="-129"/>
      <point x="425" y="-194"/>
      <point x="425" y="-228" type="curve" smooth="yes"/>
      <point x="425" y="-243"/>
      <point x="424" y="-258"/>
      <point x="424" y="-262" type="curve" smooth="yes"/>
      <point x="424" y="-287"/>
      <point x="439" y="-296"/>
      <point x="457" y="-296" type="curve" smooth="yes"/>
      <point x="480" y="-296"/>
      <point x="499" y="-278"/>
    </contour>
    <contour>
      <point x="235" y="47" type="curve" smooth="yes"/>
      <point x="152" y="47"/>
      <point x="95" y="128"/>
      <point x="95" y="242" type="curve" smooth="yes"/>
      <point x="95" y="356"/>
      <point x="157" y="428"/>
      <point x="245" y="428" type="curve" smooth="yes"/>
      <point x="307" y="428"/>
      <point x="329" y="402"/>
      <point x="341" y="376" type="curve" smooth="yes"/>
      <point x="347" y="362"/>
      <point x="354" y="355"/>
      <point x="372" y="355" type="curve" smooth="yes"/>
      <point x="383" y="355"/>
      <point x="397" y="364"/>
      <point x="400" y="378" type="curve"/>
      <point x="411" y="323"/>
      <point x="415" y="249"/>
      <point x="419" y="154" type="curve"/>
      <point x="386" y="117"/>
      <point x="321" y="47"/>
    </contour>
  </outline>
</glyph>
<glyph name="r" format="1">
  <advance width="446"/>
  <unicode hex="0072"/>
  <outline>
    <contour>
      <point x="223" y="513" type="move" name="top"/>
    </contour>
    <contour>
      <point x="353" y="470" type="curve" smooth="yes"/>
      <point x="258" y="470"/>
      <point x="182" y="419"/>
      <point x="126" y="296" type="curve"/>
      <point x="129" y="323"/>
      <point x="133" y="390"/>
      <point x="133" y="412" type="curve" smooth="yes"/>
      <point x="133" y="443"/>
      <point x="127" y="472"/>
      <point x="87" y="472" type="curve" smooth="yes"/>
      <point x="63" y="472"/>
      <point x="54" y="461"/>
      <point x="54" y="437" type="curve" smooth="yes"/>
      <point x="54" y="422"/>
      <point x="69" y="404"/>
      <point x="71" y="382" type="curve"/>
      <point x="76" y="289"/>
      <point x="77" y="236"/>
      <point x="77" y="196" type="curve" smooth="yes"/>
      <point x="77" y="141"/>
      <point x="74" y="108"/>
      <point x="74" y="68" type="curve"/>
      <point x="73" y="46"/>
      <point x="65" y="34"/>
      <point x="65" y="15" type="curve" smooth="yes"/>
      <point x="65" y="4"/>
      <point x="84" y="-6"/>
      <point x="103" y="-6" type="curve" smooth="yes"/>
      <point x="122" y="-6"/>
      <point x="137" y="20"/>
      <point x="137" y="35" type="curve" smooth="yes"/>
      <point x="137" y="69"/>
      <point x="131" y="98"/>
      <point x="131" y="128" type="curve" smooth="yes"/>
      <point x="131" y="176"/>
      <point x="176" y="421"/>
      <point x="345" y="421" type="curve" smooth="yes"/>
      <point x="379" y="421"/>
      <point x="392" y="378"/>
      <point x="415" y="378" type="curve" smooth="yes"/>
      <point x="427" y="378"/>
      <point x="446" y="396"/>
      <point x="446" y="427" type="curve" smooth="yes"/>
      <point x="446" y="442"/>
      <point x="417" y="470"/>
    </contour>
  </outline>
</glyph>
<glyph name="s" format="1">
  <advance width="457"/>
  <unicode hex="0073"/>
  <outline>
    <contour>
      <point x="227" y="521" type="move" name="top"/>
    </contour>
    <contour>
      <point x="293" y="487" type="curve" smooth="yes"/>
      <point x="273" y="487"/>
      <point x="258" y="480"/>
      <point x="241" y="480" type="curve" smooth="yes"/>
      <point x="108" y="480"/>
      <point x="46" y="393"/>
      <point x="46" y="335" type="curve" smooth="yes"/>
      <point x="46" y="265"/>
      <point x="82" y="224"/>
      <point x="169" y="224" type="curve" smooth="yes"/>
      <point x="255" y="224"/>
      <point x="369" y="207"/>
      <point x="369" y="108" type="curve" smooth="yes"/>
      <point x="369" y="63"/>
      <point x="311" y="26"/>
      <point x="246" y="26" type="curve" smooth="yes"/>
      <point x="176" y="26"/>
      <point x="138" y="45"/>
      <point x="109" y="63" type="curve" smooth="yes"/>
      <point x="92" y="74"/>
      <point x="78" y="78"/>
      <point x="57" y="78" type="curve" smooth="yes"/>
      <point x="50" y="78"/>
      <point x="29" y="61"/>
      <point x="29" y="46" type="curve" smooth="yes"/>
      <point x="29" y="28"/>
      <point x="43" y="8"/>
      <point x="62" y="8" type="curve" smooth="yes"/>
      <point x="88" y="8"/>
      <point x="105" y="3"/>
      <point x="125" y="-2" type="curve" smooth="yes"/>
      <point x="146" y="-8"/>
      <point x="171" y="-15"/>
      <point x="217" y="-15" type="curve" smooth="yes"/>
      <point x="349" y="-15"/>
      <point x="425" y="32"/>
      <point x="425" y="123" type="curve" smooth="yes"/>
      <point x="425" y="212"/>
      <point x="349" y="271"/>
      <point x="180" y="271" type="curve" smooth="yes"/>
      <point x="134" y="271"/>
      <point x="105" y="286"/>
      <point x="105" y="334" type="curve" smooth="yes"/>
      <point x="105" y="378"/>
      <point x="146" y="436"/>
      <point x="214" y="436" type="curve" smooth="yes"/>
      <point x="268" y="436"/>
      <point x="296" y="412"/>
      <point x="304" y="403" type="curve" smooth="yes"/>
      <point x="313" y="393"/>
      <point x="317" y="389"/>
      <point x="327" y="389" type="curve" smooth="yes"/>
      <point x="342" y="389"/>
      <point x="367" y="408"/>
      <point x="367" y="416" type="curve" smooth="yes"/>
      <point x="367" y="446"/>
      <point x="316" y="487"/>
    </contour>
  </outline>
</glyph>
<glyph name="t" format="1">
  <advance width="365"/>
  <unicode hex="0074"/>
  <outline>
    <contour>
      <point x="32" y="465" type="curve" smooth="yes"/>
      <point x="18" y="465"/>
      <point x="5" y="452"/>
      <point x="5" y="435" type="curve" smooth="yes"/>
      <point x="5" y="404"/>
      <point x="18" y="404"/>
      <point x="35" y="404" type="curve" smooth="yes"/>
      <point x="53" y="404"/>
      <point x="75" y="407"/>
      <point x="82" y="410" type="curve"/>
      <point x="92" y="414"/>
      <point x="102" y="416"/>
      <point x="131" y="419" type="curve" smooth="yes"/>
      <point x="127" y="385"/>
      <point x="126" y="372"/>
      <point x="125" y="359" type="curve" smooth="yes"/>
      <point x="113" y="267"/>
      <point x="103" y="175"/>
      <point x="103" y="85" type="curve" smooth="yes"/>
      <point x="103" y="18"/>
      <point x="158" y="-10"/>
      <point x="180" y="-10" type="curve" smooth="yes"/>
      <point x="205" y="-10"/>
      <point x="225" y="-5"/>
      <point x="246" y="0" type="curve" smooth="yes"/>
      <point x="265" y="5"/>
      <point x="284" y="10"/>
      <point x="310" y="10" type="curve" smooth="yes"/>
      <point x="320" y="10"/>
      <point x="329" y="27"/>
      <point x="329" y="34" type="curve" smooth="yes"/>
      <point x="329" y="43"/>
      <point x="318" y="68"/>
      <point x="303" y="68" type="curve" smooth="yes"/>
      <point x="285" y="68"/>
      <point x="270" y="62"/>
      <point x="255" y="56" type="curve" smooth="yes"/>
      <point x="230" y="46"/>
      <point x="207" y="41"/>
      <point x="192" y="41" type="curve" smooth="yes"/>
      <point x="179" y="41"/>
      <point x="158" y="85"/>
      <point x="158" y="104" type="curve" smooth="yes"/>
      <point x="158" y="171"/>
      <point x="170" y="293"/>
      <point x="183" y="416" type="curve"/>
      <point x="231" y="416"/>
      <point x="240" y="417"/>
      <point x="248" y="417" type="curve" smooth="yes"/>
      <point x="312" y="417" type="line" smooth="yes"/>
      <point x="333" y="417"/>
      <point x="350" y="431"/>
      <point x="350" y="448" type="curve" smooth="yes"/>
      <point x="350" y="463"/>
      <point x="332" y="471"/>
      <point x="316" y="471" type="curve" smooth="yes"/>
      <point x="289" y="471"/>
      <point x="267" y="462"/>
      <point x="243" y="462" type="curve" smooth="yes"/>
      <point x="190" y="462" type="line"/>
      <point x="195" y="481"/>
      <point x="197" y="497"/>
      <point x="200" y="515" type="curve" smooth="yes"/>
      <point x="208" y="561"/>
      <point x="212" y="593"/>
      <point x="212" y="599" type="curve" smooth="yes"/>
      <point x="212" y="635"/>
      <point x="183" y="644"/>
      <point x="156" y="644" type="curve" smooth="yes"/>
      <point x="146" y="644"/>
      <point x="127" y="611"/>
      <point x="127" y="595" type="curve" smooth="yes"/>
      <point x="127" y="583"/>
      <point x="131" y="571"/>
      <point x="140" y="556" type="curve"/>
      <point x="140" y="523"/>
      <point x="136" y="501"/>
      <point x="133" y="462" type="curve"/>
      <point x="88" y="462" type="line" smooth="yes"/>
      <point x="64" y="462"/>
      <point x="46" y="465"/>
    </contour>
  </outline>
</glyph>
